<?xml version="1.0" encoding="UTF-8" standalone="no"?>
<!-- Created with Inkscape (http://www.inkscape.org/) -->

<svg
   xmlns:dc="http://purl.org/dc/elements/1.1/"
   xmlns:cc="http://creativecommons.org/ns#"
   xmlns:rdf="http://www.w3.org/1999/02/22-rdf-syntax-ns#"
   xmlns:svg="http://www.w3.org/2000/svg"
   xmlns="http://www.w3.org/2000/svg"
   xmlns:sodipodi="http://sodipodi.sourceforge.net/DTD/sodipodi-0.dtd"
   xmlns:inkscape="http://www.inkscape.org/namespaces/inkscape"
   width="210mm"
   height="297mm"
   viewBox="0 0 210 297"
   version="1.1"
   id="svg8"
   inkscape:version="0.92.4 (5da689c313, 2019-01-14)"
   sodipodi:docname="munchie.svg">
  <defs
     id="defs2" />
  <sodipodi:namedview
     id="base"
     pagecolor="#ffffff"
     bordercolor="#666666"
     borderopacity="1.0"
     inkscape:pageopacity="0.0"
     inkscape:pageshadow="2"
     inkscape:zoom="0.35"
     inkscape:cx="-64.285714"
     inkscape:cy="560"
     inkscape:document-units="mm"
     inkscape:current-layer="layer1"
     showgrid="false"
     inkscape:window-width="1920"
     inkscape:window-height="1018"
     inkscape:window-x="-8"
     inkscape:window-y="-8"
     inkscape:window-maximized="1" />
  <metadata
     id="metadata5">
    <rdf:RDF>
      <cc:Work
         rdf:about="">
        <dc:format>image/svg+xml</dc:format>
        <dc:type
           rdf:resource="http://purl.org/dc/dcmitype/StillImage" />
        <dc:title></dc:title>
      </cc:Work>
    </rdf:RDF>
  </metadata>
  <g
     inkscape:label="Layer 1"
     inkscape:groupmode="layer"
     id="layer1">
    <g
       id="layer1-0"
       inkscape:label="Layer 1"
       transform="translate(-0.7096701,-3.6335478)"
       style="fill:#333333">
      <path
         inkscape:connector-curvature="0"
         id="path826"
         d="m 158.48542,269.37449 c -0.36381,-0.14536 -1.21519,-0.38327 -1.89197,-0.52869 -1.3737,-0.29516 -1.79776,-0.66859 -2.6898,-2.36871 -0.33775,-0.64371 -1.00373,-1.88476 -1.47994,-2.75789 -0.47622,-0.87312 -1.03215,-2.18281 -1.23539,-2.91041 -0.45019,-1.61166 -0.48357,-5.16256 -0.0707,-7.51896 0.2379,-1.35768 0.22686,-2.52863 -0.0501,-5.31334 -0.19537,-1.96453 -0.33148,-4.54975 -0.30246,-5.74494 0.029,-1.1952 -0.12656,-3.27879 -0.34574,-4.63021 -0.48981,-3.02011 -0.52964,-11.00391 -0.0717,-14.36339 0.49824,-3.65479 0.28845,-15.00107 -0.35228,-19.05234 -0.19957,-1.26187 -0.2391,-4.89722 -0.12373,-11.37708 0.0933,-5.23746 0.15752,-10.23704 0.14281,-11.11016 -0.0147,-0.87313 -0.0509,-6.76672 -0.0805,-13.09688 -0.0351,-7.51499 -0.16028,-12.01441 -0.3607,-12.96458 -0.27715,-1.31395 -0.73595,-14.17786 -0.69359,-19.44688 0.01,-1.18153 0.2199,-2.80664 0.47624,-3.67841 0.3916,-1.33177 0.41581,-1.83828 0.16442,-3.43958 -0.16215,-1.03281 -0.3445,-4.49722 -0.40523,-7.69867 -0.14426,-7.6045 -0.62373,-18.4154 -0.95249,-21.476347 -0.14333,-1.334489 -0.26157,-4.013396 -0.26277,-5.953125 -0.001,-1.939729 -0.12253,-4.577353 -0.26964,-5.861386 -0.38329,-3.345429 -0.78371,-30.37748 -0.50524,-34.108487 0.24713,-3.31123 0.96607,-6.630574 1.76289,-8.139199 1.68344,-3.187311 2.77095,-4.421572 4.30583,-4.88689 0.3638,-0.110292 1.05233,-0.437212 1.53006,-0.726489 0.92154,-0.558014 1.17755,-0.554402 4.68765,0.06614 2.87609,0.508459 3.38653,0.825938 4.77773,2.971598 0.68261,1.052799 1.46168,2.233034 1.73126,2.622744 0.26959,0.389709 0.71917,1.282678 0.99908,1.984375 0.63674,1.596243 2.61473,6.053381 3.61901,8.154978 0.41723,0.873125 0.77828,1.707814 0.80232,1.854865 0.024,0.14705 0.53155,1.413524 1.12779,2.814388 0.59623,1.400863 1.22421,3.126018 1.39551,3.833677 0.3259,1.346346 1.43263,3.993992 2.68343,6.419605 0.40522,0.785831 0.96833,2.274112 1.25135,3.307292 0.28302,1.033179 0.74613,2.592882 1.02912,3.466007 0.28299,0.873125 0.96435,3.01625 1.51414,4.7625 0.97861,3.108315 1.86772,5.32655 2.4083,6.008434 0.14893,0.187862 0.53367,1.054497 0.85497,1.925854 0.32131,0.871358 0.68022,1.704796 0.79759,1.852084 0.11737,0.147288 0.27967,0.684514 0.36066,1.193837 0.41829,2.630337 1.44154,6.403689 2.22422,8.202085 0.28499,0.65484 0.72628,1.905 0.98063,2.77812 0.25436,0.87313 0.69487,2.08683 0.97891,2.69711 0.28405,0.61028 0.69778,1.9795 0.91939,3.0427 0.43998,2.11076 1.77208,6.23332 2.4176,7.48195 0.35836,0.69316 0.91878,2.69509 1.29307,4.61908 0.0688,0.3536 0.20736,0.77032 0.30794,0.92604 0.40671,0.62969 0.8252,2.75675 0.83654,4.25187 0.007,0.87313 0.1903,2.59953 0.40819,3.83646 0.5604,3.18144 0.51087,6.47448 -0.13229,8.79543 -0.29105,1.05026 -0.52917,2.25765 -0.52917,2.6831 0,1.0547 -1.19221,3.534 -2.24133,4.66106 -1.13333,1.2175 -2.25659,2.93009 -2.25659,3.44052 0,0.22399 -0.56554,1.19568 -1.25677,2.1593 -1.52978,2.13263 -3.8471,5.76071 -4.03208,6.31276 -0.16375,0.4887 -1.99073,3.18142 -2.93474,4.3254 -0.37563,0.4552 -0.7476,1.00669 -0.8266,1.22553 -0.079,0.21884 -0.71312,1.097 -1.40916,1.95146 -1.53976,1.89022 -1.63954,2.28008 -2.47992,9.68919 -0.12379,1.09141 -0.48524,2.99641 -0.8032,4.23334 -0.3683,1.4327 -0.53658,2.7291 -0.46364,3.57187 0.063,0.72761 -0.0448,2.93026 -0.23945,4.89479 -0.77428,7.8135 -1.20755,16.99525 -1.01755,21.56355 0.12628,3.03614 0.0835,5.27179 -0.1315,6.87916 -0.21218,1.58594 -0.3182,6.75548 -0.31744,15.47813 8e-4,8.30048 -0.10152,13.53291 -0.27919,14.2875 -0.15418,0.65484 -0.35465,4.34578 -0.44548,8.20208 -0.16286,6.91417 -0.17514,7.03279 -0.88484,8.54842 -0.80667,1.72268 -3.08904,4.12173 -4.70614,4.94671 -0.89651,0.45736 -1.53903,0.52555 -4.8154,0.51102 -2.07947,-0.009 -4.07851,-0.13571 -4.44231,-0.28107 z m 5.4698,-5.88818 c 1.61972,-1.36388 2.06694,-6.13334 1.79943,-19.19007 -0.20788,-10.14621 0.22951,-36.91798 0.6877,-42.09266 0.14818,-1.67349 0.37993,-4.41193 0.51501,-6.08542 0.50931,-6.31008 1.68086,-18.2426 2.09117,-21.29896 0.28029,-2.08788 0.6957,-3.60933 1.62866,-5.965 0.26193,-0.66137 0.74126,-2.03059 1.06517,-3.0427 0.32391,-1.01212 0.72565,-2.01881 0.89277,-2.23709 0.16711,-0.21828 0.65242,-1.28448 1.07846,-2.36933 0.61544,-1.56714 1.08472,-2.26771 2.2838,-3.40936 1.57766,-1.50211 4.60507,-5.76539 5.38462,-7.58277 0.24968,-0.58208 0.61743,-1.37436 0.81722,-1.76061 0.1998,-0.38626 0.36327,-0.84385 0.36327,-1.01687 0,-0.17302 0.45695,-1.22621 1.01545,-2.34043 0.5585,-1.11421 1.36217,-2.91881 1.78594,-4.01021 0.74526,-1.91941 0.7701,-2.13165 0.75869,-6.4823 -0.0105,-3.99872 -0.0792,-4.68849 -0.61952,-6.21508 -0.74516,-2.10548 -1.02213,-3.70533 -1.3517,-7.80783 -0.29191,-3.63379 -0.83647,-6.50224 -1.63247,-8.59896 -0.30385,-0.80037 -0.73458,-1.93146 -0.95718,-2.51354 -0.22259,-0.58209 -0.7425,-1.80105 -1.15534,-2.70881 -0.41285,-0.90776 -0.8766,-2.21258 -1.03056,-2.8996 -0.15396,-0.68701 -0.37241,-1.37305 -0.48544,-1.52452 -0.11302,-0.15147 -0.42414,-0.87072 -0.69136,-1.59832 -0.26722,-0.7276 -0.89884,-2.215887 -1.40359,-3.307293 -1.1468,-2.479651 -2.69812,-7.025325 -2.70404,-7.92334 -0.002,-0.371591 -0.41716,-1.68765 -0.92159,-2.924577 -0.50443,-1.236927 -0.91914,-2.372201 -0.92159,-2.522831 -0.005,-0.281088 -0.9606,-3.13222 -1.68255,-5.017794 -1.2512,-3.267861 -2.02607,-5.564397 -2.02607,-6.004836 0,-0.464843 -1.55998,-5.244316 -2.09888,-6.430581 -0.13222,-0.291042 -0.50603,-1.362604 -0.83069,-2.38125 -0.71095,-2.230643 -1.2118,-3.594646 -1.86916,-5.090346 -0.27111,-0.616878 -0.49293,-1.346478 -0.49293,-1.621334 0,-1.264071 -2.39164,-5.999135 -3.80385,-7.531017 -1.04391,-1.132372 -1.24227,-1.243858 -1.73959,-0.977704 -0.78576,0.420528 -2.02184,3.262362 -2.55503,5.874186 -0.38641,1.892892 -0.40634,2.555761 -0.14177,4.716006 0.16931,1.382448 0.31112,4.061355 0.31512,5.953125 0.004,1.891771 0.12002,4.987396 0.25782,6.879167 0.13781,1.891771 0.37302,8.674122 0.52271,15.07189 0.14968,6.397765 0.3888,12.35089 0.53137,13.229169 0.33896,2.0881 0.33647,12.59046 -0.004,16.95595 -0.42359,5.43085 -0.42296,13.85692 0.003,35.70549 0.25755,13.22134 0.36686,29.42848 0.31137,46.16979 -0.0505,15.24407 0.0342,29.47683 0.20703,34.79271 0.16089,4.94771 0.40623,12.74631 0.54519,17.33021 0.20443,6.74343 0.34394,8.63741 0.73086,9.92188 0.4645,1.54202 0.51576,1.60043 1.78927,2.03894 1.84082,0.63385 2.85093,0.59192 3.73816,-0.15517 z m -117.450608,3.70744 c -0.54345,-0.20166 -1.81459,-0.85768 -2.82476,-1.45781 l -1.83667,-1.09114 -1.04135,-2.71176 c -0.57275,-1.49146 -1.1927,-3.17831 -1.37767,-3.74854 -0.18497,-0.57024 -0.58834,-1.46321 -0.89638,-1.98438 -0.47292,-0.80013 -0.57378,-1.46222 -0.64819,-4.25487 -0.0842,-3.15926 0.16556,-5.99092 1.15506,-13.09688 0.23828,-1.71113 0.50702,-6.72632 0.65219,-12.17083 0.2491,-9.34239 0.68936,-17.47535 0.97062,-17.93045 0.0839,-0.13575 0.3622,-1.991 0.61845,-4.12277 0.25624,-2.13178 0.71238,-5.90001 1.01364,-8.37387 0.30126,-2.47385 0.67794,-6.46245 0.83704,-8.86354 0.15911,-2.40109 0.41114,-5.85391 0.56005,-7.67292 0.44937,-5.48896 0.75805,-23.03833 0.47236,-26.85521 -0.1416,-1.89177 -0.58225,-5.04334 -0.97924,-7.0035 -0.69594,-3.43624 -0.754,-3.58562 -1.62086,-4.16979 -0.81168,-0.54699 -1.09533,-0.58951 -2.91857,-0.43745 -1.40376,0.11706 -2.58058,0.0442 -3.85961,-0.23901 -1.01206,-0.22409 -2.614,-0.49134 -3.55989,-0.5939 -2.26577,-0.24568 -4.15499,-0.97362 -6.3082,-2.43066 -3.32697,-2.25127 -4.88217,-4.25078 -5.61442,-7.2184 -0.77368,-3.13553 -0.25127,-24.45417 0.82017,-33.469785 0.42138,-3.545707 0.74108,-5.960927 1.15573,-8.73125 0.21781,-1.455208 0.52882,-4.134115 0.69113,-5.953125 0.16232,-1.819011 0.40467,-3.962136 0.53856,-4.7625 0.1339,-0.800365 0.42979,-4.253177 0.65755,-7.672917 0.59517,-8.93666 1.9323,-17.188459 2.91775,-18.006307 0.20858,-0.173106 0.37923,-0.437051 0.37923,-0.586546 0,-0.149495 0.38397,-1.282637 0.85326,-2.518093 1.06821,-2.812164 2.34476,-4.224147 4.43841,-4.909299 2.27937,-0.745929 4.06061,-0.852905 5.36353,-0.322118 2.93602,1.196089 3.18381,1.396934 4.7812,3.875236 1.33765,2.075337 1.5813,2.653839 1.80971,4.29674 0.39707,2.85607 0.12017,15.388245 -0.40439,18.302679 -0.25155,1.397529 -0.53259,5.22311 -0.68031,9.260417 -0.13844,3.783541 -0.42659,8.248385 -0.64033,9.921875 -0.63615,4.980781 -1.04333,10.997663 -0.85466,12.629163 0.20298,1.75526 1.33218,5.15482 2.06683,6.2224 0.31784,0.46188 0.73912,0.7276 1.15355,0.7276 1.87378,0 2.62241,-6.39887 3.03354,-25.929163 0.12713,-6.039115 0.35171,-11.99224 0.49907,-13.229167 0.14735,-1.236928 0.37812,-3.982173 0.51282,-6.100544 0.29942,-4.70906 0.59855,-5.867377 2.84458,-11.01513 0.53788,-1.232785 2.9356,-3.750545 3.99213,-4.191992 0.55437,-0.23163 2.03402,-0.408501 3.77142,-0.450819 2.79588,-0.0681 2.88463,-0.05208 4.01095,0.724109 1.40762,0.970036 2.37516,2.795197 3.1558,5.953125 1.51863,6.143308 1.92788,14.282738 1.52321,30.294793 -0.54969,21.750678 -0.55821,23.520768 -0.11814,24.573988 0.47875,1.14582 1.2163,1.25553 2.67091,0.3973 1.07541,-0.63451 1.57792,-1.46988 1.81406,-3.01571 0.0893,-0.58474 0.41069,-1.77536 0.71415,-2.64583 0.38607,-1.10747 0.61921,-2.69482 0.77647,-5.286831 0.24834,-4.093057 0.6571,-8.791345 1.08192,-12.435417 0.15268,-1.309688 0.39113,-4.881563 0.52989,-7.937501 0.13876,-3.055937 0.37433,-6.746875 0.5235,-8.202083 0.14917,-1.455208 0.37837,-4.253177 0.50934,-6.217709 0.35474,-5.321039 0.78776,-9.266728 1.07609,-9.805489 0.14084,-0.26316 0.25607,-0.754191 0.25607,-1.091179 0,-0.876749 2.06265,-4.883153 2.73854,-5.319229 1.41701,-0.914235 3.16384,-1.246603 6.55179,-1.246603 1.85637,0 3.65087,0.105425 3.98776,0.234278 1.55585,0.595067 3.37924,4.017038 4.40153,8.260386 0.43695,1.813702 0.56309,3.482399 0.6879,9.100128 0.16201,7.292118 -0.003,10.940982 -0.86295,19.050001 -0.58626,5.530077 -1.37649,19.237328 -1.37279,23.812498 0.003,3.31024 -0.42015,8.68188 -0.82263,10.45104 -0.26844,1.17995 -0.44508,2.72697 -1.01203,8.86354 -0.38158,4.13011 -1.01146,7.72219 -1.52999,8.72524 -0.85209,1.64831 -4.37377,5.69456 -4.95628,5.69456 -0.15237,0 -0.39456,0.25815 -0.53821,0.57366 -0.28865,0.63403 -0.28219,0.62989 -2.90701,1.86331 -1.82385,0.85705 -1.90856,0.87013 -5.55625,0.85836 -3.43894,-0.0111 -3.83367,-0.0651 -5.51284,-0.75486 -1.69007,-0.69418 -1.87223,-0.71852 -2.77812,-0.37115 -0.91694,0.3516 -0.96466,0.42833 -0.8808,1.41631 0.0488,0.57452 0.10829,3.60442 0.13229,6.73312 0.0422,5.50601 -0.19685,9.93876 -0.99895,18.52083 -0.9538,10.20513 -1.27657,16.88105 -1.73333,35.85104 -0.14717,6.11188 -0.38322,13.97 -0.52456,17.4625 -0.14135,3.4925 -0.32269,8.79078 -0.40299,11.77396 -0.1397,5.18999 -0.4041,9.82195 -0.93515,16.38281 -0.29817,3.68364 -1.03988,5.81119 -3.1447,9.02029 -0.8124,1.23864 -1.69059,2.67187 -1.95153,3.18496 -0.82572,1.62368 -1.5961,2.38338 -2.70057,2.66314 -0.58208,0.14745 -1.77271,0.44813 -2.64583,0.66818 -2.33304,0.58799 -4.59516,0.69124 -5.7506,0.26246 z m 3.9778,-6.09676 c 1.57031,-0.82037 2.86844,-2.87458 5.53251,-8.75487 0.91241,-2.01393 1.28381,-3.24614 1.5551,-5.15938 0.19603,-1.38244 0.55852,-3.70416 0.80555,-5.15937 0.4031,-2.37468 0.45441,-5.89966 0.50062,-34.39583 0.0327,-20.13155 0.1643,-33.78324 0.35975,-37.30626 0.51215,-9.2312 0.81133,-17.70414 0.81808,-23.16859 0.007,-5.7683 0.25187,-7.68505 1.23394,-9.66385 0.52812,-1.06412 0.92306,-1.47069 1.88045,-1.93582 2.31069,-1.12262 4.66305,-0.96169 9.85338,0.67409 2.18428,0.6884 5.14521,0.8335 6.60735,0.32379 1.71126,-0.59655 3.44693,-4.13863 3.83079,-7.81774 0.15917,-1.52558 1.28664,-6.23774 2.52063,-10.53479 0.29253,-1.01865 0.65232,-3.34037 0.79954,-5.15938 0.50513,-6.24129 1.29903,-18.920057 1.45793,-23.28333 0.0874,-2.401094 0.26692,-5.258594 0.39885,-6.35 0.13194,-1.091406 0.24511,-5.491234 0.2515,-9.777394 0.006,-4.28616 0.15429,-9.076096 0.32866,-10.644301 0.25398,-2.284086 0.24842,-3.260215 -0.0279,-4.906981 -0.51229,-3.052658 -1.17803,-4.041573 -2.7191,-4.039086 -0.8485,0.0014 -2.29913,0.93513 -2.57338,1.656456 -0.12523,0.329378 -0.36425,2.859402 -0.53115,5.622275 -0.1669,2.762873 -0.41308,5.440124 -0.54707,5.949447 -0.13398,0.509323 -0.29984,2.176198 -0.36856,3.704167 -0.0687,1.527969 -0.24836,4.445 -0.3992,6.482292 -0.15084,2.037292 -0.40091,5.966354 -0.55572,8.73125 -0.40177,7.175633 -0.70098,9.313209 -1.88885,13.49375 -0.57888,2.037295 -1.29014,5.311515 -1.5806,7.276045 -0.82867,5.60494 -1.50859,7.18687 -4.17383,9.71109 -2.70982,2.56644 -4.42476,3.18566 -7.59998,2.74414 -1.65719,-0.23044 -1.91335,-0.35175 -2.77646,-1.3149 -0.54778,-0.61126 -1.22028,-1.82341 -1.58647,-2.85954 -0.61777,-1.74794 -0.63808,-2.06256 -0.72257,-11.19121 -0.0687,-7.423978 0.008,-10.363208 0.36799,-14.022917 0.48378,-4.924089 0.41711,-13.383178 -0.17101,-21.695833 -0.14929,-2.110053 -0.37842,-5.503334 -0.50919,-7.540626 -0.29254,-4.55753 -0.54832,-5.645818 -1.5077,-6.414832 -2.17137,-1.740509 -3.50174,0.251622 -4.01885,6.017957 -0.48831,5.445141 -1.0747,13.920084 -1.22656,17.727084 -0.0784,1.964531 -0.26132,5.060157 -0.40656,6.879167 -0.14525,1.81901 -0.3817,6.402917 -0.52545,10.186459 -0.28806,7.581441 -0.63335,9.945501 -2.18344,14.948961 -1.33221,4.30017 -1.68805,5.23097 -2.3079,6.03691 -0.30032,0.39048 -0.7505,0.98535 -1.00041,1.32194 -0.66149,0.89095 -2.23784,1.03015 -3.83914,0.33901 -2.24993,-0.9711 -4.95449,-4.05165 -7.25315,-8.26151 -0.92199,-1.68857 -1.0277,-2.43066 -1.28842,-9.04501 -0.17446,-4.425915 -0.13566,-4.971364 0.95393,-13.410093 0.58121,-4.501404 1.47926,-32.647465 1.05947,-33.20521 -0.10953,-0.14552 -0.34283,-0.710698 -0.51846,-1.25595 -0.40438,-1.255496 -1.16184,-1.786758 -2.54751,-1.786758 -1.90991,0 -2.75696,0.82041 -3.72641,3.609211 -0.77636,2.233332 -0.85693,2.806133 -1.13411,8.062565 -0.16412,3.112138 -0.4033,6.670464 -0.53153,7.907391 -0.12824,1.236927 -0.42057,4.392084 -0.64963,7.011459 -0.22906,2.619375 -0.54013,5.953125 -0.69127,7.408333 -0.38216,3.67964 -1.03727,11.694946 -1.32993,16.271872 -0.25439,3.97835 -0.73091,9.76586 -1.45956,17.72708 -0.57147,6.24393 -0.47097,7.85591 0.63197,10.13585 0.47932,0.9908 1.31835,2.24096 1.86452,2.77812 1.22848,1.20822 4.04115,2.33187 6.38423,2.55049 0.94589,0.0883 2.91042,0.2832 4.36563,0.43322 1.45521,0.15002 3.7205,0.36083 5.03398,0.46845 2.08745,0.17104 2.54453,0.30327 3.63009,1.05016 1.65038,1.13549 2.40782,2.18121 3.22916,4.45815 1.05019,2.91135 1.47608,6.2021 1.79177,13.84432 0.27342,6.61904 0.257,7.278 -0.29345,11.77395 -0.3207,2.61938 -0.75247,5.59594 -0.95949,6.61459 -0.59264,2.91608 -2.32983,16.92417 -2.64136,21.29896 -0.0881,1.23692 -0.38836,3.79677 -0.66729,5.68854 -1.42949,9.69506 -2.00215,15.03846 -2.50949,23.41562 -0.66811,11.03194 -0.99283,21.06175 -0.86516,26.72292 0.12115,5.37226 0.13034,5.44309 0.96388,7.43149 0.86094,2.05373 1.77212,3.18289 2.94465,3.64907 0.95648,0.38028 2.03823,0.35123 2.85741,-0.0767 z"
         style="fill:#333333;stroke-width:0.26458332" />
    </g>
  </g>
</svg>
