<?xml version="1.0" encoding="UTF-8" standalone="no"?>
<!-- Created with Inkscape (http://www.inkscape.org/) -->

<svg
   xmlns:dc="http://purl.org/dc/elements/1.1/"
   xmlns:cc="http://creativecommons.org/ns#"
   xmlns:rdf="http://www.w3.org/1999/02/22-rdf-syntax-ns#"
   xmlns:svg="http://www.w3.org/2000/svg"
   xmlns="http://www.w3.org/2000/svg"
   xmlns:sodipodi="http://sodipodi.sourceforge.net/DTD/sodipodi-0.dtd"
   xmlns:inkscape="http://www.inkscape.org/namespaces/inkscape"
   width="210mm"
   height="297mm"
   viewBox="0 0 210 297"
   version="1.1"
   id="svg8"
   inkscape:version="0.92.4 (5da689c313, 2019-01-14)"
   sodipodi:docname="place.svg">
  <defs
     id="defs2" />
  <sodipodi:namedview
     id="base"
     pagecolor="#ffffff"
     bordercolor="#666666"
     borderopacity="1.0"
     inkscape:pageopacity="0.0"
     inkscape:pageshadow="2"
     inkscape:zoom="0.35"
     inkscape:cx="-64.285714"
     inkscape:cy="560"
     inkscape:document-units="mm"
     inkscape:current-layer="layer1"
     showgrid="false"
     inkscape:window-width="1920"
     inkscape:window-height="1018"
     inkscape:window-x="-8"
     inkscape:window-y="-8"
     inkscape:window-maximized="1" />
  <metadata
     id="metadata5">
    <rdf:RDF>
      <cc:Work
         rdf:about="">
        <dc:format>image/svg+xml</dc:format>
        <dc:type
           rdf:resource="http://purl.org/dc/dcmitype/StillImage" />
        <dc:title></dc:title>
      </cc:Work>
    </rdf:RDF>
  </metadata>
  <g
     inkscape:label="Layer 1"
     inkscape:groupmode="layer"
     id="layer1">
    <g
       id="layer1-5"
       inkscape:label="Layer 1"
       transform="translate(-0.12094995,-3.1879584)"
       style="fill:#333333">
      <path
         inkscape:connector-curvature="0"
         id="path826"
         d="m 168.4786,237.48795 -0.92296,-0.47934 0.0875,-1.73121 c 0.074,-1.46573 0.18956,-1.85583 0.75348,-2.54384 0.36633,-0.44694 1.00502,-1.26992 1.4193,-1.82883 0.41428,-0.55892 0.97568,-1.08529 1.24753,-1.16972 0.7632,-0.23703 2.21867,-1.64139 4.4296,-4.27405 2.22479,-2.64916 4.96591,-5.769 6.21364,-7.07213 0.68035,-0.71055 1.51951,-1.85632 2.79492,-3.81614 0.42015,-0.64561 1.62115,-1.97319 2.71014,-2.9958 3.02636,-2.8419 7.22436,-7.07985 7.22436,-7.29311 0,-0.13432 0.53902,-0.86018 1.19783,-1.61303 0.6732,-0.76931 1.19781,-1.60376 1.19781,-1.90523 0,-0.52537 -0.0752,-0.53957 -3.65335,-0.68969 -2.00935,-0.0843 -5.53992,-0.12309 -7.84574,-0.0862 -2.3058,0.0368 -6.51016,-0.0824 -9.34301,-0.26504 -5.50378,-0.35486 -9.07144,-0.356 -9.99936,-0.004 -0.75867,0.28845 -5.81188,0.28257 -5.81188,-0.006 0,-0.13018 -1.72251,-0.23197 -4.09987,-0.24228 -2.25493,-0.01 -4.1855,-0.0707 -4.29016,-0.1354 -0.10466,-0.0647 -4.43379,-0.22807 -9.62029,-0.36308 -8.16783,-0.21262 -9.68582,-0.19652 -11.34141,0.12029 -2.62953,0.50316 -9.46752,0.50056 -11.41604,-0.005 -1.19098,-0.30862 -2.65112,-0.35084 -8.77868,-0.25384 -4.04254,0.064 -8.53595,0.23655 -9.98532,0.38347 -5.773163,0.58522 -7.663785,0.71575 -13.535391,0.93448 -8.275396,0.30825 -18.570177,0.3166 -23.426667,0.019 -2.201894,-0.13494 -7.614877,-0.35106 -12.028852,-0.4803 -4.413975,-0.12923 -8.833935,-0.33527 -9.822141,-0.45787 -0.988197,-0.1226 -5.62377,-0.29446 -10.301265,-0.38191 -6.986672,-0.13063 -8.887655,-0.0951 -10.651153,0.19897 -1.384679,0.23091 -2.346836,0.28185 -2.710695,0.14352 -0.310241,-0.11795 -0.961322,-0.21529 -1.446846,-0.21629 -0.485524,-9.1e-4 -1.583497,-0.21742 -2.43994,-0.48091 -0.953351,-0.2933 -2.8502,-0.56801 -4.891728,-0.70843 -2.2398313,-0.15407 -3.3987367,-0.33045 -3.5300491,-0.53726 -0.5636056,-0.88761 -0.5572268,-4.24103 0.00914,-4.80814 0.2113678,-0.21163 2.2107796,-0.31096 7.3296241,-0.36412 l 7.038971,-0.0731 2.232544,0.65383 2.232543,0.65384 12.936471,0.16215 c 9.255571,0.11602 13.924871,0.27094 16.410159,0.54447 8.098989,0.89138 18.093598,1.11142 24.675133,0.54326 2.174043,-0.18767 6.216688,-0.45979 8.983658,-0.6047 2.76697,-0.14491 6.270598,-0.36574 7.785842,-0.49073 1.515246,-0.125 5.126682,-0.33664 8.025422,-0.47031 2.89874,-0.13367 6.29457,-0.29933 7.54629,-0.36812 1.25173,-0.0688 2.97659,-0.11947 3.83303,-0.11261 0.85645,0.007 6.46225,0.0518 12.45735,0.0999 5.99509,0.0481 11.13506,0.17877 11.42213,0.29045 0.28707,0.11168 3.46728,0.11454 7.06715,0.006 10.04016,-0.30172 11.6554,-0.30117 13.85191,0.005 1.31726,0.18348 6.81576,0.30698 15.57167,0.34976 20.33999,0.0994 21.26833,0.0955 21.45333,-0.0899 0.0942,-0.0944 -0.52674,-1.22635 -1.37987,-2.51543 -0.85311,-1.28907 -1.84448,-2.9367 -2.20302,-3.66138 -0.35856,-0.72469 -1.29359,-2.12614 -2.07786,-3.11433 -0.78428,-0.98821 -1.91456,-2.43542 -2.51174,-3.21603 -0.59717,-0.78061 -1.22589,-1.53523 -1.39715,-1.67695 -0.17125,-0.14172 -1.17745,-1.33571 -2.23601,-2.65331 -2.14265,-2.66701 -2.58933,-3.13878 -7.37182,-7.78568 -3.77755,-3.67046 -5.48213,-5.54937 -7.01007,-7.72699 l -1.04996,-1.49641 0.12402,-2.13443 c 0.13899,-2.39202 0.32145,-2.70519 1.6379,-2.81119 0.76828,-0.0618 1.09313,0.0975 2.39564,1.17554 3.5633,2.94911 16.24004,16.47697 16.24004,17.3304 0,0.12132 1.37056,1.6831 3.04569,3.47062 2.5334,2.70337 5.0995,5.93924 5.0995,6.43051 0,0.27358 2.65755,4.20665 3.81471,5.64563 0.68872,0.85643 1.47298,2.06923 1.7428,2.69509 0.26984,0.62587 0.58236,1.13793 0.6945,1.13793 0.11216,0 0.3776,0.33587 0.58988,0.74637 0.30205,0.58409 0.36837,1.30029 0.30506,3.294 -0.0752,2.37035 -0.13087,2.62102 -0.79904,3.60174 -0.39498,0.57975 -1.31107,2.00811 -2.03576,3.17414 -0.72467,1.16604 -2.04528,3.18267 -2.93466,4.4814 -0.88938,1.29873 -1.61705,2.47058 -1.61705,2.60411 0,0.13352 -0.80854,1.06187 -1.79674,2.06298 -0.9882,1.00111 -1.79673,1.98392 -1.79673,2.18403 0,0.20011 -0.5762,1.04305 -1.28045,1.87321 -0.70424,0.83015 -1.58836,1.99049 -1.96473,2.57854 -0.37635,0.58803 -1.44417,1.89201 -2.37291,2.89772 -0.92875,1.00571 -2.28155,2.58881 -3.00623,3.518 -0.72468,0.92919 -1.80272,2.04487 -2.39565,2.47929 -0.59291,0.43442 -1.29364,1.01515 -1.55716,1.29051 -1.64588,1.71982 -8.02345,6.79894 -9.45357,7.52886 -0.46623,0.23796 -1.05306,0.65973 -1.30406,0.93727 -0.55057,0.60879 -1.15747,0.5993 -2.38311,-0.0372 z M 36.508539,152.82282 c -3.985081,-3.41033 -15.99625,-16.25921 -15.99625,-17.1119 0,-0.12132 -1.370563,-1.6831 -3.045695,-3.47062 -2.533393,-2.70338 -5.099495,-5.93925 -5.099495,-6.4305 0,-0.27358 -2.6575577,-4.20666 -3.81472,-5.64563 -0.6887139,-0.85645 -1.4729743,-2.06924 -1.7428,-2.6951 -0.2698257,-0.62586 -0.5823519,-1.13793 -0.6945033,-1.13793 -0.1121515,0 -0.377593,-0.33587 -0.5898716,-0.74637 -0.3020421,-0.58408 -0.3683711,-1.30028 -0.3050663,-3.29401 0.07526,-2.37033 0.130875,-2.621 0.7990454,-3.60173 0.3949838,-0.57974 1.3110736,-2.00811 2.0357561,-3.17415 0.7246825,-1.16603 2.0452807,-3.18265 2.9346637,-4.48138 0.889383,-1.298736 1.61706,-2.470584 1.61706,-2.604109 0,-0.133534 0.80853,-1.061873 1.796734,-2.062982 0.988204,-1.001108 1.796734,-1.983927 1.796734,-2.18403 0,-0.200111 0.576198,-1.043057 1.28044,-1.87321 0.704242,-0.830153 1.588373,-1.990501 1.964734,-2.578539 0.376362,-0.588047 1.444174,-1.892026 2.372917,-2.897734 0.928742,-1.0057 2.281543,-2.588798 3.006225,-3.517988 0.724682,-0.92919 1.802721,-2.044873 2.395643,-2.479294 0.592922,-0.434421 1.293648,-1.015152 1.557169,-1.290514 1.645879,-1.71982 8.023448,-6.798931 9.453581,-7.528861 0.46622,-0.237959 1.053054,-0.659731 1.304051,-0.937266 0.572926,-0.6335 0.925369,-0.632287 2.247492,0.0081 l 1.058405,0.512361 -0.08737,1.729454 c -0.07388,1.463861 -0.189618,1.85426 -0.75339,2.542086 -0.366332,0.446943 -1.00502,1.269916 -1.419304,1.828835 -0.414284,0.55891 -0.975675,1.085288 -1.247525,1.169711 -0.763204,0.237035 -2.218672,1.6414 -4.429602,4.274057 -2.224793,2.649154 -4.965916,5.769002 -6.213649,7.072129 -0.680341,0.710544 -1.519501,1.856324 -2.794915,3.816131 -0.420148,0.645606 -1.621145,1.973198 -2.710136,2.995811 -3.026364,2.841887 -7.224363,7.079832 -7.224363,7.293112 0,0.13431 -0.53902,0.86018 -1.197822,1.61302 -0.673208,0.76931 -1.197823,1.60375 -1.197823,1.90523 0,0.52536 0.07529,0.53958 3.653358,0.68968 2.009346,0.0843 5.539926,0.1231 7.845732,0.0862 2.305807,-0.0369 6.510161,0.0824 9.343011,0.26505 5.50378,0.35486 9.07144,0.356 9.999363,0.004 0.758668,-0.28845 5.811883,-0.28256 5.811883,0.006 0,0.13017 1.722509,0.23196 4.099869,0.24229 2.254935,0.01 4.185505,0.0707 4.290156,0.13539 0.10466,0.0647 4.433795,0.22807 9.620291,0.36308 8.167829,0.21261 9.685836,0.19651 11.341415,-0.12028 2.629524,-0.50317 9.467516,-0.50057 11.416041,0.005 1.191622,0.30878 2.647841,0.35064 8.778676,0.25236 4.042566,-0.0648 8.428156,-0.22679 9.745756,-0.35998 1.3176,-0.13319 3.63539,-0.34888 5.15064,-0.47931 3.16036,-0.27204 6.18,-0.59901 9.10343,-0.98576 3.47864,-0.46019 8.10796,-0.76283 11.97822,-0.7831 3.96103,-0.0207 9.58985,0.37138 10.1078,0.70413 0.80729,0.51862 21.97748,1.17574 35.16986,1.09166 10.83472,-0.0691 13.44927,0.0886 17.24864,1.04019 0.85644,0.2145 2.31179,0.46912 3.23412,0.56583 2.92118,0.30629 3.58075,0.9997 3.43328,3.60951 -0.052,0.92031 -0.23111,1.81002 -0.39803,1.97714 -0.22787,0.22815 -2.05713,0.32206 -7.34244,0.37695 l -7.03897,0.0731 -2.23254,-0.65383 -2.23255,-0.65384 -12.93647,-0.16216 c -9.25557,-0.11601 -13.92487,-0.27094 -16.41016,-0.54446 -8.09899,-0.89138 -18.0936,-1.11142 -24.67513,-0.54327 -2.17405,0.18767 -6.21669,0.45979 -8.98366,0.60471 -2.76697,0.14491 -6.2706,0.36574 -7.78584,0.49073 -1.51525,0.12499 -5.12668,0.33663 -8.02541,0.4703 -2.89874,0.13367 -6.29458,0.29933 -7.546307,0.36813 -1.251716,0.0688 -2.97658,0.11947 -3.833027,0.11261 -0.856447,-0.007 -6.462252,-0.0518 -12.457343,-0.0999 -5.995099,-0.0481 -11.135056,-0.17877 -11.422134,-0.29045 -0.28707,-0.11169 -3.467283,-0.11455 -7.067141,-0.006 -10.040162,0.30172 -11.655403,0.30117 -13.85191,-0.005 -1.317261,-0.18346 -6.815772,-0.30698 -15.571685,-0.34976 -20.339984,-0.0994 -21.268325,-0.0955 -21.453329,0.0899 -0.09419,0.0944 0.526744,1.22636 1.379866,2.51543 0.853122,1.28908 1.844487,2.93671 2.203034,3.66138 0.358547,0.72469 1.293582,2.12614 2.077854,3.11434 0.784271,0.9882 1.914551,2.43541 2.511732,3.21602 0.597182,0.78061 1.225902,1.53523 1.397154,1.67695 0.171253,0.14172 1.177454,1.3357 2.236007,2.65331 2.14265,2.667 2.589334,3.13877 7.371822,7.78567 3.77755,3.67046 5.482132,5.54938 7.01008,7.727 l 1.049948,1.4964 -0.122705,2.11419 c -0.06745,1.16281 -0.24111,2.25687 -0.385835,2.43125 -0.144726,0.17437 -0.687818,0.35755 -1.206879,0.40705 -0.864433,0.0824 -1.090159,-0.0353 -2.685925,-1.4009 z"
         style="fill:#333333;stroke-width:0.23956434" />
    </g>
  </g>
</svg>
