<?xml version="1.0" encoding="UTF-8" standalone="no"?>
<!-- Created with Inkscape (http://www.inkscape.org/) -->

<svg
   xmlns:dc="http://purl.org/dc/elements/1.1/"
   xmlns:cc="http://creativecommons.org/ns#"
   xmlns:rdf="http://www.w3.org/1999/02/22-rdf-syntax-ns#"
   xmlns:svg="http://www.w3.org/2000/svg"
   xmlns="http://www.w3.org/2000/svg"
   xmlns:sodipodi="http://sodipodi.sourceforge.net/DTD/sodipodi-0.dtd"
   xmlns:inkscape="http://www.inkscape.org/namespaces/inkscape"
   width="210mm"
   height="297mm"
   viewBox="0 0 210 297"
   version="1.1"
   id="svg8"
   inkscape:version="0.92.4 (5da689c313, 2019-01-14)"
   sodipodi:docname="rysunek.svg">
  <defs
     id="defs2" />
  <sodipodi:namedview
     id="base"
     pagecolor="#ffffff"
     bordercolor="#666666"
     borderopacity="1.0"
     inkscape:pageopacity="0.0"
     inkscape:pageshadow="2"
     inkscape:zoom="0.35"
     inkscape:cx="-64.285714"
     inkscape:cy="560"
     inkscape:document-units="mm"
     inkscape:current-layer="layer1"
     showgrid="false"
     inkscape:window-width="1920"
     inkscape:window-height="1018"
     inkscape:window-x="-8"
     inkscape:window-y="-8"
     inkscape:window-maximized="1" />
  <metadata
     id="metadata5">
    <rdf:RDF>
      <cc:Work
         rdf:about="">
        <dc:format>image/svg+xml</dc:format>
        <dc:type
           rdf:resource="http://purl.org/dc/dcmitype/StillImage" />
        <dc:title></dc:title>
      </cc:Work>
    </rdf:RDF>
  </metadata>
  <g
     inkscape:label="Layer 1"
     inkscape:groupmode="layer"
     id="layer1">
    <path
       style="fill:#000000;stroke-width:0.26458335"
       d="m 132.78664,266.84634 c -2.72134,-0.10483 -5.22166,-0.2695 -5.55625,-0.36592 -0.58563,-0.16876 -3.12191,-3.05285 -3.12191,-3.55003 0,-0.13339 -0.19486,-0.40425 -0.43302,-0.6019 -0.54103,-0.44902 -1.21759,-1.99698 -2.3575,-5.39396 -1.24578,-3.71247 -2.0894,-6.00215 -2.69982,-7.32765 -1.1035,-2.39619 -1.65341,-3.90691 -1.65341,-4.5423 0,-0.39717 -0.2772,-0.8774 -0.69714,-1.20772 -0.59408,-0.46731 -1.07322,-0.54919 -3.24114,-0.55389 -1.39921,-0.003 -3.31791,-0.186 -4.2638,-0.4066 -3.12361,-0.72848 -4.328,-0.90215 -8.06979,-1.16367 -2.0373,-0.14239 -4.53761,-0.46222 -5.55625,-0.71075 -2.22141,-0.54197 -11.74564,-0.82274 -12.9087,-0.38055 -0.50493,0.19198 -0.9062,0.69777 -1.35037,1.70213 -0.34759,0.78595 -1.06157,2.10056 -1.58662,2.92136 -1.15447,1.80471 -3.33661,6.10342 -3.33661,6.57294 0,0.34445 -1.55793,4.4507 -2.2353,5.89161 -0.40617,0.86402 -4.13023,4.58799 -5.18366,5.18353 -0.93372,0.52787 -16.95071,0.68575 -23.53729,0.23202 -4.63025,-0.31897 -4.92743,-0.37203 -5.4987,-0.98163 l -0.60391,-0.64444 0.82928,-1.36616 c 0.93801,-1.54526 2.57902,-3.35052 3.04567,-3.35052 0.17094,0 0.4459,-0.1628 0.61103,-0.36178 0.23025,-0.27743 1.76456,-0.40385 6.58084,-0.54226 10.00275,-0.28745 11.10713,-0.40729 12.401,-1.3457 0.60134,-0.43614 1.8172,-1.76053 2.70191,-2.9431 1.83382,-2.45121 4.5391,-6.68046 4.53919,-7.09627 4e-5,-0.15323 0.3525,-0.93345 0.78326,-1.73381 0.43075,-0.80037 0.78791,-1.73093 0.79369,-2.06792 0.006,-0.33698 0.13615,-0.8475 0.28974,-1.13447 0.65744,-1.22844 -0.73413,-2.35386 -2.91054,-2.35386 -1.69484,0 -6.8166,-2.14662 -9.7511,-4.08685 -0.7712,-0.50991 -2.31901,-1.40848 -3.43958,-1.99684 -2.93537,-1.54122 -4.30083,-2.62826 -6.22908,-4.95898 -1.07353,-1.2976 -2.42692,-2.55058 -3.65178,-3.38086 -1.07037,-0.72555 -2.72003,-2.01026 -3.66592,-2.8549 -0.94588,-0.84465 -2.58754,-1.95648 -3.64813,-2.47072 -1.7541,-0.85052 -5.08312,-3.52419 -5.08312,-4.08246 0,-0.7347 -2.61716,-4.34635 -4.34234,-5.99239 -1.67854,-1.60154 -2.20704,-2.32983 -3.27911,-4.51868 -0.70293,-1.43518 -1.98537,-3.61184 -2.84987,-4.83701 -0.8645,-1.22518 -1.68985,-2.41926 -1.8341,-2.65351 -0.653,-1.06037 -1.35862,-2.02667 -2.10407,-2.88139 -0.75444,-0.86501 -1.1294,-1.55212 -2.88767,-5.29166 -0.37632,-0.80037 -0.91749,-1.87193 -1.20259,-2.38125 -1.3957,-2.49333 -1.94057,-3.9861 -3.47663,-9.525 -0.82083,-2.95983 -0.8456,-3.20653 -0.90937,-9.05696 -0.0575,-5.27559 -0.12403,-6.1035 -0.54172,-6.74096 -0.68687,-1.0483 -0.79684,-6.74022 -0.26476,-13.70312 0.49516,-6.47979 0.5011,-6.51428 2.38863,-13.89063 1.28388,-5.0173 2.96597,-9.85483 3.81508,-10.9718 0.41628,-0.54761 1.5563,-3.74397 1.74877,-4.90321 0.22346,-1.34584 1.56868,-5.01902 2.2771,-6.21771 0.25801,-0.43656 1.00543,-1.86531 1.66094,-3.175 0.66374,-1.32614 1.77824,-3.01795 2.51527,-3.8182 0.7279,-0.79032 1.67929,-2.15954 2.1142,-3.042702 1.04418,-2.120421 2.76818,-4.335574 5.26512,-6.765134 1.12168,-1.091406 2.54302,-2.69875 3.15854,-3.571875 2.37037,-3.36241 10.47566,-11.590656 13.05388,-13.251913 2.63732,-1.699335 2.96894,-2.437115 1.84263,-4.099375 -0.43586,-0.64325 -0.79463,-1.391558 -0.79728,-1.662907 -0.003,-0.271348 -0.29871,-1.045255 -0.65791,-1.719791 -0.3592,-0.674537 -0.89948,-1.900193 -1.20062,-2.723682 -0.30113,-0.823487 -0.73665,-1.654217 -0.96782,-1.84607 -0.70316,-0.583572 -2.22458,-0.374165 -4.5868,0.631315 -1.23692,0.526502 -3.61817,1.45746 -5.29166,2.068798 -1.67349,0.611336 -3.63802,1.374524 -4.36563,1.695969 -0.7276,0.321445 -1.73963,0.742661 -2.24896,0.936032 -0.50932,0.193374 -2.17597,0.940512 -3.70368,1.660306 -3.5822,1.687795 -3.82067,1.780214 -5.58417,2.164106 -1.26069,0.274437 -1.65269,0.259556 -2.61856,-0.09939 -1.68675,-0.626851 -2.22004,-1.511536 -2.33971,-3.881401 -0.0793,-1.570479 0.0385,-2.424935 0.57243,-4.153765 0.36975,-1.19711 0.75396,-2.652813 0.85379,-3.234897 0.5473,-3.191123 4.12085,-13.632077 5.25231,-15.345833 0.48038,-0.727605 1.17835,-1.858698 1.55103,-2.513542 0.37269,-0.654844 1.53329,-2.024063 2.57913,-3.042708 1.04583,-1.018646 2.23958,-2.306073 2.65279,-2.860948 0.66782,-0.896773 2.20168,-2.226328 3.40381,-2.950424 0.23295,-0.140316 0.9281,-0.593154 1.54479,-1.006306 0.61668,-0.413151 1.68825,-0.916562 2.38125,-1.11869 0.693,-0.202129 2.62922,-0.855643 4.30271,-1.452255 3.68822,-1.31488 6.25076,-1.559451 11.28957,-1.077489 2.7591,0.263907 4.06366,0.547163 6.96668,1.512657 1.96453,0.653369 3.99499,1.476669 4.51214,1.829554 0.51714,0.352885 1.22537,0.641609 1.57382,0.641609 0.55071,0 1.96251,0.818312 5.19316,3.010082 1.72836,1.172572 4.47023,3.843713 6.90297,6.724913 2.18183,2.584039 2.54091,3.146864 2.65533,4.162007 0.093,0.82501 0.003,1.371398 -0.30314,1.838478 -0.42075,0.642144 -2.23905,1.713251 -3.60095,2.121218 -0.3638,0.108979 -1.25677,0.468751 -1.98437,0.799494 -5.30733,2.412524 -5.9748,2.652749 -10.68742,3.846481 -2.87199,0.727487 -7.94252,2.478005 -9.57727,3.306397 -0.70392,0.356703 -1.40319,0.879009 -1.55394,1.160679 -0.39046,0.729597 -0.33882,2.035506 0.11523,2.913534 0.21412,0.41406 0.47146,1.271349 0.57188,1.90509 0.21624,1.364747 1.36883,3.879236 2.49897,5.451732 0.62867,0.874752 0.97707,1.124479 1.5688,1.124479 0.41835,0 0.83423,-0.119062 0.92417,-0.264583 0.0899,-0.145521 0.65405,-0.264584 1.2536,-0.264584 1.10817,0 1.39495,-0.07107 4.43494,-1.09914 0.94588,-0.319878 2.19604,-0.670652 2.77812,-0.779499 0.58209,-0.108845 2.1299,-0.552866 3.43959,-0.986711 1.30968,-0.433848 3.15515,-0.970669 4.10104,-1.19294 0.94588,-0.222269 3.86291,-0.934971 6.48229,-1.583785 2.61937,-0.648814 5.35781,-1.307659 6.08542,-1.464099 0.7276,-0.15644 2.70647,-0.586081 4.39748,-0.954757 2.36846,-0.516374 3.82932,-0.670319 6.36099,-0.670319 1.80753,0 4.71023,-0.191323 6.45044,-0.425164 4.45323,-0.598403 10.65232,-0.34703 16.79183,0.680902 2.54563,0.426215 5.04451,0.900264 5.55305,1.053444 0.50855,0.153181 1.5952,0.400106 2.41479,0.548728 0.81959,0.148619 2.66569,0.747733 4.10246,1.331364 4.42101,1.79587 8.40323,3.360016 9.04241,3.551701 0.33511,0.100497 1.28761,0.560647 2.11667,1.022559 2.07407,1.155571 3.62955,1.858537 5.34384,2.415032 0.80036,0.259816 2.64583,1.069901 4.10104,1.800191 1.45521,0.73029 3.36021,1.68176 4.23333,2.114378 0.87313,0.43262 2.03433,1.189114 2.58045,1.681099 1.54671,1.393378 1.17476,1.652003 5.31922,-3.698587 0.85231,-1.10036 2.19002,-2.48413 2.97269,-3.075046 1.56016,-1.177938 2.3488,-2.39614 2.11977,-3.274409 -0.22481,-0.862092 -1.75414,-2.300293 -3.69755,-3.477233 -0.96116,-0.582084 -3.48947,-2.368021 -5.61847,-3.968751 -4.52312,-3.400798 -4.968,-3.704886 -7.24798,-4.954193 -2.24734,-1.231421 -8.35764,-5.230223 -9.46787,-6.196116 -1.30988,-1.139589 -1.38625,-2.257639 -0.30432,-4.455349 1.0175,-2.066826 1.57897,-2.540196 5.16787,-4.356967 2.28295,-1.155675 3.0722,-1.411167 5.42395,-1.755807 1.51374,-0.221832 3.22849,-0.534883 3.81058,-0.695669 0.58208,-0.160787 1.77926,-0.319443 2.66039,-0.352569 0.88114,-0.03313 2.25036,-0.242803 3.04271,-0.465949 5.47201,-1.541048 6.20954,-1.639167 12.15627,-1.617237 5.59579,0.02063 5.73549,0.0348 8.568,0.868469 3.99971,1.177212 6.5138,2.191136 8.18721,3.301883 0.78545,0.52135 2.44545,1.433623 3.68889,2.027274 1.86048,0.888241 2.60483,1.442047 4.20366,3.127593 2.01391,2.123123 2.0262,2.146576 3.83602,7.321668 1.25419,3.586305 1.93179,7.751839 1.93856,11.917338 0.004,2.486769 -0.0793,3.076316 -0.5613,3.968751 -2.79757,5.180121 -3.14193,6.023745 -3.28988,8.059589 -0.0897,1.234681 -0.76485,3.345937 -2.32666,7.276042 -0.93255,2.346643 -1.91705,3.040269 -4.31726,3.041719 -1.56008,0.0011 -1.74661,-0.07279 -4.00404,-1.582761 -1.72224,-1.151983 -3.11551,-2.40986 -5.11057,-4.61394 -2.79225,-3.084777 -5.029,-4.965147 -7.63763,-6.420715 -4.31829,-2.409531 -4.45117,-2.467695 -5.07774,-2.222508 -0.89481,0.350157 -2.39198,2.047449 -3.4055,3.860705 -0.48804,0.873125 -1.73869,2.420937 -2.77922,3.439583 -3.35563,3.28503 -3.35192,3.599215 0.0806,6.833061 3.48892,3.286929 6.08952,5.913168 7.26105,7.332625 0.53571,0.649082 1.27985,1.526088 1.65364,1.948905 0.3738,0.422818 0.67963,0.849921 0.67963,0.949122 0,0.0992 0.47625,0.681008 1.05833,1.292905 0.58209,0.611896 1.05834,1.205834 1.05834,1.319864 0,0.11402 0.30898,0.49596 0.68663,0.84875 0.37765,0.35279 0.9956,1.17721 1.37323,1.83205 0.37762,0.65485 0.95471,1.46786 1.28242,1.8067 0.85061,0.87951 3.82348,5.44118 4.79492,7.3575 2.26674,4.47145 8.07877,20.79434 8.38075,23.53701 0.0786,0.71377 0.26902,2.60745 0.42318,4.20818 0.15416,1.60073 0.39023,3.4462 0.5246,4.10104 0.49139,2.3948 0.52965,5.36396 0.13523,10.49554 -0.22182,2.88594 -0.48641,5.78295 -0.58798,6.43779 -0.10157,0.65485 -0.15643,1.29376 -0.12191,1.41981 0.0345,0.12606 -0.1155,1.19762 -0.33338,2.38125 -0.5864,3.18565 -0.75963,4.40942 -0.79916,5.64562 -0.0195,0.61177 -0.12043,1.19717 -0.22414,1.30087 -0.10371,0.10371 -0.18856,0.62511 -0.18856,1.15868 0,1.10443 -0.46846,3.83929 -0.79313,4.63023 -0.40794,0.99381 -0.60324,1.58734 -0.65293,1.98438 -0.0736,0.58816 -0.6627,2.39428 -1.09498,3.35713 -0.2083,0.46397 -0.8566,2.04913 -1.44066,3.52257 -0.58407,1.47345 -1.16755,2.87977 -1.29662,3.12516 -0.41509,0.78915 -1.39372,3.06329 -1.74455,4.05397 -0.18736,0.52908 -0.62285,1.42205 -0.96774,1.98438 -0.78953,1.28725 -1.26981,2.38586 -1.26981,2.9046 0,0.22114 -0.31178,0.81085 -0.69286,1.31047 -0.38107,0.49961 -0.60074,0.90838 -0.48816,0.90838 0.11259,0 -0.006,0.23251 -0.26288,0.51668 -0.25717,0.28417 -0.9082,1.38549 -1.44673,2.44739 -1.83094,3.61027 -4.03384,6.5926 -6.40243,8.66772 -3.93767,3.44979 -7.15402,6.61037 -10.51087,10.32863 -2.70747,2.99898 -4.32854,4.57615 -5.99294,5.83068 -1.40883,1.0619 -7.75559,5.28182 -7.94385,5.28182 -0.0815,0 -0.29208,0.12612 -0.46784,0.28028 -0.30578,0.26818 -1.58894,1.11701 -2.61156,1.72759 -0.26537,0.15844 -0.69166,0.45609 -0.94732,0.66146 -0.63317,0.50859 -1.4594,0.98648 -3.63985,2.10531 -1.01864,0.52268 -2.86457,1.50264 -4.10205,2.17768 -2.12413,1.1587 -4.25167,1.87804 -6.34899,2.14664 -5.25025,0.6724 -5.67966,0.77333 -6.41386,1.50754 -0.40144,0.40143 -0.7286,1.00693 -0.72703,1.34555 0.004,0.85401 0.61841,2.73169 1.44216,4.40718 0.38135,0.77565 0.76533,1.78768 0.85329,2.24896 0.42255,2.21585 2.70475,5.30553 4.6532,6.29956 0.5622,0.28681 1.63912,0.57754 2.39315,0.64606 4.66387,0.42384 7.08618,0.72717 8.25013,1.03313 0.72761,0.19126 1.97776,0.49229 2.77813,0.66896 1.85772,0.41007 4.7354,1.53776 5.32385,2.08629 0.24985,0.23289 0.63564,0.95005 0.85732,1.59368 0.439,1.27462 0.27348,1.92082 -0.61359,2.39557 -0.56811,0.30404 -11.44069,0.3018 -19.37901,-0.004 z m -10.7466,-31.79678 c 0.82689,-0.19156 1.59087,-0.43572 1.69774,-0.5426 0.10687,-0.10687 0.64486,-0.19431 1.19553,-0.19431 1.09502,0 3.13576,-0.37274 4.99601,-0.91251 0.65484,-0.19001 1.66687,-0.47086 2.24896,-0.6241 4.32161,-1.13771 6.58066,-2.15642 10.58333,-4.77254 1.16417,-0.76089 3.06917,-1.85811 4.23333,-2.43828 1.16417,-0.58016 2.71198,-1.60949 3.43959,-2.28741 0.7276,-0.67792 2.26655,-1.94984 3.41988,-2.82651 1.15333,-0.87666 3.34129,-2.82774 4.86214,-4.33574 1.52084,-1.50799 3.22802,-3.04811 3.79374,-3.42249 1.28306,-0.84909 11.07528,-10.63883 11.07528,-11.07247 0,-0.0846 0.52036,-0.88946 1.15635,-1.78866 1.80748,-2.55549 3.28876,-5.46113 4.15834,-8.15687 0.43891,-1.36063 1.25452,-3.42638 1.81246,-4.59054 1.14374,-2.38646 1.76426,-3.87512 2.8123,-6.74688 0.39831,-1.09141 1.00508,-2.5749 1.34839,-3.29665 0.98308,-2.0668 1.98362,-6.38342 2.32088,-10.01298 0.092,-0.99013 0.46724,-3.19279 0.83385,-4.89479 0.61156,-2.83914 0.65195,-3.42547 0.48945,-7.10436 -0.12883,-2.91676 -0.0842,-4.37228 0.16368,-5.33949 0.34234,-1.33577 0.33904,-1.38763 -0.44105,-6.92256 -0.0718,-0.50933 -0.24326,-1.99761 -0.38104,-3.30729 -0.37426,-3.55745 -0.64291,-5.13553 -1.14858,-6.74688 -0.25117,-0.80036 -0.59006,-1.93146 -0.75309,-2.51354 -0.16304,-0.58209 -0.36921,-1.1774 -0.45816,-1.32292 -0.089,-0.14552 -0.31351,-0.74083 -0.499,-1.32292 -0.37057,-1.16287 -0.50228,-1.49448 -1.36277,-3.43123 -0.32123,-0.72301 -0.69,-1.55645 -0.81949,-1.85208 -0.12948,-0.29564 -0.33627,-0.71611 -0.45952,-0.93439 -0.60923,-1.07898 -0.8355,-1.61542 -0.8355,-1.9808 0,-0.22025 -0.11906,-0.40046 -0.26459,-0.40046 -0.14552,0 -0.26458,-0.16073 -0.26458,-0.35718 0,-0.19645 -0.35719,-0.85026 -0.79375,-1.45292 -0.43656,-0.60266 -0.79375,-1.17483 -0.79375,-1.27149 0,-0.0967 -0.29766,-0.566 -0.66146,-1.04297 -0.3638,-0.47697 -0.66146,-1.04462 -0.66146,-1.26145 0,-0.21682 -0.32018,-0.77475 -0.71152,-1.23982 -0.7862,-0.93436 -1.79334,-2.63207 -2.23475,-3.76711 -0.15735,-0.4046 -0.63175,-0.91439 -1.05422,-1.13286 -0.71853,-0.37156 -1.44337,-1.27445 -4.0693,-5.06888 -0.58208,-0.84111 -1.84334,-2.362715 -2.80279,-3.381361 -0.95946,-1.018646 -2.11005,-2.394397 -2.55688,-3.057229 -0.44683,-0.662829 -1.50729,-1.788988 -2.35658,-2.502577 -0.84929,-0.713589 -2.68841,-2.341949 -4.08694,-3.618574 -1.4287,-1.304169 -3.14545,-2.600357 -3.91831,-2.958431 -0.75654,-0.350509 -1.51729,-0.815504 -1.69055,-1.033322 -0.17327,-0.217816 -1.02535,-0.655577 -1.89352,-0.972799 -0.86816,-0.317222 -2.40206,-1.124281 -3.40865,-1.79346 -1.00659,-0.669181 -3.03471,-1.659747 -4.50693,-2.201254 -1.47222,-0.541509 -5.23661,-2.200158 -8.36531,-3.685886 -12.59831,-5.982579 -14.76058,-6.549475 -27.25208,-7.14488 -9.28462,-0.44255 -10.43493,-0.391843 -14.3855,0.634116 -1.91063,0.496189 -4.6645,1.04118 -6.11971,1.211093 -4.14977,0.484534 -5.90813,0.787802 -6.82446,1.177031 -1.23256,0.523552 -4.38344,1.425734 -5.61096,1.606568 -0.58208,0.08575 -1.77271,0.374497 -2.64583,0.641657 -2.7714,0.848003 -5.62867,1.605238 -6.05703,1.605238 -0.38006,0 -1.84643,0.410885 -5.32005,1.490713 -0.72761,0.226187 -1.79917,0.634283 -2.38125,0.906878 -0.58209,0.272595 -2.24896,0.929177 -3.70417,1.459071 -2.82051,1.027052 -3.4062,1.391706 -5.68854,3.541697 -0.80037,0.753951 -1.70966,1.545767 -2.02065,1.75959 -0.311,0.213823 -1.24553,1.306619 -2.07675,2.428431 -0.83121,1.121815 -2.32868,2.694506 -3.32772,3.49487 -1.35656,1.086792 -2.09541,1.94277 -2.91839,3.381021 -0.60608,1.059196 -1.46279,2.208199 -1.90379,2.55334 -0.44101,0.345141 -0.81894,0.859629 -0.83984,1.143307 -0.0209,0.283676 -0.38883,0.942965 -0.81762,1.465082 -0.42879,0.52212 -1.54641,2.23664 -2.4836,3.81005 -0.93719,1.5734 -1.97899,3.22916 -2.31511,3.67946 -0.33611,0.4503 -0.61112,0.8965 -0.61112,0.99156 0,0.0951 -0.61263,1.27444 -1.36141,2.62086 -0.74878,1.34641 -1.62943,3.22193 -1.957,4.16782 -0.32757,0.94588 -0.94989,2.67229 -1.38293,3.83645 -1.16776,3.13941 -3.50232,10.51211 -3.50148,11.05792 5.3e-4,0.26102 -0.41731,1.59073 -0.92826,2.95492 -0.59709,1.59419 -0.9161,2.88982 -0.89289,3.62647 0.0199,0.63037 -0.20262,1.8605 -0.4944,2.73362 -0.69337,2.07487 -0.98588,5.56433 -0.93151,11.1125 0.0881,8.99239 0.33763,13.1047 0.99527,16.40417 0.34806,1.74625 0.68533,3.53723 0.74948,3.97995 0.21653,1.49415 1.32266,6.07316 1.49929,6.20651 0.0964,0.0728 0.33279,0.7276 0.52538,1.45521 0.19258,0.7276 0.45165,1.43602 0.57572,1.57427 0.12407,0.13824 0.22558,0.41133 0.22558,0.60686 0,1.19827 3.00513,8.0604 4.78191,10.91937 1.18272,1.90309 1.66973,2.75616 2.4902,4.362 0.37175,0.7276 1.1498,2.07901 1.72899,3.00313 0.57918,0.92411 1.05306,1.74354 1.05306,1.82095 0,0.0774 0.74414,0.87445 1.65365,1.77122 0.9095,0.89676 2.32864,2.51812 3.15364,3.60301 2.22458,2.92536 9.12837,10.37199 12.06835,13.01728 4.53914,4.08415 6.97808,6.13944 7.9615,6.70914 0.52786,0.30579 1.6644,0.98877 2.52564,1.51772 0.86125,0.52896 1.99235,1.02924 2.51355,1.11174 0.5212,0.0825 1.55493,0.32775 2.29719,0.545 0.74226,0.21725 2.3496,0.50853 3.57188,0.64729 2.38826,0.27113 3.5122,0.50326 5.79419,1.19672 2.68747,0.81667 10.61912,1.87802 16.66875,2.23049 2.54661,0.14838 5.40411,0.38533 6.35,0.52657 0.94588,0.14124 2.79214,0.2592 4.10279,0.26213 1.31065,0.003 2.79893,0.13107 3.30729,0.28477 1.8972,0.57359 4.52642,0.73678 10.317,0.64032 3.62447,-0.0604 6.54122,-0.2354 7.45656,-0.44745 z M 97.25327,222.2549 c -1.75402,-0.91225 -2.90976,-2.5392 -2.62101,-3.68965 0.34906,-1.39076 2.58388,-1.63357 4.41221,-0.4794 0.61557,0.3886 1.17513,0.68036 1.24346,0.64838 0.0683,-0.032 0.26827,0.5728 0.4443,1.34398 0.43689,1.91397 0.026,2.59347 -1.56683,2.59115 -0.61511,-8e-4 -1.47556,-0.1874 -1.91213,-0.41446 z m 64.42605,-61.38666 c -11.59811,-1.05929 -14.43388,-1.17445 -34.26354,-1.39147 l -19.31459,-0.21139 -2.11666,-0.84673 c -1.4171,-0.56688 -2.90369,-0.92944 -4.49792,-1.09697 -6.02203,-0.63284 -7.76364,-1.12027 -8.33303,-2.33223 -1.02083,-2.17288 -0.83897,-17.27729 0.24593,-20.42472 0.12539,-0.3638 0.36933,-1.55442 0.54207,-2.64583 0.17274,-1.09141 0.42605,-2.52016 0.56291,-3.175 0.2767,-1.32393 1.02148,-9.28071 1.17637,-12.56772 0.3261,-6.92018 0.88285,-11.51588 1.90717,-15.7427 0.22923,-0.945888 0.50419,-3.208076 0.61102,-5.027086 0.10684,-1.819011 0.26254,-3.664479 0.34599,-4.101042 0.0835,-0.436562 0.22621,-1.627187 0.31722,-2.645833 0.23446,-2.624037 0.84595,-6.143001 1.17398,-6.755924 0.1531,-0.286065 0.50527,-0.520118 0.7826,-0.520118 0.27734,0 0.57783,-0.119063 0.66777,-0.264583 0.26374,-0.426742 1.70794,-0.304832 2.88144,0.243231 0.59802,0.279297 1.30931,0.578451 1.58065,0.664787 0.46603,0.148286 0.48387,0.424 0.32229,4.982289 -0.24008,6.77286 -0.62277,13.129019 -1.07906,17.922189 -0.21472,2.25557 -0.51328,6.02531 -0.66347,8.3772 -0.26202,4.10313 -0.51557,6.13495 -1.0512,8.42385 -0.82752,3.53626 -1.0337,4.75531 -1.18583,7.01146 -0.0932,1.38245 -0.3893,3.46604 -0.65796,4.63021 -0.26867,1.16416 -0.62428,2.9501 -0.79024,3.96875 -0.16597,1.01864 -0.61039,2.9158 -0.98759,4.2159 -0.58231,2.00699 -0.6658,2.71522 -0.55311,4.6917 0.14157,2.48284 0.55423,3.49275 1.60276,3.92242 0.66592,0.27289 8.33982,0.78889 13.81049,0.92864 2.03729,0.052 7.3951,0.1656 11.90625,0.25235 9.23251,0.17755 17.06882,0.69539 22.35729,1.47742 4.0775,0.60296 11.89825,1.03365 19.05,1.04909 5.98442,0.0129 6.76095,0.24318 7.51967,2.22985 0.35475,0.92889 0.43004,1.59897 0.29821,2.65404 -0.37627,3.01163 -1.84376,3.22956 -14.16788,2.10397 z m -133.88186,-8.1134 c -1.50199,-1.02225 -1.9844,-1.88281 -1.69885,-3.03056 l 0.24633,-0.99013 1.45521,0.0651 c 3.41334,0.15274 3.83274,0.43364 3.61886,2.42377 -0.2191,2.03871 -1.85814,2.73196 -3.62155,1.5318 z M 194.5781,79.048457 c 0.24038,-0.265612 0.67818,-1.217427 0.97288,-2.11514 0.2947,-0.897712 1.4247,-3.454371 2.51111,-5.681466 2.66759,-5.468449 2.95751,-7.177697 2.01327,-11.869357 -0.5937,-2.949903 -0.96965,-3.900398 -2.53804,-6.416784 -1.85062,-2.969196 -5.08564,-5.618766 -9.39967,-7.698587 -2.25859,-1.088881 -6.57945,-2.454256 -8.33437,-2.633631 -2.22419,-0.22734 -10.14151,0.280885 -12.40281,0.796155 -1.03658,0.2362 -2.6586,0.604404 -3.60449,0.81823 -1.96389,0.443958 -4.00242,1.059301 -5.15937,1.557392 -0.43656,0.187948 -1.57335,0.5921 -2.5262,0.898113 -2.44713,0.785913 -2.95352,1.189845 -2.79066,2.226022 0.20673,1.315228 1.80168,2.543802 6.90436,5.318374 2.92671,1.591397 8.93583,6.30949 12.52553,9.834494 1.0807,1.061222 2.66507,2.288376 3.57188,2.766547 0.89632,0.472641 3.14741,1.745601 5.00243,2.828798 2.73478,1.596922 3.62977,2.277208 4.73158,3.596508 0.74735,0.894884 2.32524,2.400966 3.50641,3.346852 4.02913,3.226535 4.21265,3.315351 5.01616,2.42748 z M 28.13117,64.733724 c 2.36455,-1.148091 5.01356,-2.322037 5.88669,-2.608768 3.69043,-1.211932 7.27175,-2.057072 10.34083,-2.44029 1.17631,-0.146878 2.6646,-0.508203 3.30729,-0.802941 1.24618,-0.571492 1.3818,-0.649171 2.43524,-1.394807 0.37371,-0.264514 2.00998,-0.94752 3.63615,-1.517795 1.62617,-0.570273 4.6411,-1.799942 6.69983,-2.732599 3.87768,-1.75668 7.80101,-3.190692 9.46562,-3.459765 0.52798,-0.08534 1.27696,-0.448948 1.66439,-0.808009 0.61392,-0.568965 0.664,-0.72966 0.38979,-1.250826 -0.6388,-1.214088 -1.7085,-2.240592 -4.70628,-4.516217 -3.7902,-2.877159 -6.9946,-4.635236 -10.72171,-5.882404 -2.60982,-0.873301 -3.20071,-0.970271 -6.74155,-1.106354 l -3.88101,-0.149156 -3.87028,1.335379 c -2.12866,0.734458 -4.56547,1.759692 -5.41513,2.278298 -0.84967,0.518605 -2.08541,1.233801 -2.7461,1.589325 -1.10677,0.595568 -2.44355,1.907969 -3.86522,3.794734 -0.72453,0.961561 -3.00332,5.200764 -3.00332,5.587037 0,0.344535 -0.87623,2.337972 -2.63575,5.996369 -3.15441,6.558674 -3.83174,9.560113 -2.30027,10.193128 0.85195,0.352148 1.37697,0.16986 6.06079,-2.104339 z"
       id="path826"
       inkscape:connector-curvature="0" />
  </g>
</svg>
