<?xml version="1.0" encoding="UTF-8" standalone="no"?>
<!-- Created with Inkscape (http://www.inkscape.org/) -->

<svg
   xmlns:dc="http://purl.org/dc/elements/1.1/"
   xmlns:cc="http://creativecommons.org/ns#"
   xmlns:rdf="http://www.w3.org/1999/02/22-rdf-syntax-ns#"
   xmlns:svg="http://www.w3.org/2000/svg"
   xmlns="http://www.w3.org/2000/svg"
   xmlns:sodipodi="http://sodipodi.sourceforge.net/DTD/sodipodi-0.dtd"
   xmlns:inkscape="http://www.inkscape.org/namespaces/inkscape"
   width="210mm"
   height="297mm"
   viewBox="0 0 210 297"
   version="1.1"
   id="svg8"
   inkscape:version="0.92.4 (5da689c313, 2019-01-14)"
   sodipodi:docname="opieńka miodowa plain.svg">
  <defs
     id="defs2" />
  <sodipodi:namedview
     id="base"
     pagecolor="#ffffff"
     bordercolor="#666666"
     borderopacity="1.0"
     inkscape:pageopacity="0.0"
     inkscape:pageshadow="2"
     inkscape:zoom="0.49497475"
     inkscape:cx="106.72649"
     inkscape:cy="706.90859"
     inkscape:document-units="mm"
     inkscape:current-layer="layer1"
     showgrid="false"
     inkscape:window-width="1920"
     inkscape:window-height="1018"
     inkscape:window-x="-8"
     inkscape:window-y="-8"
     inkscape:window-maximized="1" />
  <metadata
     id="metadata5">
    <rdf:RDF>
      <cc:Work
         rdf:about="">
        <dc:format>image/svg+xml</dc:format>
        <dc:type
           rdf:resource="http://purl.org/dc/dcmitype/StillImage" />
        <dc:title></dc:title>
      </cc:Work>
    </rdf:RDF>
  </metadata>
  <g
     inkscape:label="Layer 1"
     inkscape:groupmode="layer"
     id="layer1">
    <path
       style="fill:#4d4d4d;stroke-width:0.26458332"
       d="m 158.2199,302.99912 c -3.55655,-3.75166 -5.91048,-6.71091 -6.66095,-8.37379 -0.35127,-0.77836 -1.46592,-2.20959 -2.77054,-3.55741 -1.20055,-1.24031 -2.18281,-2.37696 -2.18281,-2.52584 0,-0.14891 -0.4761,-0.9566 -1.05799,-1.79488 -0.58189,-0.83828 -1.05814,-1.66304 -1.05833,-1.83282 -2e-4,-0.16976 -0.0903,-0.34835 -0.20032,-0.39688 -0.38719,-0.17076 -2.44586,-2.93978 -2.44586,-3.28983 0,-0.19492 -0.35252,-0.61502 -0.78336,-0.93355 -0.43085,-0.31854 -0.72834,-0.66818 -0.6611,-0.77701 0.0673,-0.10879 -0.11602,-0.13551 -0.40726,-0.0593 -0.29618,0.0774 -0.52953,0.008 -0.52953,-0.15698 0,-0.16248 0.13364,-0.29543 0.29697,-0.29543 0.20519,0 0.19518,-0.12266 -0.0324,-0.39688 -0.26546,-0.31985 -0.25891,-0.40034 0.0337,-0.41478 0.19972,-0.01 0.0943,-0.14754 -0.23429,-0.30594 -0.32857,-0.15843 -0.57312,-0.41826 -0.54344,-0.57743 0.0949,-0.50892 -0.32182,-1.42624 -0.71684,-1.57782 -0.21029,-0.0807 -0.31559,-0.32067 -0.23399,-0.53332 0.0876,-0.22823 -0.0799,-0.50871 -0.40875,-0.68474 -0.3064,-0.16399 -0.49229,-0.40301 -0.41308,-0.53117 0.0792,-0.12817 0.023,-0.30782 -0.12488,-0.39921 -0.14789,-0.0914 -0.2694,-0.36753 -0.27001,-0.61359 -5.3e-4,-0.24609 -0.29826,-1.03315 -0.66145,-1.74903 -0.69241,-1.3648 -0.82645,-2.13638 -0.41526,-2.39051 0.3212,-0.19852 -0.0566,-1.49662 -0.77279,-2.65549 -0.30758,-0.49768 -0.52304,-1.11586 -0.4788,-1.37375 0.0453,-0.26416 -0.0832,-0.47143 -0.29437,-0.47479 -0.20616,-0.003 -0.42996,-0.17132 -0.49735,-0.37349 -0.0689,-0.20671 -0.003,-0.29339 0.15172,-0.19806 0.16865,0.10422 0.22092,-0.0344 0.13575,-0.36005 -0.0762,-0.29125 -0.24365,-0.52954 -0.3722,-0.52954 -0.12854,0 -0.23372,-0.17519 -0.23372,-0.38933 0,-0.21413 -0.31134,-1.07733 -0.69187,-1.91823 -1.15545,-2.55331 -1.95396,-4.64719 -1.95396,-5.12373 0,-0.24848 -0.30625,-0.8008 -0.68056,-1.22737 -0.65363,-0.74489 -1.74243,-3.36661 -2.24864,-5.4145 -0.13273,-0.53696 -1.1353,-2.75136 -2.22794,-4.92087 -1.09264,-2.16952 -1.98661,-4.05403 -1.98661,-4.18781 0,-0.13378 -0.27436,-0.65782 -0.60969,-1.16455 -0.33533,-0.50672 -0.77652,-1.45709 -0.98043,-2.11194 -0.2039,-0.65484 -0.8067,-2.08359 -1.33956,-3.175 -1.57965,-3.23548 -3.12965,-7.16001 -3.5327,-8.94465 -0.20726,-0.91774 -0.49768,-1.81422 -0.64536,-1.99217 -0.31205,-0.37599 -0.32765,-2.0366 -0.0228,-2.4257 0.11447,-0.1461 0.24762,-0.67272 0.29589,-1.17025 0.12031,-1.24006 0.53374,-1.27247 1.11159,-0.0871 1.0844,2.22442 1.47,3.14887 1.62854,3.9043 0.0916,0.43656 0.34812,1.21047 0.57001,1.71979 0.55465,1.2731 0.75427,1.81407 1.12273,3.04271 0.53721,1.79131 1.63047,4.37371 3.24835,7.67291 0.57088,1.16417 1.14695,2.65245 1.28015,3.3073 0.13321,0.65484 0.31762,1.48828 0.40982,1.85208 0.13873,0.54741 0.0486,0.4928 -0.523,-0.31669 -0.37985,-0.53799 -0.69266,-1.07377 -0.69515,-1.19063 -0.002,-0.11686 -0.36893,-0.80779 -0.81434,-1.53539 -1.51259,-2.47093 -0.34903,0.73959 1.95108,5.38346 0.16917,0.34154 0.64613,0.90585 1.05991,1.25403 0.54608,0.45949 0.86013,1.08719 1.14545,2.28945 0.21621,0.91102 0.5062,1.86314 0.64443,2.11582 0.13822,0.25269 0.25393,0.66941 0.25713,0.92605 0.003,0.25663 0.25972,1.00239 0.57005,1.65723 0.31034,0.65485 0.57561,1.30969 0.5895,1.45521 0.0588,0.61608 3.49179,7.9646 4.44975,9.525 0.17867,0.29104 0.5838,0.94589 0.90028,1.45521 0.31648,0.50932 0.66058,1.2237 0.76467,1.5875 0.18026,0.63005 2.52864,4.71879 3.19125,5.55625 0.17271,0.21828 0.39687,0.6686 0.49814,1.00071 0.10127,0.33213 0.46827,0.91045 0.81557,1.28518 0.3473,0.37476 0.61165,0.75787 0.58744,0.85138 -0.0242,0.0935 0.21818,0.6713 0.53864,1.28397 0.32046,0.61267 0.58265,1.34977 0.58265,1.63801 0,0.28826 0.12718,0.60269 0.28262,0.69876 0.15544,0.0961 0.21871,0.34123 0.1406,0.54481 -0.0781,0.20354 -0.0528,0.37009 0.0562,0.37009 0.10905,0 0.34262,0.32743 0.51904,0.72761 0.17642,0.40018 0.79784,1.60282 1.38093,2.67253 0.58308,1.06968 1.06387,2.26031 1.06843,2.64583 0.008,0.65985 1.30704,3.68239 1.31222,3.05271 0.001,-0.17036 0.27953,-0.24106 0.66118,-0.16812 0.51162,0.0978 0.71153,-0.0138 0.89498,-0.49971 0.12992,-0.34409 0.16089,-0.7447 0.0688,-0.89022 -0.0921,-0.14552 -0.16737,-1.69333 -0.16737,-3.43958 0,-2.87864 -0.0592,-3.2738 -0.63372,-4.23334 -0.45537,-0.76046 -0.73372,-1.8402 -0.98904,-3.83646 -0.44312,-3.46469 -0.56128,-4.26894 -0.89148,-6.06787 -0.14515,-0.79071 -0.2639,-1.89391 -0.2639,-2.45155 0,-1.06529 -0.5416,-3.12224 -0.82209,-3.12224 -0.38261,0 -1.52007,-1.3997 -1.67438,-2.0604 -0.0922,-0.39475 -0.33244,-1.07491 -0.53387,-1.51148 -0.20142,-0.43656 -0.56471,-1.68672 -0.80729,-2.77812 -0.24259,-1.09141 -0.53704,-2.10344 -0.65434,-2.24896 -0.1173,-0.14552 -0.28489,-0.74083 -0.37243,-1.32292 -0.41292,-2.74577 -1.48839,-7.30356 -1.99781,-8.46666 -0.20453,-0.46699 -1.62301,-4.98544 -2.36723,-7.54063 -0.91223,-3.13201 -5.32242,-14.98204 -6.65565,-17.88352 -0.59571,-1.2964 -1.25385,-2.73228 -1.46255,-3.19084 -0.20869,-0.45855 -0.37944,-1.08954 -0.37944,-1.4022 0,-0.66205 -0.70674,-2.12969 -1.02555,-2.12969 -0.3479,0 -2.67862,-4.98027 -2.67862,-5.72367 0,-0.4324 -0.77843,-2.24901 -1.06201,-2.47841 -0.45222,-0.36582 -1.91109,-2.83421 -3.27494,-5.54117 -0.83898,-1.6652 -1.69466,-3.26927 -1.90153,-3.5646 -0.42567,-0.60774 -0.49417,-1.21298 -0.13726,-1.21298 0.33524,0 3.01831,4.55909 4.14906,7.0501 0.5188,1.14292 1.22079,2.37568 1.55998,2.73948 0.33918,0.36381 0.88291,1.13771 1.20827,1.7198 0.32537,0.58208 0.8789,1.56914 1.23008,2.19346 0.3633,0.64589 0.57194,1.34483 0.48407,1.62168 -0.097,0.3057 0.53155,1.85714 1.69112,4.17398 2.74847,5.49149 4.75248,10.29102 5.20361,12.46248 0.24583,1.1832 0.99296,3.13329 1.92967,5.03658 0.84069,1.7082 1.62237,3.3992 1.73705,3.75777 0.11469,0.35858 0.23424,0.71149 0.26568,0.78425 0.0314,0.0728 0.14602,0.48948 0.25462,0.92604 0.10859,0.43657 0.30454,1.03188 0.43542,1.32292 0.13089,0.29104 0.42528,1.12448 0.6542,1.85208 0.22893,0.72761 0.52051,1.56105 0.64796,1.85209 0.29415,0.6717 1.55373,4.83696 2.04027,6.74687 0.73538,2.88682 0.8324,3.21925 0.98364,3.37049 0.24574,0.24574 -0.0969,-5.75045 -0.41303,-7.22825 -0.15816,-0.73932 -0.21164,-1.87041 -0.11884,-2.51354 0.0928,-0.64313 0.23952,-1.9694 0.32605,-2.94727 0.0902,-1.01964 0.31406,-1.90802 0.52481,-2.08292 0.2021,-0.16773 0.36747,-0.75961 0.36747,-1.31529 0,-0.55568 0.11906,-1.08391 0.26458,-1.17384 0.14552,-0.0899 0.26458,-0.72762 0.26458,-1.41707 0,-1.28401 0.55034,-4.05818 1.68718,-8.50481 0.53783,-2.10369 0.69119,-3.63524 0.94054,-9.39271 0.30085,-6.94687 0.2475,-16.26456 -0.1015,-17.72708 -0.41878,-1.75493 -0.85101,-6.11152 -0.64623,-6.51365 0.11993,-0.23552 0.17055,-0.47574 0.11248,-0.53381 -0.0581,-0.0581 -0.169,-0.63927 -0.24651,-1.29156 -0.0775,-0.65229 -0.21789,-1.84082 -0.31194,-2.64119 -0.16046,-1.36544 -0.48723,-2.18603 -3.00282,-7.54062 -1.98377,-4.22257 -2.33253,-5.04302 -2.5306,-5.95313 -0.11085,-0.50932 -0.34178,-1.12785 -0.51318,-1.3745 -0.4123,-0.59332 -0.20666,-2.32966 0.27591,-2.32966 0.20235,0 0.36792,0.22539 0.36792,0.50086 0,0.27547 0.16097,0.56263 0.35771,0.63812 0.2091,0.0802 0.4304,0.75582 0.5327,1.62621 0.0962,0.81892 0.42339,2.04981 0.727,2.73531 0.30359,0.68551 0.64625,1.4845 0.76145,1.77554 0.1152,0.29104 0.69865,1.55478 1.29655,2.80831 0.5979,1.25353 1.08709,2.37524 1.08709,2.49271 0,0.11746 0.16322,0.40153 0.36271,0.63127 0.58358,0.67207 1.49464,3.4075 1.62531,4.87995 0.0663,0.74722 0.18803,2.54922 0.27049,4.00443 0.21188,3.73903 0.28134,4.21729 0.71549,4.92637 0.24523,0.40053 0.36664,1.20791 0.33344,2.21738 -0.061,1.85604 -0.40386,5.24661 -0.54524,5.3926 -0.0538,0.0555 0.0207,0.32219 0.1654,0.59262 0.15498,0.28959 0.24533,2.80383 0.2198,6.11678 -0.0519,6.73316 -0.0676,7.00493 -0.46149,7.96239 -0.16965,0.41239 -0.25397,0.83794 -0.18739,0.94567 0.12826,0.20753 -0.4425,4.28288 -0.91126,6.5066 -0.15337,0.72761 -0.32967,1.79917 -0.39178,2.38125 -0.2059,1.92988 -0.44936,3.17164 -0.67602,3.44804 -0.12315,0.15017 -0.34754,1.25898 -0.49864,2.46402 -0.1511,1.20504 -0.35543,2.32157 -0.45407,2.48118 -0.0986,0.15961 -0.16109,0.75622 -0.13877,1.32581 0.0223,0.56959 -0.0887,1.27711 -0.24663,1.57227 -0.27838,0.52016 -0.32957,3.23243 -0.0915,4.84826 0.47715,3.23864 0.88575,10.52679 0.61831,11.02896 -0.13052,0.2451 -0.23731,0.70449 -0.23731,1.02087 0,0.48148 0.10782,0.54819 0.66145,0.40923 0.57369,-0.14398 0.66146,-0.0781 0.66146,0.49669 0,0.36448 0.11411,1.17043 0.25357,1.79098 0.13946,0.62055 0.56655,3.21187 0.94909,5.75848 0.38255,2.54662 0.8597,5.58271 1.06034,6.74688 1.11658,6.47856 2.02873,13.87382 2.07784,16.84602 0.0193,1.16967 0.15594,1.63973 0.6201,2.1337 0.68688,0.73099 0.77027,1.2609 0.19844,1.2609 -0.77056,0 -0.39111,0.61706 2.38537,3.87903 0.51538,0.6055 1.78157,2.15331 2.81376,3.43958 1.03218,1.28628 2.37896,2.88915 2.99284,3.56193 1.3846,1.51749 2.32631,3.01522 2.21284,3.51938 -0.0522,0.23201 -1.18943,-0.7815 -2.89155,-2.57699 z m -35.24606,-67.9642 c -0.0845,-0.21107 -0.14716,-0.14838 -0.15986,0.15985 -0.0115,0.27891 0.0511,0.43518 0.13897,0.34727 0.0879,-0.0879 0.0973,-0.31613 0.0209,-0.50712 z m -1.77252,-4.19172 c -0.16675,-0.31157 -0.37309,-0.49659 -0.45853,-0.41114 -0.0854,0.0854 0.01,0.46393 0.21165,0.84109 0.20184,0.37716 0.40818,0.56217 0.45853,0.41114 0.0503,-0.15103 -0.0449,-0.52952 -0.21165,-0.84109 z m 39.89021,59.03831 c -0.25466,-0.25824 -0.46302,-0.67644 -0.46302,-0.92935 0,-0.40378 1.1849,-2.7119 1.5748,-3.06764 0.0797,-0.0728 0.47199,-0.78713 0.87166,-1.5875 0.96432,-1.93114 1.719,-3.22982 1.98639,-3.41828 0.11987,-0.0845 0.80863,-0.9275 1.53057,-1.87338 0.72194,-0.94589 1.40192,-1.75948 1.51106,-1.80798 0.10914,-0.0485 0.19844,-0.23209 0.19844,-0.40793 0,-0.33727 2.13347,-2.54659 2.45914,-2.54659 0.10458,0 -0.48335,1.01203 -1.30651,2.24896 -0.82315,1.23692 -1.59784,2.24895 -1.72152,2.24895 -0.12367,0 -0.22486,0.11378 -0.22486,0.25284 0,0.13907 -0.47625,0.93271 -1.05834,1.76366 -0.6304,0.89993 -1.05833,1.81404 -1.05833,2.26071 0,0.42261 -0.14433,0.75062 -0.33073,0.75154 -0.36396,0.003 -1.25677,1.41624 -1.25677,1.99099 0,0.19926 -0.15943,0.45752 -0.35429,0.57389 -0.63807,0.38105 -0.96633,1.8157 -0.62335,2.72433 0.25448,0.67421 0.23962,0.86215 -0.0843,1.06699 -0.57935,0.36628 -1.12798,0.28508 -1.65,-0.24421 z m -39.5552,-1.00042 c -0.32743,-0.22842 -0.59532,-0.63614 -0.59532,-0.90607 0,-0.63693 -0.86444,-1.18242 -2.51354,-1.58612 -0.7276,-0.17812 -1.60686,-0.54306 -1.95391,-0.81097 -1.08423,-0.83707 -4.26169,-0.5538 -4.78643,0.42666 l -0.31539,0.58934 -0.90773,-0.80365 c -0.76536,-0.6776 -1.29712,-1.76075 -1.44752,-2.94846 -0.0185,-0.14552 -1.11461,-2.40771 -2.43596,-5.02709 -1.32135,-2.61937 -2.55985,-5.07852 -2.75223,-5.46478 -0.19238,-0.38627 -0.34979,-0.82106 -0.34979,-0.96623 0,-0.14518 -0.46609,-1.25791 -1.03576,-2.47272 -0.56968,-1.21483 -1.23802,-2.68502 -1.48521,-3.2671 -0.94207,-2.21836 -1.765257,-4.25821 -1.975307,-4.89479 -0.12004,-0.3638 -0.53426,-1.4949 -0.92048,-2.51354 -1.20511,-3.17842 -1.46275,-4.19754 -1.29331,-5.11578 0.16428,-0.89026 -0.17062,-2.15601 -1.80173,-6.80965 -0.41173,-1.17472 -0.74861,-2.24956 -0.74861,-2.38855 0,-0.24554 -1.44269,-3.14641 -1.82902,-3.67769 -0.10582,-0.14552 -0.46457,-1.51474 -0.79723,-3.04271 -0.33265,-1.52797 -0.71182,-3.05282 -0.84259,-3.38856 -0.15154,-0.38906 -0.13324,-0.80573 0.0505,-1.149 0.21764,-0.40667 0.18555,-0.85252 -0.13107,-1.82053 -0.23063,-0.70508 -0.41931,-1.69905 -0.41931,-2.20882 0,-0.50977 -0.11907,-1.00044 -0.26459,-1.09038 -0.14552,-0.0899 -0.26458,-0.97442 -0.26458,-1.96552 0,-1.02342 -0.21275,-2.47422 -0.49239,-3.35782 -0.27082,-0.85571 -0.69912,-2.68692 -0.95178,-4.06937 -0.9604,-5.25493 -1.53893,-7.39574 -2.04173,-7.55532 -0.26296,-0.0835 -0.59824,-0.0775 -0.74506,0.0132 -0.14683,0.0908 -0.26696,0.0278 -0.26696,-0.13997 0,-0.16773 0.25117,-0.37065 0.55816,-0.45093 0.50739,-0.13268 0.54187,-0.26868 0.37915,-1.49533 -0.16584,-1.25022 -0.72303,-2.27792 -1.23502,-2.27792 -0.11863,0 -1.08244,-0.58601 -2.1418,-1.30224 -1.05936,-0.71624 -2.46189,-1.51157 -3.11674,-1.76739 -0.65484,-0.25583 -1.60734,-0.7194 -2.11666,-1.03016 -0.50933,-0.31076 -1.61043,-0.7766 -2.44691,-1.03521 -0.83647,-0.2586 -1.58073,-0.56706 -1.65391,-0.68546 -0.0732,-0.1184 -0.37496,-0.15201 -0.67065,-0.0747 -0.29568,0.0773 -0.74204,-0.0232 -0.99192,-0.22328 -0.84949,-0.68035 -1.66569,-1.04373 -1.94987,-0.86809 -0.15587,0.0963 -0.35939,0.0668 -0.45226,-0.0656 -0.0929,-0.13241 -0.95262,-0.62158 -1.91054,-1.08703 -0.95793,-0.46545 -2.03812,-1.11651 -2.40042,-1.4468 -0.36231,-0.33028 -2.07887,-1.29996 -3.81457,-2.15483 -3.09943,-1.52654 -5.6188,-3.21321 -7.05843,-4.72548 -0.40018,-0.42038 -0.7276,-0.81109 -0.7276,-0.86826 0,-0.0572 -0.2679,-0.39252 -0.59532,-0.74524 -0.32742,-0.35272 -0.80923,-0.95344 -1.07068,-1.33494 -0.26146,-0.3815 -0.69306,-0.69364 -0.95912,-0.69364 -0.33198,0 -0.53657,-0.26415 -0.65214,-0.84201 -0.1006,-0.50298 -0.62974,-1.28406 -1.31414,-1.93983 -0.82337,-0.78893 -1.1921,-1.38349 -1.31051,-2.11314 -0.17717,-1.09181 -0.59263,-1.52132 -1.2685,-1.31139 -0.72076,0.22386 -3.49065,0.21829 -4.60355,-0.009 -0.58209,-0.11903 -1.56435,-0.21292 -2.18282,-0.20867 -1.26052,0.009 -1.47205,-0.33581 -0.44579,-0.72599 0.95937,-0.36475 3.03607,-0.31872 5.79036,0.12834 1.46604,0.23797 2.4802,0.29125 2.66256,0.1399 0.16201,-0.13445 0.70928,-0.17716 1.21615,-0.0949 0.66042,0.10717 1.02101,0.0298 1.27244,-0.2732 0.19296,-0.23251 0.57858,-0.42275 0.85693,-0.42275 0.27834,0 0.76978,-0.17116 1.09208,-0.38036 0.81923,-0.53175 3.11549,-1.27939 3.31541,-1.07947 0.23661,0.23661 -0.40526,0.58763 -1.99336,1.09012 -0.83695,0.26482 -1.54482,0.68742 -1.79757,1.07317 -0.22931,0.34998 -0.53183,0.56531 -0.67226,0.47852 -0.96091,-0.59388 -2.0266,1.31314 -1.19727,2.14247 0.22963,0.22963 0.41751,0.56515 0.41751,0.7456 0,0.18045 0.26484,0.61236 0.58853,0.9598 0.3237,0.34745 0.77018,0.99498 0.99219,1.43896 0.27909,0.55813 0.59888,0.8091 1.03628,0.81329 0.50528,0.005 0.64924,0.16463 0.71514,0.79375 0.0833,0.79506 0.97046,1.7623 3.14933,3.43353 0.56917,0.43656 1.21561,1.00211 1.43653,1.25677 0.22093,0.25466 0.5514,0.46302 0.73439,0.46302 0.18299,0 0.9602,0.47574 1.72714,1.05719 0.76694,0.58146 1.55464,1.05771 1.75046,1.05834 0.19582,5.3e-4 0.67207,0.21812 1.05833,0.48332 0.82787,0.56839 2.52274,1.3699 2.8968,1.3699 0.14434,0 0.33476,0.18849 0.42317,0.41888 0.0884,0.23038 0.30951,0.36459 0.49133,0.29826 0.18182,-0.0663 0.56871,0.0825 0.85976,0.33076 0.63261,0.53962 2.70551,1.33335 3.48217,1.33335 0.30474,0 0.70558,0.18256 0.89076,0.40568 0.18518,0.22313 0.46765,0.36113 0.62771,0.30667 0.16006,-0.0545 1.12446,0.24736 2.14311,0.67073 2.80324,1.16506 3.31662,1.42175 4.89479,2.44735 0.80036,0.52013 1.88536,1.06188 2.4111,1.20389 0.52574,0.14201 1.4029,0.56154 1.94925,0.9323 0.54634,0.37077 1.02904,0.63843 1.07265,0.59482 0.0436,-0.0436 -0.0493,-1.09129 -0.20647,-2.32818 -0.44379,-3.49261 -0.27419,-7.67285 0.3113,-7.67285 0.0971,0 0.1867,-0.44649 0.19918,-0.99219 0.0414,-1.81093 0.52446,-4.42081 0.96718,-5.22552 0.24019,-0.43656 0.50544,-1.21047 0.58946,-1.71979 0.084,-0.50933 0.25606,-1.16417 0.38231,-1.45521 0.12625,-0.29104 0.42253,-1.3626 0.65838,-2.38125 0.77561,-3.34977 0.92523,-3.83746 1.60553,-5.23312 0.41684,-0.85517 0.77904,-2.23825 0.95072,-3.63042 0.28237,-2.28976 0.34906,-2.54833 1.11127,-4.30846 0.23846,-0.55064 0.43355,-1.10843 0.43355,-1.23954 0,-0.36157 0.47559,-1.37085 1.06362,-2.25721 0.57369,-0.86474 1.91394,-3.5908 2.98089,-6.06312 0.37152,-0.86086 0.83692,-1.75383 1.03423,-1.98438 0.1973,-0.23054 0.5069,-0.77698 0.68799,-1.21431 0.18108,-0.43733 0.68371,-1.03264 1.11696,-1.32291 0.43324,-0.29028 0.788047,-0.59886 0.788467,-0.68573 5.3e-4,-0.0869 0.22695,-0.41875 0.5034,-0.73751 0.27645,-0.31875 0.63017,-1.30357 0.78605,-2.18849 0.15588,-0.88493 0.45327,-1.74367 0.66087,-1.90834 0.2076,-0.16466 1.07427,-1.6686 1.92593,-3.34208 0.85166,-1.67349 1.75064,-3.26688 1.99774,-3.54087 0.24711,-0.27399 1.26784,-2.11946 2.2683,-4.10104 1.81128,-3.58757 4.27037,-7.82973 6.16247,-10.63084 l 0.99411,-1.4717 -1.06962,-0.90955 c -1.59463,-1.356 -2.79291,-2.56363 -4.70349,-4.74024 -0.94589,-1.07759 -2.28534,-2.5406 -2.97656,-3.25113 -0.69123,-0.71053 -1.25677,-1.43917 -1.25677,-1.6192 0,-0.18002 -0.21197,-0.55813 -0.47103,-0.84023 -0.25906,-0.2821 -0.80898,-0.9594 -1.22203,-1.5051 -0.41305,-0.5457 -0.91546,-0.99219 -1.11647,-0.99219 -0.20101,0 -0.36547,-0.11115 -0.36547,-0.247 0,-0.36105 -1.6322,-2.928 -1.86178,-2.928 -0.10734,0 -0.26443,0.80368 -0.349067,1.78594 -0.0847,0.98227 -0.30662,3.11103 -0.49327,4.73058 -0.21081,1.82913 -0.27559,4.08433 -0.17099,5.95312 0.46223,8.2586 0.820307,9.89019 3.249957,14.80848 1.6363,3.31233 1.57247,3.14897 1.23048,3.14897 -0.13572,0 -0.33043,-0.2679 -0.43268,-0.59532 -0.10226,-0.32742 -0.76956,-1.54781 -1.48288,-2.71198 -0.71332,-1.16416 -1.40179,-2.29526 -1.52992,-2.51354 -0.498387,-0.84901 -1.119877,-3.49997 -0.979837,-4.17948 0.18202,-0.88326 -0.46307,-7.32001 -1.04268,-10.40387 -0.38219,-2.03349 -0.38561,-2.34842 -0.0316,-2.91042 0.32801,-0.5207 0.7782,-4.73497 0.78806,-7.37706 8e-4,-0.21828 0.16504,-0.58571 0.36495,-0.8165 0.31736,-0.3664 0.13673,-0.69669 -1.42421,-2.60423 -0.98322,-1.20153 -1.93269,-2.44973 -2.10995,-2.77377 -0.39354,-0.71943 -1.36223,-1.71294 -2.29197,-2.35066 -0.38117,-0.26146 -0.69304,-0.68413 -0.69304,-0.93927 0,-0.255148 -0.14883,-0.61273 -0.33073,-0.794631 -0.1819,-0.181901 -0.33276,-0.473604 -0.33524,-0.648229 -0.005,-0.364882 -0.4033,-0.345795 -2.74403,0.131558 l -1.69021,0.344692 -0.38285,1.45521 c -0.21057,0.80036 -0.40582,1.57427 -0.4339,1.71979 -0.0281,0.14552 -0.12618,0.38455 -0.21802,0.53118 -0.0918,0.14663 -0.25365,0.74194 -0.35959,1.32292 -0.10593,0.58097 -0.42319,1.55315 -0.70502,2.16038 -0.71141,1.53284 -0.56134,2.57475 0.38657,2.68382 0.40018,0.046 0.7276,0.18197 0.7276,0.30205 0,0.12008 0.31462,0.29729 0.69915,0.3938 0.70706,0.17746 3.15321,2.46773 2.90296,2.71797 -0.0745,0.0745 -0.51654,0.003 -0.98225,-0.15966 -0.46571,-0.16234 -1.67515,-0.29517 -2.68764,-0.29517 -1.54245,0 -1.81577,0.0655 -1.68582,0.40418 0.0853,0.22229 -0.0108,1.14503 -0.21352,2.05052 -0.20274,0.90549 -0.44498,3.01556 -0.53831,4.68905 -0.18564,3.32837 -0.20658,13.70178 -0.0282,13.99032 0.0968,0.15663 0.25518,1.2155 0.79639,5.32426 0.44838,3.40403 1.70019,7.68716 3.22386,11.03066 0.95852,2.10333 2.19112,4.03379 4.64579,7.27612 0.84731,1.11919 1.54056,2.16099 1.54056,2.3151 0,0.72609 -0.61109,0.056 -2.33841,-2.56407 -1.03131,-1.56434 -2.47488,-3.73084 -3.20793,-4.81443 -0.73306,-1.08358 -1.33283,-2.16215 -1.33283,-2.39682 0,-0.23467 -0.1748,-0.65778 -0.38846,-0.94026 -0.21365,-0.28247 -0.39224,-0.70533 -0.39687,-0.93969 -0.005,-0.23435 -0.32302,-0.8892 -0.70754,-1.45521 -0.40211,-0.5919 -0.85464,-1.81595 -1.06519,-2.88119 -0.63824,-3.22923 -1.2145,-5.15937 -1.54036,-5.15937 -0.17364,0 -0.53147,-0.74414 -0.79517,-1.65365 -0.26371,-0.90951 -0.63685,-1.91293 -0.82922,-2.22984 -0.19236,-0.31691 -0.59858,-1.50476 -0.90272,-2.63966 -0.30413,-1.1349 -0.67404,-2.20936 -0.82203,-2.38767 -0.14799,-0.17831 -0.19168,-0.56805 -0.0971,-0.86607 0.1,-0.31508 0.0538,-0.54186 -0.11043,-0.54186 -0.15533,0 -0.28242,-0.28991 -0.28242,-0.64424 0,-0.35433 -0.12957,-0.97941 -0.28794,-1.38906 -0.29574,-0.76501 -0.33206,-1.19594 -0.65366,-7.75629 -0.10344,-2.11005 -0.30566,-3.98528 -0.44938,-4.16718 -0.14372,-0.18191 -0.67026,-0.33073 -1.17008,-0.33073 -1.08539,0 -3.25977,-0.51668 -3.25977,-0.7746 0,-0.10043 0.15875,-0.3997 0.35277,-0.66504 0.3228,-0.44146 0.40709,-0.44807 0.99219,-0.0778 0.41956,0.26549 1.29211,0.40525 2.53768,0.40646 1.04405,0.001 2.25446,0.0801 2.68981,0.1757 0.68684,0.15086 0.83858,0.0755 1.14727,-0.56991 0.40192,-0.8403 1.64193,-1.18059 2.99416,-0.82168 1.29812,0.34455 3.63525,0.26433 3.51057,-0.12051 -0.15324,-0.473 -1.86392,-0.93053 -4.21725,-1.12793 -2.19637,-0.18424 -2.3558,-0.27029 -4.74211,-2.55946 -0.85038,-0.81576 -1.23859,-1.38075 -1.13473,-1.65141 0.093,-0.24236 -0.0135,-0.4772 -0.25925,-0.57149 -0.22942,-0.088 -0.49788,-0.59506 -0.59656,-1.12671 -0.23085,-1.24364 -1.12282,-3.33886 -1.33225,-3.12943 -0.0886,0.0886 -0.45885,-0.0731 -0.82279,-0.35942 -0.36394,-0.28628 -1.04612,-0.520502 -1.51595,-0.520502 -1.21986,0 -3.65042,0.492032 -3.82487,0.774292 -0.0814,0.13173 -0.3596,0.084 -0.62002,-0.10646 -0.42904,-0.31373 -0.35703,-0.40121 0.78555,-0.954328 0.69185,-0.334915 1.6784,-0.597019 2.19235,-0.582451 0.51394,0.01458 1.05417,-0.05185 1.2005,-0.147595 0.52758,-0.345197 3.81015,-0.231238 3.95152,0.137183 0.17535,0.456944 1.51237,0.44594 4.50139,-0.03704 4.81409,-0.777886 9.27977,-1.47242 9.44324,-1.468684 0.31847,0.0073 0.446,-1.45252 0.15738,-1.801442 -0.75946,-0.918122 -0.39881,-8.678026 0.46033,-9.904621 0.22292,-0.318273 0.40532,-0.891082 0.40532,-1.272908 0,-0.792765 0.61774,-2.152155 1.19612,-2.632167 0.60507,-0.502172 0.46471,-0.816999 -0.32682,-0.733063 -1.19229,0.126434 -1.08833,-0.700497 0.13411,-1.066749 0.56366,-0.168879 1.36046,-0.59544 1.77066,-0.947913 0.4102,-0.352475 0.99564,-0.758235 1.30098,-0.901689 2.34063,-1.09968 2.84415,-1.22923 5.317657,-1.36816 2.304,-0.129408 2.77575,-0.239813 3.65139,-0.854549 1.77719,-1.247656 6.02402,-1.712793 6.21964,-0.681212 0.0913,0.481669 0.0613,0.492091 -2.74196,0.952071 -1.75435,0.287867 -5.93845,1.84049 -5.93845,2.203625 0,0.124957 -0.18021,0.227195 -0.40046,0.227195 -0.51907,0 -1.36808,0.480766 -2.453007,1.389062 -0.97238,0.814068 -1.84352,0.9416 -2.08757,0.305613 -0.17296,-0.450734 0.90743,-1.554451 1.7984,-1.837235 0.481377,-0.152784 0.700057,-0.638868 0.29837,-0.663221 -0.10914,-0.0066 -1.11422,0.439867 -2.23351,0.992188 -1.3348,0.658664 -2.04039,1.161447 -2.05052,1.46114 -0.008,0.251307 -0.28334,0.632648 -0.61076,0.847423 -0.60802,0.398841 -1.20307,1.411182 -1.79941,3.06128 -0.18407,0.509323 -0.56333,1.446024 -0.84281,2.081559 -0.93018,2.115259 -0.60322,9.87339 0.49471,11.738427 0.56383,0.957765 1.69022,2.055011 2.1096,2.055011 0.63573,0 1.42143,0.76491 1.24853,1.21549 -0.0785,0.2046 -0.0109,0.37201 0.15014,0.37201 0.16109,0 0.29289,0.28249 0.29289,0.62776 0,0.40101 0.41221,1.00773 1.14118,1.67967 1.12281,1.03497 3.290327,3.72349 3.859817,4.78758 0.15986,0.29872 0.29066,0.77538 0.29066,1.05925 0,0.28387 0.29766,0.71116 0.66146,0.94953 0.3638,0.23838 0.66146,0.608 0.66146,0.82138 0,0.21339 0.59946,1.04992 1.33212,1.85896 0.73268,0.80903 1.40425,1.8316 1.4924,2.27235 0.0882,0.44076 0.53224,1.17906 0.98687,1.64068 1.48022,1.50299 3.90694,3.61742 4.1517,3.61742 0.13144,0 0.23899,0.16895 0.23899,0.37544 0,0.49653 0.86457,2.00201 1.15094,2.00414 0.12369,7.9e-4 0.61279,0.38957 1.08689,0.86366 0.47409,0.4741 1.63087,1.24836 2.57063,1.72058 0.93975,0.47223 2.058,1.2237 2.48499,1.66994 0.84284,0.88084 1.98216,1.49059 3.0253,1.61912 1.31999,0.16263 0.35315,0.61116 -1.35931,0.6306 -1.63524,0.0186 -1.78514,-0.0291 -2.17642,-0.69146 -0.49645,-0.84041 -2.09433,-1.72232 -2.25902,-1.24681 -0.0584,0.16867 -0.21104,0.43116 -0.33915,0.58333 -1.34889,1.60217 -4.24181,6.67611 -4.35553,7.63923 -0.0486,0.41139 -0.56582,1.66581 -1.14944,2.7876 -0.58362,1.12179 -1.06113,2.13203 -1.06113,2.24497 0,0.11294 -0.28991,0.82305 -0.64426,1.57803 -0.69158,1.4735 -1.25127,3.52964 -0.64372,2.36486 0.17078,-0.32742 0.41138,-0.59531 0.53466,-0.59531 0.12329,0 0.22416,-0.23813 0.22416,-0.52917 0,-0.29104 0.0893,-0.53053 0.19843,-0.5322 0.10914,-0.002 0.42145,-0.50768 0.69402,-1.12448 0.41622,-0.94187 2.38863,-4.92339 3.79959,-7.66988 0.43664,-0.84993 0.52963,-0.87296 1.17311,-0.29062 0.46372,0.41966 0.44676,0.48104 -0.42793,1.54848 -0.50093,0.61132 -1.23052,1.81366 -1.62132,2.67187 -0.3908,0.8582 -0.78417,1.61991 -0.87416,1.69267 -0.09,0.0728 -0.43089,0.66807 -0.75756,1.32291 -0.32667,0.65485 -0.70505,1.36922 -0.84086,1.5875 -0.13581,0.21828 -0.52976,0.99219 -0.87544,1.71979 -0.34569,0.72761 -1.0091,2.0011 -1.47424,2.82997 -0.46515,0.82888 -0.84573,1.73704 -0.84573,2.01813 0,0.28109 -0.18509,0.66468 -0.41132,0.85243 -0.49766,0.41303 -0.91203,1.15541 -1.05275,1.88612 -0.31433,1.63221 -2.31335,4.18731 -3.27599,4.18731 -0.26377,0 -0.089,-0.79479 0.23276,-1.05833 0.30366,-0.24875 1.0541,-2.45381 0.91287,-2.68234 -0.22403,-0.36248 -0.84844,-0.26431 -0.80794,0.12702 0.0202,0.19531 -0.91575,2.26569 -2.07992,4.60085 -1.546307,3.1017 -2.259247,4.27149 -2.645827,4.34126 -0.34801,0.0628 -0.52246,0.2948 -0.50957,0.67766 0.0108,0.32018 -0.064,0.53049 -0.16615,0.46736 -0.27833,-0.17202 -1.56579,1.88979 -1.74756,2.79864 -0.0872,0.43618 -0.25112,0.85023 -0.36418,0.92011 -0.11307,0.0699 -0.14333,0.36505 -0.0673,0.65595 0.0761,0.2909 0.0192,0.5289 -0.12627,0.5289 -0.14552,0 -0.33455,0.20836 -0.42006,0.46303 -0.0855,0.25466 -0.26107,0.64161 -0.39014,0.85989 -1.20382,2.03584 -1.99667,4.547 -1.78757,5.66164 0.15218,0.81115 0.0169,1.27381 -1.16812,3.99565 -1.04014,2.38906 -1.36748,3.2818 -1.45517,3.96875 -0.18545,1.45272 -0.56764,2.90149 -0.97718,3.70417 -0.22274,0.43656 -0.60366,1.7965 -0.84649,3.02209 -0.35539,1.7937 -0.37542,2.27028 -0.10268,2.44335 0.25328,0.16072 0.22908,0.21602 -0.0959,0.21905 -0.55496,0.005 -0.80309,0.64999 -0.5848,1.51975 0.10027,0.3995 0.068,0.61647 -0.0782,0.52611 -0.15183,-0.0938 -0.23086,1.3604 -0.20274,3.73085 0.0454,3.82625 0.1702,5.23621 0.64829,7.32422 0.13329,0.58208 0.24525,1.79975 0.2488,2.70593 0.004,1.13187 0.22324,2.20854 0.69899,3.43959 0.62952,1.62898 1.00486,3.30303 1.67719,7.48052 0.12882,0.80036 0.42964,1.99099 0.66849,2.64583 0.23886,0.65484 0.48307,1.9342 0.54268,2.84302 0.0596,0.90881 0.30059,2.02405 0.53549,2.4783 0.23491,0.45425 0.36331,1.06986 0.28533,1.36802 -0.078,0.29817 0.0244,1.25426 0.22742,2.12466 0.20305,0.87039 0.30329,1.912 0.22275,2.31468 -0.18292,0.91458 1.31995,5.62113 3.71844,11.64505 0.6706,1.68425 1.21927,3.41524 1.21927,3.84666 0,0.43141 0.24486,1.25605 0.54414,1.83252 0.82911,1.59705 3.079517,8.51831 3.695877,11.36688 0.15743,0.7276 0.64232,2.07854 1.07754,3.00207 0.43521,0.92353 0.85922,2.01877 0.94223,2.43387 0.27352,1.36758 1.12962,1.81666 2.82225,1.48048 1.23701,-0.24569 1.68742,0.0692 1.92719,1.34728 0.14365,0.76574 0.35942,1.01177 1.19493,1.36248 0.69515,0.29178 1.02163,0.59639 1.02593,0.95715 0.017,1.42783 0.24316,1.64912 1.87375,1.83359 1.38889,0.15714 1.56491,0.24337 1.56491,0.76653 0,0.98869 0.74406,1.73024 2.15718,2.14989 1.21896,0.36201 2.34074,1.20865 2.34074,1.76668 0,0.58251 1.54625,1.16406 3.42597,1.28852 1.5244,0.10094 2.00411,0.22635 2.02383,0.52917 0.0142,0.21828 0.044,0.66188 0.0661,0.98576 0.0403,0.58901 1.43285,2.04811 2.51084,2.63083 0.31469,0.1701 0.57217,0.40595 0.57217,0.52408 0,0.11817 0.16834,0.21709 0.37409,0.21987 0.20576,0.003 0.41915,0.13925 0.47421,0.30322 0.13841,0.41222 -0.71099,0.69688 -1.10462,0.37017 -0.17684,-0.14676 -0.39988,-0.18851 -0.49563,-0.0928 -0.0958,0.0957 -0.17409,0.0479 -0.17409,-0.10626 0,-0.15422 -0.17253,-0.34657 -0.3834,-0.42751 -0.25626,-0.0983 -0.33461,-0.0198 -0.23628,0.23627 0.0809,0.21088 0.0153,0.38341 -0.14577,0.38341 -0.16109,0 -0.29289,0.1261 -0.29289,0.28019 0,0.15412 0.11907,0.20662 0.26459,0.11669 0.46272,-0.28599 0.85372,0.13808 0.50961,0.55271 -0.24963,0.30081 -0.20408,0.37333 0.23452,0.37333 0.29938,0 0.86626,-0.1224 1.25971,-0.27199 1.60264,-0.60931 0.92692,0.51601 -0.7761,1.29249 -3.37243,1.53767 -3.84836,1.62742 -4.86576,0.91773 z m 3.10885,-1.40907 c 0.32093,-0.2074 0.28296,-0.25725 -0.19844,-0.26053 -0.32742,-0.003 -0.59531,0.11501 -0.59531,0.26053 0,0.3315 0.28079,0.3315 0.79375,0 z m -7.16125,-6.61458 c 0.39056,0 0.94123,-0.18674 1.2237,-0.415 0.47539,-0.38415 0.39552,-0.40153 -1.07391,-0.23381 -0.87312,0.0997 -1.79586,0.17476 -2.05052,0.16687 -0.25466,-0.008 -0.46302,0.17174 -0.46302,0.39915 0,0.32203 0.18294,0.37693 0.82682,0.24816 0.45476,-0.0909 1.14637,-0.16537 1.53693,-0.16537 z m -1.39877,-2.4031 c 0.31246,-0.11491 0.63988,-0.15701 0.72761,-0.0936 0.0877,0.0635 0.0983,0.0343 0.0235,-0.0647 -0.0748,-0.0991 -0.72967,-0.18875 -1.45521,-0.19928 -1.09344,-0.0159 -1.31917,0.0611 -1.31917,0.44976 0,0.4811 0.53033,0.45691 2.02332,-0.0922 z m -1.90232,-1.0182 c 0.28741,-0.46503 -0.32549,-0.54054 -1.34721,-0.16595 l -1.02274,0.37497 1.10886,0.0185 c 0.60988,0.0103 1.17737,-0.0922 1.26109,-0.22765 z m 0.93734,-0.28287 c 0,-0.14552 -0.11906,-0.26458 -0.26458,-0.26458 -0.14552,0 -0.26459,0.11906 -0.26459,0.26458 0,0.14553 0.11907,0.26459 0.26459,0.26459 0.14552,0 0.26458,-0.11906 0.26458,-0.26459 z M 98.451433,159.66266 c 0,-0.13693 -0.11906,-0.24897 -0.26458,-0.24897 -0.14552,0 -0.26459,0.18563 -0.26459,0.4125 0,0.22687 0.11907,0.3389 0.26459,0.24896 0.14552,-0.0899 0.26458,-0.27555 0.26458,-0.41249 z m 0.79375,-1.57188 c 0,-0.14552 -0.11906,-0.26458 -0.26458,-0.26458 -0.14552,0 -0.26459,0.11906 -0.26459,0.26458 0,0.14552 0.11907,0.26458 0.26459,0.26458 0.14552,0 0.26458,-0.11906 0.26458,-0.26458 z m 6.162077,-8.20208 c 0.0856,-0.32718 0.008,-0.52917 -0.20287,-0.52917 -0.18768,0 -0.40351,0.23812 -0.47962,0.52917 -0.0856,0.32717 -0.008,0.52916 0.20286,0.52916 0.18769,0 0.40352,-0.23812 0.47963,-0.52916 z m -0.0167,-2.31511 c 0.22362,-0.25466 0.49576,-0.76068 0.60475,-1.12448 0.10899,-0.3638 0.59933,-1.40858 1.08963,-2.32174 1.0127,-1.88607 1.13297,-2.47675 0.3623,-1.7793 -0.29104,0.26339 -0.52917,0.65756 -0.52917,0.87593 0,0.21837 -0.27909,0.76546 -0.62021,1.21576 -0.78347,1.03423 -1.23106,1.87771 -1.50703,2.83998 -0.24595,0.85757 -8e-4,0.9777 0.59973,0.29385 z m 1.52751,-0.33073 c 0,-0.14552 -0.0525,-0.26458 -0.11668,-0.26458 -0.0642,0 -0.19026,0.11906 -0.2802,0.26458 -0.0899,0.14552 -0.0374,0.26459 0.11668,0.26459 0.15411,0 0.2802,-0.11907 0.2802,-0.26459 z m 1.66811,-6.10054 c 0.11679,-0.4466 0.0748,-0.48827 -0.23372,-0.23218 -0.42091,0.34932 -0.49921,0.77647 -0.14234,0.77647 0.12855,0 0.29778,-0.24493 0.37606,-0.54429 z m -25.156417,-5.47498 c -0.0639,-0.1819 -0.23529,-0.33073 -0.38081,-0.33073 -0.14552,0 -0.19231,0.18833 -0.10398,0.41852 0.0883,0.23018 0.17247,0.67666 0.18697,0.99219 0.024,0.52262 0.0436,0.51481 0.22021,-0.0878 0.1066,-0.3638 0.14153,-0.81029 0.0776,-0.99219 z m -0.32419,-1.36997 c 0,-0.28054 -0.29833,-1.61999 -0.66294,-2.97656 -0.75388,-2.80484 -1.06963,-5.24461 -0.67875,-5.24461 0.14266,0 0.3347,0.44648 0.42676,0.99218 0.53276,3.15799 0.84635,0.55931 0.88867,-7.36423 0.0144,-2.70427 0.11111,-5.00169 0.21481,-5.10539 0.36824,-0.36825 1.07908,-2.54548 0.83107,-2.54548 -0.41351,0 -1.69405,0.72804 -2.06348,1.17318 -0.18912,0.22788 -0.68941,0.41432 -1.11176,0.41432 -0.58996,0 -0.83055,0.1648 -1.03829,0.71118 -0.46203,1.21525 -0.52556,6.20964 -0.0971,7.63332 0.20933,0.69553 0.38059,1.64694 0.38059,2.11425 0,1.59359 2.30726,10.70182 2.71198,10.70591 0.10914,0.001 0.19844,-0.22753 0.19844,-0.50807 z m 0.87939,-26.77682 c -0.13408,-0.67039 -0.0485,-0.91696 0.44824,-1.29166 0.52022,-0.3924 0.6383,-0.78097 0.77339,-2.54488 0.0877,-1.14497 0.36572,-2.48805 0.61785,-2.98462 0.25213,-0.49656 0.40305,-0.958214 0.33537,-1.025891 -0.0677,-0.06768 -1.05046,0.02784 -2.18396,0.212267 -1.1335,0.184424 -3.0586,0.319564 -4.27801,0.300304 l -2.21711,-0.035 0.15062,0.92814 c 0.0828,0.51048 0.39593,1.24001 0.69575,1.62117 0.29982,0.38116 0.54513,0.87044 0.54513,1.08728 0,0.21684 0.30136,1.06399 0.66968,1.88254 0.65709,1.46034 0.70306,1.49912 2.44739,2.06427 2.28545,0.74047 2.18861,0.75085 1.99566,-0.21391 z m 95.989317,155.36452 c -0.24106,-0.14899 0.2051,-0.69877 1.52885,-1.88396 2.06258,-1.84667 3.46702,-2.82747 3.46702,-2.4212 0,0.35056 -2.85539,2.94922 -3.62677,3.30069 -0.33361,0.152 -0.60656,0.42882 -0.60656,0.61516 0,0.46332 -0.352,0.64303 -0.76254,0.38931 z m -48.11229,-1.6068 c -0.15113,-0.3638 -0.45538,-1.0934 -0.67611,-1.62134 -0.22072,-0.52794 -0.52733,-1.03777 -0.68135,-1.13295 -0.15401,-0.0952 -0.21103,-0.35284 -0.12672,-0.57256 0.20076,-0.52318 2.01504,2.91709 1.86636,3.53904 -0.0853,0.35685 -0.16393,0.31321 -0.38218,-0.21219 z m 54.69566,-6.3797 c -2.69122,-0.71654 -5.55625,-1.68135 -5.55625,-1.8711 0,-0.11872 -0.19036,-0.21586 -0.42303,-0.21586 -0.40972,0 -1.80059,-0.54101 -2.88426,-1.12189 -0.29104,-0.156 -0.70776,-0.36502 -0.92604,-0.46448 -1.91627,-0.87313 -4.99495,-2.54819 -5.41661,-2.94708 -0.87032,-0.82331 0.0441,-0.58104 1.77454,0.47013 2.02058,1.22744 6.20709,3.26957 6.70286,3.26957 0.20833,0 0.37879,0.0973 0.37879,0.21626 0,0.11895 0.68461,0.42301 1.52136,0.6757 0.83674,0.25269 1.75947,0.55542 2.05052,0.67272 0.29104,0.1173 1.24354,0.42959 2.11666,0.69397 2.26264,0.68513 2.80144,1.19184 0.66146,0.62206 z m -10.31875,-2.10258 c 0,-0.15411 0.11906,-0.20661 0.26458,-0.11667 0.14553,0.0899 0.26459,0.21602 0.26459,0.2802 0,0.0642 -0.11906,0.11667 -0.26459,0.11667 -0.14552,0 -0.26458,-0.12609 -0.26458,-0.2802 z m -3.35869,-1.96848 -0.74235,-0.66119 0.9173,0.37038 c 0.50451,0.20372 0.96092,0.50125 1.01423,0.66119 0.16671,0.50012 -0.41535,0.31883 -1.18918,-0.37038 z m -4.78241,-7.13079 c -1.95065,-1.07773 -5.61724,-4.34501 -5.61724,-5.00551 0,-0.63675 0.40191,-0.52458 0.73431,0.20496 0.28416,0.62367 3.49778,3.40822 4.68317,4.0579 0.66552,0.36475 1.39291,1.14101 1.03107,1.10035 -0.12696,-0.0143 -0.50105,-0.17524 -0.83131,-0.3577 z m -39.24147,-5.86076 c -0.19334,-0.23296 -0.37414,-0.56039 -0.40178,-0.7276 -0.0276,-0.16723 -0.13478,-0.63036 -0.23809,-1.02918 -0.14082,-0.54358 -0.0806,-0.76629 0.24045,-0.8895 0.87683,-0.33647 1.74389,1.29212 1.3495,2.53473 -0.20479,0.64526 -0.48029,0.67761 -0.95008,0.11155 z m 32.8065,-1.52192 c -0.57374,-0.77439 -0.79973,-1.81314 -0.49822,-2.29005 0.20423,-0.32305 0.25025,-0.29732 0.25357,0.14177 0.002,0.29504 0.16286,0.77129 0.35696,1.05833 0.82593,1.22141 0.72327,2.21775 -0.11231,1.08995 z m -0.83591,-3.43397 c -0.39943,-0.97556 -0.2224,-3.51413 0.29122,-4.17601 0.26931,-0.34704 0.54695,-0.80908 0.61699,-1.02675 0.07,-0.21766 0.3507,-0.39625 0.62371,-0.39687 0.33741,-7.9e-4 0.70955,-0.44599 1.16199,-1.39018 0.43344,-0.90456 0.82953,-1.38907 1.13559,-1.38907 0.25849,0 0.46998,0.11907 0.46998,0.26459 0,0.14552 -0.099,0.26458 -0.21988,0.26458 -0.12093,0 -0.38745,0.32742 -0.59228,0.7276 -0.58417,1.14134 -1.6686,2.44738 -2.03211,2.44739 -0.1819,1e-5 -0.33073,0.27385 -0.33073,0.60855 0,0.3347 -0.14883,0.75728 -0.33073,0.93907 -0.1819,0.18178 -0.39026,1.0688 -0.46302,1.97114 -0.0874,1.08343 -0.19969,1.47602 -0.33073,1.15596 z m 43.66571,-0.24294 c -0.56136,-0.51705 -2.96393,-1.77485 -6.69019,-3.50248 -2.93177,-1.35927 -6.30717,-2.66187 -9.26041,-3.5737 -1.1588,-0.35778 -1.38693,-0.49561 -0.84477,-0.51037 1.00539,-0.0274 3.09372,0.51598 3.09372,0.80494 0,0.12824 0.21844,0.23317 0.48541,0.23317 0.54169,0 4.4168,1.54846 7.45209,2.97777 1.09141,0.51394 2.4011,1.12143 2.91042,1.34997 1.49999,0.67308 3.54297,1.93555 3.64954,2.25526 0.13244,0.39731 -0.34966,0.37638 -0.79581,-0.0346 z M 82.826003,226.54455 c -3.00491,-2.72297 -3.80358,-3.33884 -5.40671,-4.1692 -0.97356,-0.50428 -2.08673,-1.20911 -2.47369,-1.56629 -0.98854,-0.91246 -3.3714,-1.67718 -4.06665,-1.30509 -0.4469,0.23917 -0.68629,0.13956 -1.49493,-0.62205 -0.52956,-0.49875 -1.88556,-1.29999 -3.01335,-1.78054 -1.1294,-0.48124 -2.05052,-1.03596 -2.05052,-1.23487 0,-0.50023 0.45269,-0.45157 1.4325,0.15398 0.45843,0.28332 1.40248,0.64264 2.0979,0.79849 0.69542,0.15585 1.52165,0.52302 1.83605,0.81593 0.41013,0.3821 0.77724,0.48742 1.29928,0.37276 0.42375,-0.0931 1.03464,-1e-5 1.46273,0.22282 0.40429,0.21046 1.17121,0.5695 1.70426,0.79788 0.53304,0.22838 1.66414,0.9337 2.51354,1.56739 0.8494,0.63369 2.1004,1.43897 2.77999,1.78952 1.5823,0.81618 4.5775,3.55236 4.32893,3.95456 -0.10238,0.16566 -0.0423,0.47458 0.1336,0.68648 0.58122,0.70033 -0.12531,0.38601 -1.08293,-0.48177 z m 101.537837,-0.6212 c -0.0909,-0.0909 -1.11124,-0.55253 -2.26734,-1.02577 -4.01782,-1.64466 -6.4117,-1.92936 -9.77045,-1.16201 -2.39168,0.54642 -2.96661,0.60508 -2.96576,0.3026 0.001,-0.35812 4.29275,-1.21981 6.06777,-1.21827 0.95529,7.9e-4 2.39173,0.15917 3.19209,0.35188 1.90126,0.45777 6.44852,2.28643 6.56662,2.64072 0.099,0.29693 -0.5495,0.38428 -0.82293,0.11085 z m -19.8432,-4.33231 c -0.0761,-0.2909 -0.0247,-0.5991 0.11409,-0.6849 0.13882,-0.0858 0.21694,-0.40227 0.1736,-0.70327 -0.11808,-0.82004 0.53987,-0.87573 0.84561,-0.0716 0.47788,1.25692 0.3438,1.98865 -0.36439,1.98865 -0.40798,0 -0.67943,-0.18672 -0.76891,-0.5289 z m -32.83157,-5.22578 c -0.0745,-0.25467 -0.33,-1.59412 -0.56774,-2.97657 -0.23774,-1.38244 -0.64557,-3.22791 -0.90628,-4.10104 -0.26072,-0.87312 -0.61079,-2.18281 -0.77795,-2.91041 -0.16715,-0.72761 -0.35906,-1.56105 -0.42645,-1.85209 -0.0674,-0.29104 -0.30445,-1.34711 -0.5268,-2.34682 -0.47535,-2.13721 -1.42216,-5.63051 -1.7304,-6.38443 -0.119,-0.29104 -0.27311,-0.82682 -0.34247,-1.19062 -0.0694,-0.3638 -0.28669,-1.25677 -0.48295,-1.98438 -0.19626,-0.7276 -0.29731,-1.8587 -0.22455,-2.51354 l 0.13229,-1.19062 0.49225,1.71979 c 0.58397,2.04027 1.04091,3.07344 1.17775,2.66294 0.15028,-0.45086 -0.42411,-2.64574 -1.83935,-7.02857 -0.70484,-2.18281 -1.4739,-4.56406 -1.70901,-5.29166 -0.23511,-0.72761 -0.58328,-1.50151 -0.77371,-1.7198 -0.54527,-0.625 -1.11291,-2.27791 -1.8571,-5.40764 -0.37848,-1.59176 -0.86747,-3.24087 -1.08664,-3.66469 -0.21916,-0.42382 -0.93193,-2.39569 -1.58392,-4.38194 -1.69121,-5.15213 -3.53589,-8.97275 -3.53589,-7.32336 0,0.21397 -0.28548,1.01764 -0.63439,1.78594 -0.34892,0.7683 -1.01684,2.40893 -1.48426,3.64586 -0.46743,1.23693 -0.94289,2.48708 -1.05658,2.77813 -0.43707,1.11886 -1.0581,3.39055 -1.0581,3.87043 0,0.2763 -0.1228,0.70911 -0.27289,0.9618 -0.36876,0.62083 -1.60087,6.25197 -1.69254,7.73547 -0.0405,0.65485 -0.20748,1.96454 -0.37114,2.91042 -0.16365,0.94589 -0.35524,2.91042 -0.42574,4.36563 -0.16802,3.46807 -0.30817,4.97969 -0.62553,6.74687 -0.20911,1.16433 -0.18751,1.51393 0.10804,1.74896 0.23096,0.18368 0.37373,0.82812 0.38099,1.71979 0.006,0.78432 0.18319,1.90229 0.3929,2.48438 0.2097,0.58208 0.38397,1.35598 0.38728,1.71979 0.003,0.3638 0.24231,1.43536 0.53113,2.38125 0.69392,2.2726 0.66492,2.64729 -0.12077,1.56048 -1.08498,-1.5008 -1.48919,-2.63175 -1.92889,-5.39694 -0.2314,-1.45521 -0.59096,-2.84672 -0.79901,-3.09225 -0.36317,-0.42857 -0.54986,-4.13723 -0.234,-4.64831 0.25689,-0.41565 0.70033,-4.79096 0.81229,-8.01469 0.0378,-1.08911 0.20983,-2.24377 0.38223,-2.5659 0.1724,-0.32214 0.23866,-0.8837 0.14725,-1.24792 -0.16417,-0.65408 0.30398,-3.20139 0.68261,-3.71426 0.10743,-0.14552 0.26657,-0.80037 0.35364,-1.45521 0.31216,-2.34765 1.31051,-6.12191 2.00196,-7.56838 0.27096,-0.56682 0.57848,-1.4306 0.6834,-1.91951 0.10491,-0.48891 0.47608,-1.5341 0.82481,-2.32265 0.34873,-0.78854 0.63406,-1.66845 0.63406,-1.95534 0,-0.28689 0.11906,-0.52162 0.26458,-0.52162 0.14552,0 0.26459,-0.12036 0.26459,-0.26747 0,-0.1471 0.22052,-0.77218 0.49006,-1.38906 1.06832,-2.44506 1.6067,-3.79722 1.76342,-4.42889 0.0902,-0.3638 0.32798,-1.01864 0.52828,-1.45521 0.2003,-0.43656 0.74201,-1.68672 1.2038,-2.77812 0.46179,-1.09141 0.94136,-2.2225 1.0657,-2.51354 0.2355,-0.55122 0.90834,-2.43037 1.27893,-3.57188 0.22123,-0.68141 4.15021,-8.64886 5.40147,-10.95347 1.03854,-1.91278 0.98896,-2.02981 -0.98768,-2.33154 -0.6915,-0.10556 -1.16783,-0.89489 -0.7763,-1.28642 0.29814,-0.29814 1.61413,-0.0198 2.81919,0.59619 0.31757,0.16233 0.6069,0.14509 0.8422,-0.0502 0.27439,-0.22772 0.48667,-0.16924 0.90531,0.2494 1.12973,1.12973 3.45728,0.48043 3.45728,-0.96446 0,-0.57201 0.9173,-0.99446 1.43498,-0.66087 0.84764,0.54622 2.09697,0.78537 2.88465,0.55219 0.46186,-0.13672 1.25647,-0.22773 1.76579,-0.20223 0.50932,0.0255 1.34276,-0.0254 1.85208,-0.11301 0.74932,-0.12895 9.44411,-0.49532 11.50938,-0.48497 0.8834,0.004 3.66185,-0.51448 4.36562,-0.81533 0.6246,-0.26701 1.95929,-0.57793 3.90261,-0.90913 0.47294,-0.0806 0.85989,-0.0383 0.85989,0.0941 0,0.46621 -0.6433,0.87562 -1.37583,0.87562 -0.40746,0 -0.74084,0.11906 -0.74084,0.26458 0,0.14552 -0.33443,0.26458 -0.74318,0.26458 -0.40874,0 -0.97429,0.17481 -1.25677,0.38846 -0.28247,0.21365 -0.83398,0.39225 -1.22558,0.39688 -0.39159,0.005 -0.76932,0.10119 -0.8394,0.21458 -0.0701,0.11339 -0.94031,0.13115 -1.93385,0.0395 -1.06513,-0.0983 -2.63185,-0.0279 -3.81788,0.17147 -2.40665,0.40462 -5.35965,0.53635 -6.45521,0.28795 -0.67905,-0.15396 -2.57369,0.0146 -5.15937,0.45888 -0.36381,0.0625 -1.37584,0.23306 -2.24896,0.37898 -0.87313,0.14592 -1.98188,0.4662 -2.4639,0.71172 -0.529,0.26946 -1.2107,0.39426 -1.71979,0.31483 -0.47282,-0.0738 -1.22208,0.044 -1.70523,0.26805 -0.89602,0.41547 -3.50346,3.45071 -3.50423,4.07916 -2.4e-4,0.19765 -0.70573,1.75176 -1.56775,3.45358 -0.86202,1.70181 -2.47619,5.39275 -3.58704,8.20208 -1.11085,2.80933 -2.12784,5.30832 -2.25998,5.55332 -0.13214,0.245 -0.48429,1.16987 -0.78255,2.05527 -0.54063,1.60481 -0.54069,1.61206 -0.0197,2.33267 0.48167,0.66626 2.17214,5.25738 3.09135,8.39578 0.21311,0.7276 0.49354,1.56104 0.62318,1.85208 0.12964,0.29104 0.49383,1.42214 0.80932,2.51354 0.31548,1.09141 0.67286,2.28203 0.79415,2.64583 0.1213,0.36381 0.29698,1.04842 0.3904,1.52136 0.0934,0.47294 0.32511,0.85989 0.51485,0.85989 0.18975,0 0.43135,0.2679 0.53688,0.59532 0.36895,1.14465 1.21469,4.04601 1.56179,5.35781 0.19252,0.7276 0.89465,2.93026 1.56028,4.89479 0.66563,1.96453 1.45671,4.52438 1.75797,5.68854 0.72037,2.78382 1.52801,5.25244 3.0536,9.33352 0.39581,1.05885 0.78385,2.42807 0.8623,3.04271 0.0785,0.61464 0.30482,1.43903 0.50305,1.83199 0.46051,0.91284 0.46378,1.55754 0.007,1.38226 -0.49469,-0.18983 -1.23409,-1.83258 -1.23409,-2.74182 0,-0.41768 -0.30383,-1.63404 -0.67517,-2.703 -0.37135,-1.06897 -0.87143,-2.52692 -1.1113,-3.23989 -0.23987,-0.71298 -0.48009,-1.1644 -0.53384,-1.00318 -0.10401,0.31206 1.02229,4.97094 1.50305,6.21724 0.48523,1.25791 1.40342,7.91504 1.27683,9.25748 -0.0911,0.9659 -0.002,1.4182 0.37185,1.89381 0.27032,0.34367 0.4915,0.87396 0.4915,1.17843 0,0.66951 -0.70331,0.74078 -0.89358,0.0906 z m -3.60434,-21.74637 c 0,-0.13693 -0.11906,-0.32255 -0.26458,-0.41249 -0.14552,-0.0899 -0.26458,0.0221 -0.26458,0.24897 0,0.22687 0.11906,0.41249 0.26458,0.41249 0.14552,0 0.26458,-0.11203 0.26458,-0.24897 z m 4.23334,-64.69062 c 0,-0.0642 -0.11907,-0.19026 -0.26459,-0.2802 -0.14552,-0.0899 -0.26458,-0.0374 -0.26458,0.11668 0,0.15411 0.11906,0.2802 0.26458,0.2802 0.14552,0 0.26459,-0.0525 0.26459,-0.11668 z m -19.8022,86.1839 c -0.16838,-0.31461 -0.30614,-0.83974 -0.30614,-1.16695 0,-0.74829 -1.55191,-7.35249 -1.87096,-7.96193 -0.25673,-0.49041 -0.0402,-2.06126 0.28414,-2.06126 0.28638,0 0.71412,0.59454 0.76142,1.05833 0.13168,1.29124 0.23433,1.79183 0.49442,2.41118 0.15969,0.38026 0.22981,1.15417 0.15582,1.71979 -0.0992,0.75803 0.0446,1.41098 0.5469,2.48361 0.68414,1.461 0.82532,2.59245 0.44497,3.56598 -0.1998,0.5114 -0.21138,0.5103 -0.51057,-0.0487 z M 62.732653,214.8439 c -0.18116,-0.21828 -0.55117,-0.39687 -0.82225,-0.39687 -0.52154,0 -5.00703,-2.27117 -6.41504,-3.24816 -0.45787,-0.31771 -1.49255,-1.13241 -2.29927,-1.81045 -0.80673,-0.67803 -1.8502,-1.46596 -2.31884,-1.75096 -1.5406,-0.93689 -4.07381,-3.54126 -5.51044,-5.66524 -0.52671,-0.7787 -1.2959,-1.77474 -1.7093,-2.21342 -0.49738,-0.52778 -0.70468,-0.97722 -0.61279,-1.32859 0.0877,-0.33528 -0.15291,-0.93377 -0.65272,-1.62374 -0.43538,-0.60102 -0.92298,-1.58073 -1.08358,-2.17714 -0.1606,-0.59641 -0.38841,-1.08439 -0.50625,-1.08439 -0.42125,0 -1.1177,-2.28737 -1.36951,-4.49791 -0.14091,-1.23693 -0.33807,-2.42755 -0.43814,-2.64584 -0.10008,-0.21828 -0.31046,-1.23031 -0.46752,-2.24895 -0.32324,-2.09649 -0.0551,-3.57188 0.64921,-3.57188 0.64281,0 1.10973,0.55559 0.79034,0.94042 -0.52505,0.63265 -0.25898,5.6472 0.33949,6.3984 0.14345,0.18005 0.19766,0.49192 0.12048,0.69306 -0.0772,0.20113 0.0881,0.7413 0.36728,1.20039 0.27918,0.45908 0.5076,1.1299 0.5076,1.49071 0,0.36081 0.23813,1.10031 0.52917,1.64333 0.29104,0.54302 0.52917,1.17507 0.52917,1.40455 0,0.82748 1.24047,3.03838 2.97656,5.30513 0.40018,0.5225 0.7276,1.02277 0.7276,1.11171 0,0.7818 3.87269,4.99087 5.29167,5.75129 0.50932,0.27295 1.53359,1.06701 2.27615,1.76458 0.74256,0.69757 2.29037,1.85296 3.43958,2.56754 1.14921,0.71458 2.3276,1.50481 2.61864,1.75606 0.29104,0.25125 1.21378,0.83881 2.05052,1.3057 0.83675,0.46689 1.52136,0.95659 1.52136,1.08822 0,0.34217 -0.152,0.29691 -0.52917,-0.15755 z M 166.8823,214.24859 c 0.12376,-0.25466 0.24202,-1.23693 0.26281,-2.18281 0.0571,-2.59834 0.0665,-2.64584 0.52314,-2.64584 0.30585,0 0.36823,0.12995 0.22224,0.46302 -0.16326,0.37252 -0.36719,1.87457 -0.6286,4.63021 -0.0104,0.10914 -0.15062,0.19844 -0.31172,0.19844 -0.18827,0 -0.21252,-0.16538 -0.0679,-0.46302 z m -43.02035,-2.02277 c -0.13252,-0.34854 -0.3865,-0.68224 -0.56441,-0.74154 -0.2097,-0.0699 -0.26129,-0.35554 -0.14669,-0.81216 0.1332,-0.53069 0.29026,-0.66136 0.6371,-0.53004 1.0755,0.40722 1.74625,1.60273 1.26697,2.25819 -0.46651,0.63799 -0.90866,0.57333 -1.19297,-0.17445 z m 27.1397,-1.96285 c -0.0732,-0.11841 0.0282,-0.80302 0.22531,-1.52135 l 0.35837,-1.30605 0.0237,1.10284 c 0.013,0.60656 0.0959,1.29117 0.18426,1.52135 0.16734,0.43609 -0.53608,0.61666 -0.79161,0.20321 z m -33.05654,-8.72878 c -0.6011,-0.6642 -0.55779,-1.01853 0.14704,-1.20285 0.73842,-0.1931 1.0676,0.11827 0.953,0.90143 -0.11598,0.79258 -0.54834,0.91105 -1.10004,0.30142 z m 31.71446,-0.56263 c -0.20154,-0.3261 -0.11359,-0.36632 2.50225,-1.14411 2.6501,-0.78798 5.28726,-1.28386 7.67637,-1.44342 1.47076,-0.0982 1.81967,-0.0332 2.38125,0.44351 1.46908,1.24715 2.12778,1.93477 1.98766,2.0749 -0.0813,0.0813 -0.28874,0.007 -0.46095,-0.16524 -0.17219,-0.1722 -0.47581,-0.31309 -0.6747,-0.31309 -0.19888,0 -0.75186,-0.29766 -1.22882,-0.66146 -0.97075,-0.74042 -1.88848,-0.89221 -1.65089,-0.27306 0.2092,0.54516 -0.2983,0.78345 -0.79341,0.37255 -0.7877,-0.65373 -3.94468,-0.4096 -6.66506,0.51542 -2.72019,0.92495 -2.85327,0.95066 -3.0737,0.594 z m -71.448787,-1.07662 c 0.0899,-0.14552 0.21602,-0.26458 0.28019,-0.26458 0.0642,0 0.11668,0.11906 0.11668,0.26458 0,0.14552 -0.12609,0.26459 -0.2802,0.26459 -0.15411,0 -0.20661,-0.11907 -0.11667,-0.26459 z m 74.138597,-6.2177 c -0.10335,-0.29105 -0.26163,-0.70776 -0.35175,-0.92605 -0.13263,-0.32126 -0.0773,-0.31462 0.29018,0.0349 0.24971,0.23746 0.408,0.65418 0.35175,0.92604 -0.0965,0.46626 -0.11292,0.46429 -0.29018,-0.0349 z m 18.48007,-3.63803 c 0.11793,-0.61846 0.21351,-1.51143 0.2124,-1.98437 -0.001,-0.47294 0.0999,-0.8599 0.22456,-0.8599 0.46113,0 0.52771,0.85197 0.18671,2.38904 -0.39939,1.80026 -0.9579,2.20793 -0.62367,0.45523 z m -20.37272,-0.19843 -0.46747,-0.92604 0.58834,0.56775 c 0.32359,0.31226 0.53396,0.72898 0.46748,0.92604 -0.073,0.21624 -0.30621,-0.009 -0.58835,-0.56775 z m 22.77,0.57857 c -0.0863,-0.13971 0.0132,-0.39529 0.22123,-0.56794 0.20803,-0.17265 0.32913,-0.45403 0.26912,-0.62529 -0.14121,-0.40298 0.60403,-1.39132 0.85778,-1.13758 0.10643,0.10643 0.0779,0.27633 -0.0634,0.37756 -0.1413,0.10123 -0.29774,0.41784 -0.34764,0.70358 -0.12693,0.7269 -0.74815,1.55536 -0.93707,1.24967 z m -58.87952,-1.30618 c -0.99956,-1.91048 -1.48339,-2.70213 -2.40206,-3.93035 -2.09848,-2.80555 -2.60403,-4.07329 -1.62436,-4.07329 0.3342,0 0.77321,0.53106 1.367,1.65364 0.48109,0.90951 0.96156,1.71318 1.06772,1.78594 0.46846,0.32108 2.10086,3.08179 2.10847,3.56584 0.005,0.29436 0.18322,0.76632 0.39688,1.04879 0.49352,0.6525 0.49259,0.94162 -0.003,0.94162 -0.21532,0 -0.62509,-0.44648 -0.91061,-0.99219 z m 34.50731,-0.59531 c -0.0959,-0.43656 -0.2712,-0.79375 -0.38959,-0.79375 -0.11839,0 -0.28378,-0.17859 -0.36755,-0.39687 -0.23624,-0.61564 0.30346,-0.46761 0.72349,0.19843 0.53192,0.84346 0.77962,1.78594 0.46938,1.78594 -0.14376,0 -0.33984,-0.35719 -0.43573,-0.79375 z m 3.79471,-2.90892 c -0.39396,-0.89003 -0.43186,-0.90387 -1.43323,-0.52314 -0.57335,0.21798 -0.81706,0.18036 -1.22539,-0.18917 -0.45345,-0.41037 -0.46442,-0.49437 -0.0994,-0.76129 0.22566,-0.165 0.33647,-0.37384 0.24624,-0.46407 -0.0902,-0.0902 0.41967,-0.0949 1.13311,-0.0104 1.04883,0.12421 1.77755,-0.0142 3.8062,-0.7227 2.33807,-0.81662 2.74697,-0.87722 6.00147,-0.88945 2.45642,-0.009 3.59057,0.085 3.82322,0.3176 0.18193,0.1819 0.72369,0.33073 1.20391,0.33073 0.48022,0 0.87312,0.0893 0.87312,0.19844 -1e-5,0.27891 -6.42416,0.087 -7.54062,-0.22524 -0.73932,-0.20678 -4.90472,1.04971 -5.50042,1.65919 -0.26032,0.26635 -0.66097,0.48428 -0.89032,0.48428 -0.3776,0 -0.37691,0.0612 0.007,0.64766 0.23341,0.35621 0.31691,0.71408 0.18557,0.79525 -0.13134,0.0812 -0.39721,-0.21028 -0.59082,-0.64766 z m 8.9254,-0.7291 c 0.22958,-1.2915 0.52037,-1.58032 0.892,-0.88594 0.24051,0.44941 0.20618,0.68839 -0.17393,1.21071 -0.67639,0.92946 -0.92133,0.81867 -0.71807,-0.32477 z m 14.60477,-0.11235 c -0.10822,-0.32467 0.4353,-2.66658 0.72926,-3.14222 0.0933,-0.15089 0.0452,-0.42415 -0.10674,-0.60725 -0.35325,-0.42564 -0.0821,-1.49599 0.37892,-1.49599 0.19308,0 0.56495,-0.36209 0.82637,-0.80465 0.26143,-0.44255 0.77417,-0.87692 1.13944,-0.96528 0.64703,-0.15651 1.77514,-1.20527 2.56857,-2.38791 0.25837,-0.38511 0.4283,-1.4734 0.49575,-3.175 0.12308,-3.10509 0.53366,-5.88722 1.09422,-7.41458 0.28698,-0.78193 0.35616,-1.50274 0.22854,-2.38125 -0.10067,-0.69293 -0.20561,-1.58872 -0.2332,-1.99065 -0.0311,-0.4524 -0.34784,-0.96824 -0.83159,-1.35415 -0.77581,-0.6189 -0.77716,-0.62473 -0.18738,-0.81192 0.39088,-0.12406 0.5504,-0.33959 0.46644,-0.63022 -0.0702,-0.24293 -0.26282,-0.97746 -0.42808,-1.63231 -0.6448,-2.55501 -1.12201,-3.57937 -2.19154,-4.70425 -1.31047,-1.3783 -3.94922,-2.70347 -5.38748,-2.70556 -0.55855,-7.9e-4 -1.47004,-0.12768 -2.02553,-0.28193 -0.55549,-0.15425 -3.65111,-0.32185 -6.87916,-0.37244 -3.22806,-0.0506 -6.20895,-0.17808 -6.62422,-0.28332 -0.6247,-0.15831 -0.85306,-0.0699 -1.32292,0.51198 -0.4713,0.58371 -0.87816,0.74008 -2.39232,0.91947 -1.69932,0.20132 -2.26089,0.4965 -2.59779,1.36549 -0.0416,0.10737 -0.87903,0.24493 -1.86089,0.30569 -2.04583,0.12661 -2.0155,-0.0127 0.15785,-0.72522 l 1.54764,-0.50736 -0.1334,-0.99456 c -0.0734,-0.547 -0.0434,-1.05015 0.0665,-1.11811 0.10995,-0.0679 0.598,0.17015 1.08455,0.52912 0.48655,0.35897 1.17056,0.65267 1.52002,0.65267 0.82375,0 2.13123,-0.77692 2.32269,-1.38017 0.0824,-0.25955 0.23106,-0.48012 0.33039,-0.49014 0.0993,-0.01 0.49787,-0.0604 0.88562,-0.11184 0.38776,-0.0515 0.90257,0.0508 1.14402,0.22741 0.54864,0.40117 2.31918,0.23748 2.07878,-0.19219 -0.10083,-0.18022 -0.0253,-0.16865 0.18733,0.0287 0.48659,0.45165 1.04423,0.41632 1.04423,-0.0661 0,-0.45036 0.55616,-0.52863 0.95096,-0.13383 0.3011,0.3011 0.74693,0.33335 3.67925,0.26615 1.16417,-0.0267 2.2655,-0.17124 2.4474,-0.32125 0.22778,-0.18784 0.33073,-0.18622 0.33073,0.005 0,0.15286 0.6608,0.3605 1.46845,0.46141 0.80764,0.10091 1.61132,0.32406 1.78594,0.4959 0.17461,0.17184 1.18069,0.47413 2.23572,0.67176 1.05502,0.19763 1.91822,0.43893 1.91822,0.53624 0,0.0973 0.58066,0.44888 1.29036,0.78128 1.81327,0.84929 2.86236,2.80549 4.00104,7.46056 0.81835,3.34551 0.85512,3.70453 0.68638,6.70088 -0.0998,1.77249 -0.30322,3.2432 -0.46214,3.34141 -0.18186,0.1124 -0.18853,0.21071 -0.0186,0.27361 0.16985,0.0628 0.18548,0.57408 0.0434,1.42109 -0.25262,1.50647 -0.76066,4.60979 -0.96375,5.88698 -0.0752,0.47294 -0.2498,0.85989 -0.38798,0.85989 -0.13819,0 -0.17811,0.11836 -0.0887,0.26303 0.0894,0.14466 -0.14169,0.66192 -0.51355,1.14945 -0.37187,0.48754 -0.67644,0.99425 -0.67683,1.12604 -2.6e-4,0.13178 -0.44037,0.47773 -0.97772,0.76877 -1.12719,0.61051 -2.20025,2.29052 -2.70392,4.23334 -0.18864,0.7276 -0.3978,1.53127 -0.46481,1.78593 -0.13898,0.52823 -0.52079,0.61436 -0.67483,0.15224 z M 30.571973,179.60642 c -0.70997,-0.37794 -1.51196,-0.96826 -1.78221,-1.31182 -0.27024,-0.34356 -0.66196,-0.62466 -0.8705,-0.62466 -0.62508,0 -4.49826,-4.0307 -6.64947,-6.9199 l -1.11383,-1.49595 0.26894,-1.66998 c 0.29195,-1.81288 0.58563,-2.34958 1.28564,-2.34958 0.75021,0 0.77996,0.23731 0.23283,1.85746 -0.49926,1.47838 -0.50294,1.59815 -0.0766,2.49662 0.24631,0.51905 0.78335,1.22605 1.19343,1.57111 0.41008,0.34506 1.16035,1.26641 1.66728,2.04745 0.50693,0.78104 1.25851,1.72162 1.67019,2.09019 1.94835,1.74432 4.77687,3.91615 5.31258,4.07917 0.32742,0.0996 0.59531,0.28517 0.59531,0.4123 0,0.52198 -0.51151,0.46817 -1.7336,-0.18241 z m 2.662,0.48052 c 0.14681,-0.15322 1.03292,-0.35014 1.96914,-0.4376 0.93621,-0.0875 1.79013,-0.21335 1.89759,-0.27977 0.10746,-0.0664 0.26509,-0.008 0.35028,0.12986 0.24396,0.39473 -0.1268,0.50236 -2.378,0.69028 -1.47155,0.12285 -2.02554,0.0919 -1.83901,-0.10277 z m -0.39923,-1.05812 c 0,-0.1653 0.29765,-0.30054 0.66145,-0.30054 0.37854,0 0.66146,-0.15261 0.66146,-0.35678 0,-0.24703 0.70104,-0.45485 2.27893,-0.67559 1.25341,-0.17534 2.32785,-0.26988 2.38764,-0.21009 0.26741,0.26741 -0.90627,0.87319 -2.25966,1.1663 -2.76209,0.5982 -3.72982,0.69594 -3.72982,0.3767 z m 7.5613,-1.35416 c -0.57071,-0.0754 -1.08375,-0.27717 -1.14011,-0.44848 -0.0758,-0.23038 1.11336,-0.31813 4.56753,-0.33702 3.67347,-0.0201 4.64607,0.0464 4.5579,0.31147 -0.0616,0.18536 -0.45946,0.36987 -0.88404,0.41001 -1.63253,0.15436 -6.11126,0.19473 -7.10128,0.064 z m 9.55665,-0.43746 c -0.10154,-0.10154 -0.18462,-0.34337 -0.18462,-0.5374 0,-0.25185 0.4226,-0.35277 1.47725,-0.35277 1.06433,0 1.44639,0.0924 1.36682,0.33073 -0.0607,0.1819 -0.45763,0.34333 -0.88195,0.35874 -0.42432,0.0154 -0.95631,0.1084 -1.18219,0.20666 -0.22588,0.0983 -0.49377,0.0956 -0.59531,-0.006 z m 6.16538,-0.0539 c 0,-0.57608 4.11345,-3.69018 4.44131,-3.36231 0.20521,0.2052 -1.02102,1.46771 -1.42552,1.46771 -0.18235,0 -0.57971,0.31549 -0.88302,0.70109 -0.30331,0.38559 -0.86135,0.86184 -1.24008,1.05833 -0.80641,0.41837 -0.89269,0.43144 -0.89269,0.13518 z m 7.31776,-2.09303 c 0.0901,-0.69123 0.26646,-1.45731 0.39182,-1.7024 0.12535,-0.2451 0.22974,-0.78088 0.23197,-1.19063 0.002,-0.40975 0.11482,-0.92014 0.2502,-1.13421 0.44784,-0.70814 0.59557,-0.0647 0.30075,1.31002 -0.15973,0.74481 -0.29042,1.75532 -0.29042,2.24558 0,1.14942 -0.22936,1.72841 -0.6847,1.72841 -0.28027,0 -0.32598,-0.28778 -0.19962,-1.25677 z m 25.13779,0.55121 c -0.097,-0.097 -0.17639,-0.43175 -0.17639,-0.74386 0,-0.31211 -0.20836,-0.80434 -0.46302,-1.09385 -0.43568,-0.49531 -0.83335,-1.11595 -1.50671,-2.35152 -0.54073,-0.99222 -1.31326,-2.11544 -2.05354,-2.98577 -0.40657,-0.47801 -0.73923,-0.97878 -0.73923,-1.11284 0,-0.13405 -0.3622,-0.85803 -0.80489,-1.60884 -1.5275,-2.59064 -3.3685,-6.20198 -3.69957,-7.25714 -0.18264,-0.58208 -0.72385,-1.83224 -1.20269,-2.77812 -1.35057,-2.66788 -2.89886,-6.08968 -3.83098,-8.46667 -0.84522,-2.15539 -0.94072,-2.41588 -1.30952,-3.57187 -0.1857,-0.58209 -0.46017,-1.35599 -0.60993,-1.71979 -0.27747,-0.67406 -0.91122,-3.00816 -2.1418,-7.88821 -0.37846,-1.50086 -0.68812,-3.4286 -0.68812,-4.28387 0,-0.85526 -0.10161,-1.61783 -0.22581,-1.69459 -0.1242,-0.0768 -0.30788,-0.94699 -0.40819,-1.93384 -0.23106,-2.2733 -0.37449,-3.43921 -0.54622,-4.44012 -0.19027,-1.10905 -0.46578,-4.80124 -0.45978,-6.16185 0.005,-1.0443 -0.0406,-1.12005 -0.56656,-0.95013 -0.92608,0.29917 -3.16332,0.15139 -4.1877,-0.27662 -0.5226,-0.21836 -1.31276,-0.70211 -1.75592,-1.07499 -0.78664,-0.66192 -0.80978,-0.66519 -0.97703,-0.13825 -0.0942,0.29685 -0.28207,0.47128 -0.41745,0.3876 -0.13539,-0.0837 -0.75189,0.20453 -1.37001,0.64044 -1.59703,1.12624 -2.59666,1.16107 -3.47186,0.12096 -0.77567,-0.92184 -0.91868,-2.21836 -0.30121,-2.73082 0.67224,-0.55791 1.28176,-0.1109 1.09846,0.80559 -0.11127,0.55636 -0.0606,0.7843 0.16618,0.74795 0.17943,-0.0288 0.52538,0.0352 0.76879,0.14218 0.29151,0.1281 0.63653,5.3e-4 1.01085,-0.37381 0.4138,-0.41379 0.83294,-0.54875 1.54182,-0.49643 0.63449,0.0468 0.9514,-0.0361 0.91001,-0.23802 -0.0349,-0.17043 0.17068,-0.43521 0.45692,-0.5884 0.61069,-0.32683 1.50823,0.11441 1.74404,0.85738 0.0858,0.27029 0.40911,0.46368 0.77518,0.46368 0.34541,0 0.7016,0.11906 0.79154,0.26458 0.21306,0.34474 3.22652,0.34474 3.43958,0 0.0899,-0.14552 0.80431,-0.26458 1.5875,-0.26458 0.78319,0 1.49756,0.11906 1.5875,0.26458 0.0899,0.14552 0.24579,0.26444 0.34634,0.26426 0.32045,-5.3e-4 1.53588,-1.17285 1.71418,-1.65332 0.0945,-0.25466 0.30409,-0.46302 0.46574,-0.46302 0.48064,0 0.002,1.64418 -0.69466,2.388 -0.34439,0.36751 -0.66612,0.92999 -0.71495,1.24995 -0.14157,0.92767 -0.37878,0.9713 -1.25807,0.23143 -1.32679,-1.11642 -1.47154,-0.96227 -1.39772,1.48843 0.0586,1.94666 0.49527,6.02048 0.75859,7.07761 0.0544,0.21828 0.0394,-1.50664 -0.0333,-3.83317 -0.0902,-2.88936 -0.0461,-4.14406 0.13915,-3.95878 0.51313,0.51314 1.05205,10.62049 0.54972,10.31004 -0.1635,-0.10105 -0.27786,-0.38153 -0.25414,-0.6233 0.0817,-0.83261 -0.0183,-1.39656 -0.22493,-1.26885 -0.11392,0.0704 -0.12239,1.0597 -0.0188,2.19843 0.10357,1.13873 0.19677,3.02619 0.20713,4.19436 0.012,1.35052 0.15188,2.31398 0.38423,2.64583 0.20098,0.28704 0.62213,1.59346 0.93589,2.90314 0.31376,1.30969 0.67161,2.73844 0.79522,3.175 0.12361,0.43657 0.48778,1.80579 0.80926,3.04271 0.32148,1.23693 0.82978,2.9038 1.12955,3.70417 0.77074,2.05778 2.57937,5.82083 2.79766,5.82083 0.10076,0 0.45576,0.75997 0.78888,1.68882 0.33312,0.92884 0.83807,2.14464 1.12211,2.70177 0.28404,0.55713 0.51644,1.15442 0.51644,1.32731 0,0.17289 0.39776,0.90541 0.88391,1.62783 0.48616,0.72243 0.95519,1.49923 1.0423,1.72625 0.0871,0.22701 0.49303,0.91759 0.90203,1.53463 1.24212,1.87392 1.84824,2.92459 2.97024,5.14868 0.59079,1.17108 1.4139,2.48077 1.82915,2.91041 0.41525,0.42965 0.97323,1.35866 1.23997,2.06448 0.26673,0.70582 0.70236,1.41907 0.96806,1.585 0.6468,0.40394 0.64536,1.49732 -0.002,1.49732 -0.26679,0 -0.56445,-0.0794 -0.66146,-0.17639 z m -26.43998,-2.271 c -0.37129,-0.28192 -0.39536,-0.52599 -0.16312,-1.65365 0.14985,-0.7276 0.44656,-1.70737 0.65936,-2.17725 0.93854,-2.07242 1.18632,-3.13147 1.01958,-4.35788 -0.093,-0.6839 -0.3373,-1.38309 -0.54293,-1.55375 -0.20563,-0.17066 -0.37388,-0.41959 -0.37388,-0.55319 0,-0.35988 -1.02939,-1.76582 -2.38995,-3.26418 -1.78998,-1.97128 -2.53466,-3.05704 -2.90345,-4.23333 -0.1825,-0.58209 -0.4196,-1.1774 -0.52691,-1.32292 -0.10729,-0.14552 -0.40151,-0.8972 -0.6538,-1.67039 -0.31093,-0.95292 -0.64666,-1.47727 -1.04211,-1.62762 -1.07954,-0.41045 -2.2315,-1.56743 -2.09194,-2.10109 0.0719,-0.27496 -0.0106,-0.76393 -0.18325,-1.0866 -0.25286,-0.47249 -0.47769,-0.56012 -1.15502,-0.4502 -0.51073,0.0829 -1.0442,-0.0121 -1.3583,-0.24175 -0.31443,-0.22991 -0.79988,-0.31615 -1.23798,-0.21993 -0.3964,0.0871 -1.45013,-0.0286 -2.34163,-0.25696 -1.97787,-0.5067 -2.31335,-0.51157 -3.20481,-0.0464 -0.56986,0.29733 -0.76736,0.30233 -1.05833,0.0268 -0.7602,-0.71994 -1.41119,-0.67127 -2.74629,0.20531 -0.72358,0.47508 -1.86147,1.18256 -2.52864,1.57218 -0.66717,0.38962 -1.63768,1.22093 -2.1567,1.84736 -0.51902,0.62642 -2.12481,2.33197 -3.56842,3.7901 -1.44362,1.45813 -2.73529,2.82906 -2.87038,3.04651 -0.1351,0.21744 -0.87543,0.9147 -1.64518,1.54945 -0.76975,0.63476 -1.59003,1.52602 -1.82285,1.98058 -0.23282,0.45457 -0.50171,0.88601 -0.59753,0.95877 -0.0958,0.0728 -0.50095,0.69784 -0.90028,1.38906 -0.39933,0.69123 -0.83047,1.25677 -0.95809,1.25677 -0.12762,0 -0.2355,-0.72345 -0.23973,-1.60767 -0.007,-1.52634 0.0335,-1.63007 0.80674,-2.05052 0.44794,-0.24357 1.18592,-0.85722 1.63995,-1.36367 0.45403,-0.50646 1.19705,-1.30662 1.65115,-1.77815 2.12308,-2.20452 2.48165,-2.73763 2.48165,-3.68968 0,-0.93883 0.007,-0.94491 0.9295,-0.77191 0.75156,0.141 0.96312,0.0833 1.10518,-0.30128 0.0966,-0.26161 0.2577,-0.53519 0.35795,-0.60795 1.07378,-0.77934 3.37653,-3.04455 3.27009,-3.21678 -0.0757,-0.12254 0.16698,-0.2228 0.53937,-0.2228 0.61074,0 0.81104,-0.25101 0.70185,-0.87956 -0.0208,-0.11996 0.085,-0.14218 0.23512,-0.0494 0.15016,0.0928 0.3456,-0.0205 0.43433,-0.25167 0.12184,-0.31752 0.24779,-0.34864 0.51465,-0.12717 0.49352,0.40959 1.66569,-0.46012 1.86931,-1.38697 0.14908,-0.67858 0.22047,-0.70654 1.5946,-0.62461 0.90571,0.054 1.63012,0.25917 1.95582,0.55392 0.41757,0.3779 0.63946,0.41249 1.15105,0.17939 0.34856,-0.15882 0.88386,-0.22335 1.18955,-0.14341 0.38587,0.10091 0.5558,0.0216 0.5558,-0.25958 0,-0.35378 0.16475,-0.3447 1.30456,0.0719 0.79353,0.29005 1.80407,0.44254 2.57969,0.38927 0.77743,-0.0534 1.49433,0.0552 1.83676,0.27814 0.3089,0.20114 0.81555,0.29931 1.12589,0.21815 0.80824,-0.21136 1.27258,0.29392 1.46806,1.59751 0.14827,0.98871 0.29029,1.18342 1.09281,1.49831 1.19008,0.46695 1.59644,0.95449 1.81581,2.17857 0.10083,0.56265 0.89906,2.05722 1.83979,3.44471 0.91392,1.34798 1.61789,2.58222 1.56437,2.74277 -0.0535,0.16055 0.1399,0.35394 0.42982,0.42975 1.23914,0.32404 4.90623,7.31636 4.31903,8.23543 -0.17582,0.2752 -1.06666,3.25953 -1.23269,4.12952 -0.0417,0.21828 -0.16354,0.75406 -0.27087,1.19062 -0.48029,1.95366 -0.50093,1.97616 -1.27413,1.38907 z m 77.680427,-6.43701 c -0.38088,-0.99256 0.5769,-6.95764 1.15263,-7.17856 0.58086,-0.2229 0.96872,0.29738 0.65929,0.88437 -0.55398,1.05093 -0.88022,2.69287 -0.92593,4.66025 -0.034,1.4644 -0.14439,2.0497 -0.38665,2.05052 -0.18647,5.3e-4 -0.41117,-0.18683 -0.49934,-0.41658 z m 2.1851,-8.27498 c -0.10408,-0.16841 -0.0681,-0.69246 0.08,-1.16456 0.75552,-2.40819 1.08715,-3.64952 1.09081,-4.08307 0.0133,-1.57904 1.27871,-1.27848 1.8453,0.43832 0.41466,1.25642 0.0834,1.94711 -0.6442,1.34324 -0.34663,-0.28767 -0.48128,-0.15746 -0.93726,0.90628 -0.29286,0.68321 -0.53247,1.38817 -0.53247,1.56658 0,0.57215 -0.69179,1.3337 -0.90223,0.99321 z m 12.94077,-11.6802 c -0.0899,-0.14552 0.0151,-0.26458 0.23335,-0.26458 0.21829,0 0.47046,0.11906 0.5604,0.26458 0.0899,0.14552 -0.0151,0.26458 -0.23335,0.26458 -0.21829,0 -0.47046,-0.11906 -0.5604,-0.26458 z m 1.38906,0.0893 c 0.1819,-0.0734 0.47956,-0.0734 0.66146,0 0.1819,0.0734 0.0331,0.13346 -0.33073,0.13346 -0.3638,0 -0.51263,-0.0601 -0.33073,-0.13346 z m 4.0349,-0.66274 c 0,-0.1212 0.17859,-0.22036 0.39687,-0.22036 0.21828,0 0.45641,0 0.52917,0 0.0728,0 0.10253,0.0838 0.0662,0.18625 -0.0948,0.26698 -0.99219,0.29783 -0.99219,0.0341 z m -76.849067,-5.93594 c -0.0983,-0.52419 -0.11159,-1.02028 -0.0294,-1.10243 0.22807,-0.22807 0.32528,-0.018 0.49215,1.06332 0.19603,1.27037 -0.22504,1.30596 -0.4627,0.0391 z m 29.620937,-6.98442 c 0.0899,-0.14552 0.21603,-0.26458 0.2802,-0.26458 0.0642,0 0.11668,0.11906 0.11668,0.26458 0,0.14552 -0.12609,0.26458 -0.2802,0.26458 -0.15411,0 -0.20661,-0.11906 -0.11668,-0.26458 z m 47.57787,-7.22002 c -0.0734,-0.11882 0.23455,-0.35496 0.68441,-0.52476 0.44986,-0.16981 0.81793,-0.39611 0.81793,-0.5029 0,-0.10679 0.4259,-0.39626 0.94643,-0.64327 1.50068,-0.71212 7.78482,-6.6552 7.78482,-7.3623 0,-0.065 0.34299,-0.49378 0.76219,-0.95274 0.46336,-0.50732 0.82866,-1.26578 0.93173,-1.93456 0.0932,-0.60504 0.2203,-1.4231 0.28234,-1.81792 0.062,-0.39482 0.30238,-1.27625 0.53409,-1.95874 0.59005,-1.73794 0.81277,-3.54112 0.43739,-3.54112 -0.16456,0 -0.54625,-0.5256 -0.84821,-1.168 -0.50885,-1.08252 -0.51915,-1.22577 -0.14068,-1.95764 0.32082,-0.62039 0.36312,-1.16538 0.19734,-2.54241 -0.16034,-1.33188 -0.12759,-1.821986 0.1364,-2.041082 0.42109,-0.349475 0.21238,-0.788406 -0.28426,-0.597824 -0.23947,0.09189 -0.41173,-0.160549 -0.52631,-0.771286 -0.20195,-1.076532 -0.78236,-1.800038 -1.90964,-2.380462 -0.45347,-0.233487 -1.10831,-0.662652 -1.45521,-0.953696 -0.34689,-0.291044 -1.21734,-1.02258 -1.93433,-1.625634 -0.717,-0.603054 -1.69926,-1.285129 -2.18282,-1.515719 -0.48355,-0.230592 -0.87919,-0.500676 -0.87919,-0.600188 0,-0.09951 -0.70358,-0.622068 -1.56352,-1.161238 -0.92213,-0.578162 -1.68827,-1.281472 -1.86762,-1.71445 -0.16851,-0.406813 -0.79854,-1.009891 -1.41304,-1.352592 -0.60991,-0.340148 -1.91383,-1.132049 -2.89758,-1.759781 -0.98376,-0.627734 -1.91899,-1.141333 -2.0783,-1.141333 -0.15931,0 -0.78317,-0.331224 -1.38636,-0.736055 -1.55375,-1.042802 -3.91165,-2.013717 -4.1102,-1.692463 -0.0895,0.144807 -0.60561,0.346372 -1.14693,0.447924 -0.85765,0.160896 -1.12451,0.07353 -2.07514,-0.679389 -1.24188,-0.983583 -4.50768,-2.155603 -7.30387,-2.621185 -1.07483,-0.178967 -1.95586,-0.467384 -2.03174,-0.66512 -0.0737,-0.192021 -1.68885,-0.846796 -3.58926,-1.455052 -1.90041,-0.608259 -3.51815,-1.207624 -3.59497,-1.331926 -0.26117,-0.422584 0.35746,-0.535868 1.50382,-0.275381 0.62879,0.142881 1.93857,0.435555 2.91061,0.650388 0.97205,0.214832 2.34127,0.653831 3.04271,0.975551 0.70144,0.321723 1.9302,0.794131 2.73056,1.049798 1.67375,0.534657 3.07602,1.024419 3.83646,1.339934 2.11813,0.878832 2.20653,0.905931 3.70316,1.135116 1.45772,0.223229 5.12577,1.199247 5.55726,1.478708 0.14552,0.09425 0.85989,0.389308 1.5875,0.655683 0.7276,0.266374 1.38244,0.555101 1.45521,0.641617 0.11846,0.140864 1.31687,0.923594 2.77812,1.814512 0.29104,0.177446 1.00542,0.563071 1.5875,0.856941 0.58208,0.293873 1.46142,0.88987 1.95408,1.324438 0.49266,0.43457 1.02845,0.791411 1.19063,0.79298 0.53797,0.0052 2.54354,2.143262 2.55991,2.729021 0.01,0.352009 0.4687,0.93496 1.18187,1.50146 1.29044,1.025059 2.01549,1.628912 3.25005,2.70679 0.45509,0.397328 0.99535,0.657979 1.20057,0.579229 0.40962,-0.157186 1.26872,0.800499 1.80508,2.012222 0.18651,0.421341 0.58003,0.800587 0.8745,0.842772 0.53441,0.07655 0.56149,0.269579 0.32621,2.325652 -0.025,0.21828 0.0517,1.73755 0.1705,3.37616 0.18483,2.55014 0.28998,3.01891 0.73003,3.25442 0.30754,0.16459 0.43427,0.40268 0.3154,0.59259 -0.10928,0.1746 -0.22664,0.85324 -0.2608,1.50808 -0.10836,2.0773 -1.01123,5.62105 -1.88749,7.40833 -0.30206,0.61612 -0.63824,0.92604 -1.00448,0.92604 -0.36862,0 -0.98994,0.58004 -1.88083,1.75586 -0.7317,0.96572 -2.61091,3.00879 -4.17602,4.54014 -2.64569,2.58862 -2.92855,2.79087 -4.02508,2.87808 -0.64869,0.0516 -1.2395,-0.003 -1.31293,-0.12222 z m 13.72339,-15.66644 c 0.0595,-0.50932 0.013,-0.92604 -0.10334,-0.92604 -0.1163,0 -0.21308,0.14883 -0.21507,0.33073 -0.002,0.1819 -0.0754,0.59862 -0.16315,0.92604 -0.0881,0.32893 -0.0403,0.59531 0.10695,0.59531 0.14658,0 0.31515,-0.41672 0.37461,-0.92604 z m -0.3148,-5.54063 c 0,-0.50074 -0.11906,-0.98401 -0.26458,-1.07395 -0.15979,-0.0988 -0.26459,0.26184 -0.26459,0.91042 0,0.59068 0.11907,1.07395 0.26459,1.07395 0.14552,0 0.26458,-0.40969 0.26458,-0.91042 z m -156.236447,5.08379 c -0.58209,-0.14173 -2.84427,-0.67913 -5.02709,-1.19424 -5.1956197,-1.22608 -7.8051997,-2.60513 -7.8051997,-4.12472 0,-0.35293 -0.1786,-0.78992 -0.39688,-0.97107 -0.84575,-0.70191 -0.33959,-1.87446 0.94874,-2.19781 0.37341,-0.0937 1.05576,-0.53052 1.51633,-0.97067 0.46057,-0.44015 0.98047,-0.800272 1.15532,-0.800272 0.17484,0 1.27726,-0.992915 2.4497997,-2.206479 2.23864,-2.316954 2.92595,-2.820604 3.84921,-2.820604 0.30881,0 0.90845,-0.379886 1.33252,-0.844193 0.46559,-0.509752 1.0624,-0.864709 1.50644,-0.895972 0.75745,-0.05333 5.48956,-2.332233 6.11191,-2.943389 0.1922,-0.188735 0.90577,-0.669184 1.58573,-1.067665 0.86825,-0.508825 1.09897,-0.750953 0.77504,-0.813337 -0.25369,-0.04886 -0.46125,-0.196183 -0.46125,-0.327395 0,-0.131215 0.32742,-0.177396 0.72761,-0.102624 0.82677,0.154474 2.44739,-0.708888 2.44739,-1.303811 0,-0.202766 0.36347,-0.519216 0.8077,-0.703223 0.48883,-0.202483 1.01321,-0.73741 1.32829,-1.355016 0.34362,-0.673547 0.70155,-1.020458 1.05289,-1.020458 0.88508,0 2.37905,-0.742725 3.46206,-1.721165 0.56293,-0.508566 1.18281,-0.924668 1.37751,-0.924668 0.1947,0 0.83784,-0.446485 1.42919,-0.992188 1.47524,-1.361368 2.40377,-2.033355 3.9272,-2.842159 0.95584,-0.507468 1.45717,-0.999075 1.89556,-1.858804 0.59495,-1.166746 1.16551,-1.354622 1.49626,-0.492691 0.19074,0.497062 0.69689,0.224382 2.24063,-1.207106 0.63686,-0.590545 1.3295,-1.073719 1.53921,-1.073719 0.28537,0 0.36016,-0.282898 0.29729,-1.124479 -0.0723,-0.96805 -0.008,-1.135367 0.46333,-1.202738 0.37339,-0.05339 0.64485,0.135793 0.85422,0.595313 0.39399,0.864719 0.72428,0.850889 1.2904,-0.05403 0.25035,-0.400183 0.48924,-0.775229 0.53086,-0.833438 0.0416,-0.05821 0.4646,-0.117739 0.93997,-0.132291 0.57806,-0.0177 0.83937,-0.145064 0.78903,-0.384588 -0.0414,-0.196972 -10e-4,-0.59214 0.0898,-0.878155 0.14346,-0.452001 0.20522,-0.467865 0.47215,-0.121272 0.32328,0.419757 1.76231,0.314831 1.76231,-0.128497 0,-0.128556 0.1786,-0.233738 0.39688,-0.233738 0.21828,0 0.39687,-0.1915 0.39687,-0.425559 0,-0.310867 0.16259,-0.384749 0.60329,-0.274143 0.7922,0.19883 1.82825,-0.08177 1.6928,-0.458464 -0.19208,-0.534168 0.60936,-1.740921 1.26556,-1.905619 0.89593,-0.224862 1.17406,0.0249 1.36626,1.226883 0.13814,0.863883 0.27142,1.043152 0.77555,1.043152 0.33481,0 0.78734,-0.178594 1.00562,-0.396875 0.21828,-0.218282 0.58989,-0.396875 0.82579,-0.396875 0.2359,0 0.78888,-0.186145 1.22884,-0.413655 0.47934,-0.247878 1.09073,-0.349785 1.52557,-0.254278 0.50962,0.111932 0.92983,-0.0013 1.41148,-0.380092 0.9927,-0.78086 3.11591,-0.690597 3.11591,0.132461 0,0.473106 0.64669,0.620691 2.36641,0.540056 1.59457,-0.07477 2.88215,0.241697 4.18203,1.027867 0.83004,0.502007 1.20531,1.11896 0.52917,0.869958 -3.62281,-1.334156 -4.80913,-1.587169 -6.07347,-1.295323 -1.08868,0.251296 -1.39531,0.231425 -1.9404,-0.12573 -0.42297,-0.277141 -0.94616,-0.372219 -1.50921,-0.274273 -3.10364,0.539898 -4.77412,0.955593 -5.34608,1.330352 -0.93938,0.615508 -2.18451,0.563888 -2.395,-0.09929 -0.0924,-0.291198 -0.3949,-0.65086 -0.67217,-0.799251 -0.41929,-0.224399 -0.70656,-0.07024 -1.70701,0.916046 -0.67967,0.670049 -1.36128,1.125066 -1.56704,1.046106 -0.57882,-0.222109 -3.62599,1.455084 -4.64732,2.557931 -0.51225,0.553133 -1.72012,1.413129 -2.68415,1.911107 -0.96402,0.497977 -2.15465,1.199975 -2.64583,1.559996 -0.49118,0.360024 -1.66696,0.990441 -2.61284,1.400929 -2.00134,0.868529 -3.82504,2.036104 -4.7625,3.049082 -0.36381,0.393105 -1.25678,1.106961 -1.98438,1.586349 -0.7276,0.479388 -1.6801,1.198407 -2.11667,1.597819 -0.43656,0.399415 -1.0914,0.812691 -1.4552,0.918395 -0.82495,0.239691 -1.62432,0.83624 -4.74488,3.540961 -1.36179,1.180333 -2.60923,2.146059 -2.77208,2.146059 -0.50743,0 -2.2709,1.042305 -3.98078,2.352858 -0.98124,0.752078 -2.16306,1.391377 -2.94243,1.591699 -2.16337,0.556048 -3.30376,1.14137 -3.69399,1.895998 -0.20383,0.394161 -0.73195,0.842624 -1.17359,0.996583 -1.30229,0.45398 -3.44313,1.998853 -5.51937,3.982897 -1.7081897,1.632324 -3.0225997,2.496774 -4.6077797,3.030404 -0.50323,0.16941 -0.6236,0.83575 -0.19844,1.09852 0.14552,0.0899 0.26459,0.34359 0.26459,0.56368 0,0.40411 0.60651,1.15611 0.93244,1.15611 0.0971,0 0.49253,0.2225 0.8788,0.49445 0.38626,0.27195 0.99995,0.57382 1.36376,0.67082 0.3638,0.097 1.2567697,0.34375 1.9843697,0.54833 4.01229,1.12812 8.28724,1.9813 9.92188,1.98017 1.5832,-0.001 9.24621,-1.91978 9.53526,-2.38746 0.0986,-0.15948 0.94025,-0.38831 1.87041,-0.5085 0.93016,-0.1202 2.22698,-0.34128 2.88183,-0.49128 0.65484,-0.15001 2.31221,-0.34537 3.68304,-0.43413 1.37083,-0.0888 2.56145,-0.20265 2.64583,-0.25306 0.0844,-0.0504 0.89088,-0.16313 1.79222,-0.25048 0.90134,-0.0874 2.1515,-0.3274 2.77812,-0.53346 6.94416,-2.28349 20.98233,-4.309176 17.70397,-2.55465 -0.27553,0.14746 -1.60145,0.39278 -2.94647,0.54514 -1.34502,0.15237 -2.51856,0.32109 -2.60787,0.37494 -0.0893,0.0539 -1.06991,0.16993 -2.1791,0.25795 -1.10919,0.088 -3.19278,0.46926 -4.63021,0.84721 -1.43742,0.37795 -2.91115,0.74478 -3.27495,0.81518 -1.32577,0.25655 -1.48474,0.35047 -1.05092,0.62095 0.30081,0.18754 0.32267,0.34992 0.096,0.71336 -0.24212,0.38829 -0.58998,0.45533 -1.98962,0.38345 -0.93291,-0.0479 -2.10996,-0.17173 -2.61566,-0.27516 -0.95825,-0.19598 -2.40154,0.0955 -5.10447,1.03091 -1.10738,0.38324 -1.942,0.49528 -2.97635,0.39958 -1.10144,-0.10192 -2.463,0.1133 -5.82498,0.92074 -2.41316,0.57956 -4.60843,1.05375 -4.87838,1.05375 -0.26995,0 -0.5664,0.23812 -0.65878,0.52916 -0.15005,0.47279 -0.38451,0.52561 -2.20064,0.49573 -1.11798,-0.0184 -2.50894,-0.14939 -3.09102,-0.29111 z m 38.5431,-0.21102 c 0.14562,-0.43686 3.60773,-2.90401 4.07515,-2.90401 0.16622,0 1.00354,-0.34391 1.86073,-0.76423 0.85718,-0.42032 2.05832,-0.91358 2.66919,-1.09612 1.17276,-0.35046 1.35082,-0.583 1.66507,-2.17455 0.14964,-0.75783 0.11056,-0.99219 -0.16544,-0.99219 -0.55172,0 -0.41884,-0.34281 0.35036,-0.90387 0.63148,-0.46062 0.75781,-0.47106 1.38075,-0.11417 0.78663,0.45067 0.79115,0.6238 0.068,2.60554 -0.42174,1.15581 -0.73788,1.57136 -1.53662,2.01974 -0.55309,0.31049 -1.15786,0.50611 -1.34393,0.43472 -0.18606,-0.0714 -0.33829,0.002 -0.33829,0.16307 0,0.16109 -0.14883,0.29362 -0.33073,0.29452 -0.1819,7.9e-4 -0.6433,0.16472 -1.02532,0.36406 -0.38203,0.19934 -1.84474,0.7456 -3.25047,1.21392 -1.40573,0.46832 -2.92755,1.16424 -3.38184,1.54649 -0.46699,0.39295 -0.76977,0.52641 -0.69666,0.30708 z m 19.39579,-4.95453 c -0.0886,-0.54571 -0.27261,-1.26568 -0.40886,-1.59995 -0.30838,-0.75652 -0.32325,-1.90578 -0.0247,-1.90578 0.18219,0 1.36443,3.75296 1.36443,4.3313 0,0.0916 -0.1732,0.16661 -0.38489,0.16661 -0.23972,0 -0.44565,-0.37421 -0.54601,-0.99218 z m -17.25488,-4.64593 c 0.13068,-0.395481 6.45764,-0.732769 7.16209,-0.381812 0.26712,0.133082 0.44571,0.276112 0.39687,0.317832 -0.0488,0.0417 -1.79301,0.14407 -3.87593,0.22743 -2.86678,0.11472 -3.76182,0.075 -3.68303,-0.16345 z m -31.2913,-14.205635 c 0,-0.145521 0.24515,-0.264583 0.54478,-0.264583 0.29963,0 0.47119,0.119062 0.38126,0.264583 -0.0899,0.145521 -0.33509,0.264583 -0.54478,0.264583 -0.2097,0 -0.38126,-0.119062 -0.38126,-0.264583 z m 67.73333,-9.955085 c -0.50933,-0.183589 -1.20508,-0.340516 -1.54613,-0.348732 -0.37951,-0.0091 -0.67128,-0.21074 -0.75206,-0.519639 -0.15374,-0.587904 -1.05165,-0.894728 -1.64562,-0.562326 -0.30511,0.170748 -0.83519,-0.141158 -2.045,-1.20332 -1.17253,-1.02942 -1.84927,-1.433814 -2.39946,-1.433814 -0.42147,0 -0.8948,-0.128484 -1.05184,-0.285523 -0.15704,-0.157038 -0.77146,-0.394708 -1.36538,-0.528153 -0.80672,-0.181255 -1.47062,-0.644443 -2.62465,-1.831141 -1.04728,-1.076931 -1.39859,-1.588516 -1.09083,-1.588516 0.24967,0 0.49364,0.0893 0.54215,0.198437 0.25338,0.5701 2.75764,2.447396 3.26476,2.447396 0.32369,0 0.90489,0.248848 1.29155,0.552998 0.59764,0.470106 0.82568,0.510241 1.52128,0.267753 0.89779,-0.312971 1.28664,-0.197472 1.28664,0.382169 0,0.467035 1.84349,1.674805 3.43959,2.253456 0.65484,0.237411 1.65372,0.747472 2.21973,1.133473 0.56601,0.386 1.24359,0.701817 1.50574,0.701817 0.50698,0 0.91835,0.423254 0.57832,0.595032 -0.11151,0.05633 -0.61947,-0.04778 -1.12879,-0.231367 z m -54.76875,-0.363665 c 0,-0.14552 0.17859,-0.264583 0.39687,-0.264583 0.21829,0 0.39688,0.119063 0.39688,0.264583 0,0.145521 -0.17859,0.264584 -0.39688,0.264584 -0.21828,0 -0.39687,-0.119063 -0.39687,-0.264584 z m 81.392977,-0.210203 c -0.0896,-0.144934 0.0248,-0.335521 0.25413,-0.423532 0.67979,-0.260858 2.75497,-0.182091 2.75497,0.104569 0,0.145521 -0.28277,0.264583 -0.62839,0.264583 -0.34561,0 -0.98601,0.07152 -1.42312,0.158946 -0.4371,0.08742 -0.86802,0.04037 -0.95759,-0.104566 z M 113.0109,75.28634 c -0.43741,-0.276622 -0.49578,-0.246089 1.44779,-0.757264 1.55587,-0.409202 3.91369,-0.476425 4.03416,-0.115012 0.0587,0.176022 -0.32123,0.368737 -0.90832,0.460762 -0.55504,0.087 -1.4397,0.272422 -1.96591,0.412048 -1.19808,0.317905 -2.10448,0.31772 -2.60772,-5.29e-4 z M 94.482653,73.617785 c 0,-0.184499 0.30842,-0.789334 0.68538,-1.344078 0.37695,-0.554744 0.98527,-1.683711 1.3518,-2.508814 0.89336,-2.011037 2.44361,-6.473234 2.31897,-6.674892 -0.0548,-0.08875 -0.96813,0.06052 -2.0295,0.331732 -1.44103,0.368215 -2.29833,0.442169 -3.38498,0.291999 -0.80037,-0.110606 -1.71649,-0.170214 -2.03584,-0.132461 -0.31934,0.03775 -1.20482,-0.232481 -1.96774,-0.600524 -1.67889,-0.809924 -2.2123,-0.829617 -3.36907,-0.124381 -0.4897,0.298548 -1.20407,0.506463 -1.5875,0.462031 -0.56257,-0.06519 -0.68901,-0.210428 -0.65499,-0.752427 0.0673,-1.072449 1.23024,-3.280127 1.78406,-3.38678 0.50739,-0.09772 0.51283,0.167748 0.0276,1.346448 -0.16196,0.393404 -0.0372,0.463905 0.82988,0.468906 0.60328,0.0035 1.29092,0.217413 1.68195,0.523282 0.3638,0.28457 0.95912,0.522975 1.32292,0.529788 0.3638,0.0068 1.36455,0.247587 2.22388,0.535051 2.18236,0.730041 3.63258,0.679141 5.09669,-0.178885 0.88734,-0.520012 1.60761,-0.71448 2.78354,-0.75153 0.872527,-0.02749 1.664727,-0.167627 1.760427,-0.311412 0.0957,-0.143782 0.65025,-0.279945 1.23233,-0.302583 3.08401,-0.119941 3.50402,-0.276201 2.75518,-1.02504 -0.15814,-0.158142 -0.33475,-0.955861 -0.39247,-1.772709 -0.0947,-1.339911 -0.0536,-1.48518 0.41982,-1.48518 0.43788,0 0.52476,-0.179419 0.52476,-1.083635 0,-0.670603 0.20807,-1.375844 0.5459,-1.850279 0.30024,-0.421653 0.47274,-0.885013 0.38333,-1.02969 -0.0894,-0.144679 -0.0351,-0.413382 0.12075,-0.597119 0.15584,-0.183738 0.56563,-0.676566 0.91066,-1.095172 0.81702,-0.991253 1.32605,-0.712329 1.08216,0.592966 -0.0988,0.529037 -0.30511,1.113592 -0.45834,1.299012 -0.15324,0.185417 -0.21103,0.404704 -0.12843,0.487304 0.0826,0.0826 -0.0701,0.664107 -0.33936,1.292238 -0.26925,0.628131 -0.4189,1.212694 -0.33257,1.29903 0.0863,0.08634 0.0281,0.424688 -0.12952,0.75189 -0.61139,1.269566 -0.80045,2.745216 -0.43596,3.402804 0.19257,0.347432 0.35435,0.885105 0.35951,1.194829 0.006,0.366067 0.49548,0.923983 1.39844,1.594271 2.44425,1.814427 3.11517,2.235544 3.34012,2.096513 0.12097,-0.07476 0.44584,0.03506 0.72194,0.244057 0.80272,0.607618 0.98714,0.485894 1.80487,-1.191294 0.51131,-1.048711 0.93224,-1.586892 1.24116,-1.586892 0.83063,0 0.84181,0.554808 0.0284,1.411925 -0.92334,0.973008 -1.27546,1.91512 -0.88957,2.380091 0.31304,0.377185 0.21132,1.396413 -0.13055,1.308066 -0.12619,-0.03261 -0.70569,-0.235744 -1.28777,-0.451406 -0.58208,-0.215664 -1.3673,-0.397343 -1.74493,-0.40373 -0.37763,-0.0064 -0.9021,-0.249738 -1.16549,-0.540779 -0.71221,-0.786985 -1.10374,-0.646057 -1.28638,0.46302 -0.20457,1.242299 -1.38502,4.160719 -1.5616,3.860732 -0.0721,-0.122492 0.0456,-0.818023 0.26152,-1.545627 0.21594,-0.727605 0.45119,-1.955348 0.52278,-2.72832 0.12566,-1.356619 0.0939,-1.441016 -0.91642,-2.431325 -0.87974,-0.86237 -1.21867,-1.023546 -2.12595,-1.011026 -0.82189,0.01135 -1.22658,0.181076 -1.69651,0.711533 -0.33943,0.383151 -0.57608,0.904997 -0.52591,1.159659 0.0502,0.254661 -0.0366,0.46302 -0.19275,0.46302 -0.15619,0 -0.28398,-0.137514 -0.28398,-0.305591 0,-0.181237 -0.19976,-0.124809 -0.49091,0.138671 -0.48634,0.44014 -1.49665,0.335598 -1.21175,-0.125386 0.0805,-0.130273 0.0396,-0.23686 -0.0909,-0.23686 -0.3045,0 -1.607847,2.653265 -1.816957,3.698848 -0.12058,0.602888 -0.29785,0.791533 -0.72206,0.768377 -0.44708,-0.0244 -0.46741,-0.05548 -0.0992,-0.151694 0.5687,-0.148616 0.61447,-0.611365 0.0605,-0.611365 -0.2214,0 -0.54649,0.327422 -0.72242,0.727604 -0.17593,0.400183 -0.64963,1.191954 -1.05266,1.75949 -0.40303,0.567537 -0.73279,1.137904 -0.73279,1.267484 0,0.336648 -1.11619,1.801672 -1.37267,1.801672 -0.11816,0 -0.21483,-0.150955 -0.21483,-0.335457 z m -38.97951,-5.923912 c -0.11386,-0.113866 -0.43727,-0.210603 -0.71868,-0.214974 -0.28141,-0.0044 -0.50672,-0.127011 -0.5007,-0.272532 0.006,-0.145521 0.31663,-0.240186 0.69022,-0.210367 0.78997,0.06305 0.97256,0.195778 0.83541,0.607242 -0.0546,0.163711 -0.19238,0.204494 -0.30625,0.09063 z m 66.269877,-4.622081 c -1.05671,-0.383468 -1.50684,-0.439562 -1.77062,-0.220643 -0.26358,0.218757 -0.59397,0.179527 -1.29678,-0.15398 -0.70229,-0.333259 -1.03331,-0.372647 -1.29644,-0.154271 -0.68506,0.568553 -0.94211,-0.217529 -0.28576,-0.873881 0.53831,-0.538308 2.71676,-0.56972 2.91923,-0.04209 0.0995,0.259223 0.4815,0.348464 1.24723,0.291354 1.29666,-0.09671 2.63185,0.495596 2.51183,1.114279 -0.11857,0.611206 -0.43564,0.617337 -2.02869,0.03923 z m 1.7256,-1.201189 c -0.097,-0.09701 -0.17639,-0.55481 -0.17639,-1.017326 0,-0.504917 -0.21144,-1.03229 -0.52916,-1.319826 -0.61067,-0.552643 -0.68261,-0.926042 -0.17842,-0.926042 0.62412,0 1.4282,1.161735 1.60236,2.315104 0.12833,0.849773 0.0829,1.124479 -0.1861,1.124479 -0.19574,0 -0.43528,-0.07937 -0.53229,-0.176389 z M 87.074323,58.878605 c 0,-0.280205 1.82818,-1.180637 2.98824,-1.471793 0.80914,-0.203081 1.22833,-0.651486 0.60904,-0.651486 -0.51746,0 -3.1531,1.035579 -3.3302,1.308484 -0.0741,0.114231 -0.42069,0.297013 -0.77013,0.40618 -0.52863,0.16515 -0.6064,0.123068 -0.46302,-0.250563 0.0948,-0.246975 0.17232,-0.54029 0.17232,-0.651806 0,-0.548095 4.96978,-2.03376 5.39174,-1.611805 0.41703,0.417031 -0.34508,1.795563 -1.09699,1.984282 -0.37796,0.09486 -1.16408,0.402876 -1.74693,0.684477 -1.16706,0.563862 -1.75407,0.648875 -1.75407,0.25403 z M 120.03045,57.59287 c -0.28251,-0.242369 -0.87444,-0.857388 -1.3154,-1.366711 -0.44096,-0.509323 -1.66974,-1.788168 -2.73062,-2.841879 -1.84396,-1.831485 -1.94622,-1.998244 -2.32262,-3.787608 -0.46106,-2.191766 -0.47335,-3.51523 -0.0429,-4.615304 0.53553,-1.368578 0.87924,-1.808385 1.23932,-1.585838 0.18533,0.114535 2.43343,0.239802 4.99578,0.278368 4.81075,0.07241 6.55569,0.335671 9.68591,1.461323 0.87313,0.313983 2.3037,0.778372 3.17906,1.031978 0.87535,0.253606 2.24918,0.881774 3.05293,1.395931 1.87802,1.201356 3.42813,1.907619 5.40968,2.464768 0.87312,0.245496 2.21458,0.860478 2.98103,1.366626 1.15916,0.765498 1.46138,0.863952 1.797,0.585414 0.33147,-0.275095 0.53134,-0.2418 1.12001,0.186574 0.3941,0.286782 1.54909,0.908063 2.56665,1.380622 1.73332,0.804963 1.98384,0.850183 3.96875,0.716415 1.16525,-0.07853 3.42833,-0.211299 5.02906,-0.295037 3.61545,-0.189135 3.70269,-0.215728 4.12372,-1.256879 0.45595,-1.127533 1.37807,-2.563516 1.64879,-2.567615 0.29453,-0.0045 -0.003,0.933281 -0.77797,2.455574 -0.35529,0.697524 -0.57559,1.382133 -0.48955,1.521355 0.0861,0.139221 0.0137,0.253129 -0.16073,0.253129 -0.17445,0 -0.47188,0.208359 -0.66096,0.463021 -0.27843,0.374999 -0.43933,0.404789 -0.84639,0.156702 -0.35981,-0.219295 -1.09728,-0.238601 -2.5958,-0.06796 -1.15126,0.131094 -2.80757,0.248838 -3.6807,0.261655 -0.87312,0.01281 -2.20313,0.03597 -2.95557,0.05147 -1.31871,0.02715 -2.48846,-0.324647 -4.68292,-1.408356 -0.69965,-0.345517 -1.16049,-0.428874 -1.45521,-0.263216 -0.30638,0.172218 -0.58926,0.09447 -0.97672,-0.268435 -1.19567,-1.119931 -10.27187,-5.539457 -11.37616,-5.539457 -0.21302,0 -0.89203,-0.231799 -1.5089,-0.515109 -3.03813,-1.395304 -8.76539,-2.870536 -9.09208,-2.341944 -0.0838,0.135594 -0.28293,0.123624 -0.46561,-0.02799 -0.51347,-0.426138 -5.69343,-0.424953 -6.88393,0.0016 -1.49139,0.534332 -1.6502,0.929294 -1.23132,3.062314 0.68741,3.500409 1.29998,4.393541 5.81111,8.472532 0.69182,0.625555 1.08897,1.178978 0.97657,1.360848 -0.25558,0.41353 -0.71461,0.351956 -1.33333,-0.178848 z M 93.124823,57.311671 c 0.29035,-0.183936 0.24238,-0.348883 -0.24246,-0.833721 l -0.60442,-0.604417 0.56422,-0.208716 c 0.9007,-0.333193 2.55432,-0.09124 2.65013,0.387752 0.0624,0.31202 0.28037,0.378608 0.8599,0.262705 1.00333,-0.200668 1.05049,0.369974 0.0487,0.589176 -0.40018,0.08756 -1.07279,0.268428 -1.49469,0.401918 -1.00626,0.318384 -2.28157,0.322181 -1.78137,0.0053 z m 4.54041,-1.080829 c -0.21402,-0.132273 -0.33305,-0.285525 -0.2645,-0.340563 0.80665,-0.647676 1.84442,-1.236332 1.84442,-1.046205 0,0.132794 -0.26793,0.553254 -0.5954,0.934355 -0.4283,0.498448 -0.7046,0.625414 -0.98452,0.452413 z m -1.3305,-0.889717 c 0,-0.528859 0.66142,-1.010774 3.2116,-2.339998 1.399667,-0.729554 3.197227,-3.074228 4.219307,-5.503532 0.15244,-0.362326 0.67567,-1.023789 1.16273,-1.469919 0.78058,-0.714981 0.8639,-0.917115 0.70276,-1.704975 -0.11187,-0.546973 -0.44596,-1.054632 -0.86094,-1.308206 -0.37297,-0.227906 -1.19319,-0.755798 -1.82269,-1.173091 -0.78183,-0.51826 -1.66921,-0.82378 -2.80002,-0.964017 -0.910497,-0.112919 -1.799207,-0.294151 -1.974907,-0.402738 -0.34604,-0.213871 -6.68456,-0.742646 -8.17419,-0.681916 -0.50182,0.02045 -1.19853,0.224681 -1.54825,0.453826 -0.67034,0.439222 -2.09329,0.403032 -4.15394,-0.105648 -3.98529,-0.983787 -7.17617,-1.582954 -7.37439,-1.384734 -0.12689,0.126895 -0.40147,0.16519 -0.61016,0.08511 -0.2087,-0.08008 -0.61554,0.107815 -0.90411,0.417553 -0.57663,0.618939 -1.14553,0.688594 -2.59002,0.317111 -0.5262,-0.135327 -2.06257,-0.376217 -3.41414,-0.535313 -2.96412,-0.348914 -4.4373,-0.892884 -4.88396,-1.803398 -0.18235,-0.371734 -0.60299,-0.715936 -0.93476,-0.764897 -0.33177,-0.04896 -1.1652,-0.375094 -1.85208,-0.724744 -1.94728,-0.991235 -2.96867,-2.399014 -2.96867,-4.091699 0,-0.590256 -0.16856,-1.169418 -0.39506,-1.357397 -0.28636,-0.237657 -0.34985,-0.610584 -0.23077,-1.355315 0.17392,-1.087617 -0.25706,-1.467842 -0.56479,-0.498274 -0.19666,0.619607 -0.54368,0.68857 -0.75066,0.149178 -0.0802,-0.208992 0.0857,-0.674257 0.36857,-1.033921 0.2829,-0.359661 0.51438,-0.884589 0.51438,-1.166502 0,-0.281917 0.23812,-0.728073 0.52916,-0.991463 0.29105,-0.263389 0.52917,-0.587812 0.52917,-0.72094 0,-0.225193 1.50028,-2.556037 1.83505,-2.850935 0.0826,-0.07276 0.31189,-0.446562 0.50955,-0.830671 0.29659,-0.576377 1.27268,-1.285995 1.76889,-1.285995 0.31537,0 0.0611,0.583241 -0.43375,0.994776 -0.30448,0.253238 -1.06664,1.23978 -1.6937,2.192318 -0.62706,0.952537 -1.33044,1.889849 -1.56307,2.082917 -0.46285,0.384132 -0.56356,1.356872 -0.18167,1.754676 0.13272,0.138245 0.29658,0.906198 0.36413,1.706562 0.24216,2.869097 0.4148,3.914921 0.72944,4.418735 0.55974,0.896279 1.91629,1.629473 3.89065,2.102834 1.78336,0.427567 1.91823,0.509233 1.91823,1.161494 0,1.222785 0.65042,1.508086 4.23333,1.856894 1.81901,0.177088 3.5308,0.437052 3.80396,0.577702 0.32733,0.168534 0.55406,0.162874 0.66498,-0.01659 0.39537,-0.639725 2.66061,-0.889836 6.55325,-0.723558 2.15972,0.09225 5.47427,0.220892 7.36566,0.285866 1.94113,0.06668 4.01537,0.291296 4.7625,0.515721 0.72798,0.218672 1.97846,0.376647 2.77882,0.351057 2.80213,-0.0896 5.699177,0.63832 7.516357,1.888572 0.7474,0.514225 1.34648,0.757293 1.54784,0.628009 0.18068,-0.116006 0.6002,-0.217297 0.93227,-0.225091 0.69733,-0.01638 1.00236,0.777409 0.76151,1.981684 -0.1006,0.50302 -0.0192,0.871299 0.24013,1.086535 0.34546,0.286703 0.34134,0.381929 -0.0344,0.797142 -0.70794,0.782267 -0.36453,1.347385 1.1266,1.853972 0.75607,0.256858 1.59473,0.40947 1.86369,0.339133 0.45968,-0.120208 1.37295,-1.837513 2.59379,-4.877382 0.41257,-1.02729 0.65912,-1.272971 1.62655,-1.620859 0.62714,-0.22552 1.14026,-0.342905 1.14026,-0.260855 0,0.08205 -0.53578,0.831146 -1.19062,1.664658 -0.65485,0.833511 -1.19063,1.607901 -1.19063,1.720868 0,0.112966 -0.47625,1.007039 -1.05833,1.98683 -0.58208,0.979792 -1.05833,1.91243 -1.05833,2.072526 0,0.160097 0.35966,0.363019 0.79925,0.450938 0.43959,0.08792 0.87323,0.279532 0.96363,0.425807 0.10292,0.166523 -0.12171,0.210195 -0.60082,0.116808 -1.77326,-0.345633 -1.75225,-0.351618 -2.07633,0.591249 -0.44004,1.280218 -1.06608,1.444093 -0.83623,0.218895 0.19899,-1.060723 -0.0644,-1.375799 -1.35836,-1.624891 -0.47294,-0.09104 -1.20774,-0.237207 -1.63289,-0.324808 -0.65867,-0.135718 -0.83137,-0.04767 -1.16757,0.595313 -0.21701,0.415022 -1.05978,1.466278 -1.87283,2.336122 -0.81305,0.869842 -1.47827,1.664793 -1.47827,1.766557 0,0.171064 -0.32378,0.363387 -2.513537,1.492993 -0.43656,0.225206 -1.16218,0.686607 -1.61248,1.025337 -0.9408,0.707697 -1.16565,0.757849 -1.16565,0.259998 z M 155.26845,50.33918 c -0.88035,-1.921732 -2.40151,-2.982348 -3.92741,-2.738344 -0.59975,0.0959 -1.22597,0.06819 -1.39161,-0.06159 -0.16563,-0.129775 -0.65834,-0.321608 -1.09491,-0.426296 -0.47678,-0.114332 -1.29357,-0.751057 -2.04542,-1.594512 -1.5929,-1.786987 -3.55887,-2.810081 -7.67823,-3.995755 -3.41623,-0.983295 -3.90447,-1.009277 -9.05308,-0.481788 -1.32495,0.135747 -1.67661,0.09163 -1.79834,-0.225592 -0.2078,-0.541504 -3.17384,-2.154473 -5.02336,-2.731759 -0.84189,-0.262776 -1.52136,-0.630529 -1.52136,-0.823413 0,-0.209341 -0.31079,-0.348556 -0.77813,-0.348556 -0.42798,0 -0.85865,-0.130276 -0.95706,-0.2895 -0.0984,-0.159223 -0.4723,-0.233415 -0.83088,-0.164867 -0.43959,0.08403 -0.86761,-0.07522 -1.31396,-0.488889 -0.48516,-0.449625 -0.88582,-0.583679 -1.49984,-0.501811 -2.81771,0.375692 -5.29291,0.379844 -6.46679,0.01085 -0.68762,-0.216146 -2.02412,-0.593389 -2.97,-0.838319 -1.89401,-0.490437 -5.45271,-2.161323 -6.84403,-3.213418 -0.842887,-0.637386 -1.013507,-0.66503 -3.166747,-0.513074 -2.12342,0.149852 -2.35435,0.114617 -3.44747,-0.526 -1.07008,-0.627105 -1.518,-0.702143 -5.16851,-0.865859 -3.57663,-0.160404 -4.14981,-0.25313 -5.45121,-0.881878 -2.56558,-1.239509 -6.01443,-2.091338 -7.67203,-1.894911 -4.88615,0.579009 -7.01955,1.608076 -10.79471,5.206936 -1.03326,0.985007 -1.4798,1.258734 -1.69779,1.040744 -0.4331,-0.433102 0.4753,-2.357305 1.6309,-3.454612 0.99793,-0.947592 3.09153,-2.342382 4.33611,-2.888781 0.84984,-0.3731 6.10989,-1.096383 7.71611,-1.061006 0.58209,0.01283 1.71318,0.19517 2.51354,0.40522 0.80037,0.21005 1.93146,0.496287 2.51355,0.63608 0.58208,0.139792 1.56944,0.4997 2.19412,0.799795 0.84343,0.405178 1.86502,0.581121 3.96875,0.68352 1.55813,0.07584 3.03632,0.242861 3.28487,0.371157 0.24855,0.128296 2.27261,0.355111 4.49792,0.504029 4.803467,0.321452 5.313017,0.372218 5.644687,0.562395 0.13937,0.07991 0.55105,0.218882 0.91485,0.308833 0.36381,0.08995 0.92861,0.579863 1.25513,1.088699 0.56878,0.886367 1.83263,1.712135 3.24279,2.118752 0.3638,0.104902 1.19724,0.442973 1.85208,0.751271 1.26792,0.596926 2.28678,0.664001 7.01146,0.461594 l 2.64583,-0.113347 5.69092,2.828406 5.69091,2.828409 3.30492,7.94e-4 c 5.86862,0.0016 11.85785,1.909765 15.306,4.87675 1.88407,1.621162 2.23769,1.785143 3.693,1.712528 1.67459,-0.08355 2.3154,0.167669 2.68137,1.0512 0.16963,0.409507 0.8296,1.441366 1.46661,2.29302 0.63701,0.851656 1.09932,1.64374 1.02735,1.760188 -0.3362,0.543991 -0.9099,0.09095 -1.4909,-1.17734 z m 8.07201,-2.352516 c -0.1819,-0.183152 -0.33073,-0.438692 -0.33073,-0.567867 0,-0.491654 -5.16209,-10.978991 -5.69578,-11.571597 -0.24034,-0.266872 -0.28059,-0.534881 -0.1192,-0.79375 0.36115,-0.579265 1.12268,-0.0071 1.45477,1.092917 0.14902,0.493625 0.6248,1.552345 1.05729,2.35271 0.43249,0.800364 0.8322,1.57427 0.88825,1.719791 0.0917,0.238088 0.39773,0.941359 1.49681,3.439583 0.19206,0.436563 0.66141,1.494274 1.043,2.350469 0.72612,1.629256 0.82743,2.603867 0.20559,1.977744 z m 1.25677,-0.253259 c 0,-0.159869 -0.46621,-1.261197 -1.03603,-2.447396 -1.72973,-3.600833 -3.78238,-8.603572 -3.66929,-8.942845 0.14049,-0.421484 3.64699,6.926109 3.64699,7.641992 0,0.132538 0.35719,0.97835 0.79375,1.879582 0.84839,1.751404 0.94836,2.159338 0.52916,2.159338 -0.14552,0 -0.26458,-0.130802 -0.26458,-0.290671 z m -2.86915,-9.790842 c -0.19558,-0.315876 -0.59625,-1.004491 -0.89037,-1.530258 -0.29413,-0.525764 -1.11637,-1.697521 -1.82721,-2.603902 -0.71084,-0.906383 -1.29244,-1.719455 -1.29244,-1.806829 0,-0.08737 -0.58711,-0.83407 -1.3047,-1.659326 -0.71758,-0.825254 -1.83765,-2.579555 -2.48904,-3.898445 -0.65139,-1.318891 -1.47153,-2.747641 -1.82254,-3.175001 -0.35101,-0.427359 -1.08138,-1.579161 -1.62305,-2.559559 -0.54167,-0.980398 -1.21427,-1.905323 -1.49466,-2.055387 -0.2804,-0.150065 -0.82252,-0.806436 -1.20472,-1.458603 -0.38219,-0.652167 -0.84861,-1.185759 -1.03649,-1.185759 -0.18787,0 -0.54126,-0.420773 -0.7853,-0.935052 -0.26237,-0.552908 -0.9756,-1.282798 -1.74518,-1.785938 -0.85235,-0.557254 -1.30312,-1.03806 -1.30623,-1.393281 -0.003,-0.298318 -0.14763,-0.685271 -0.32225,-0.859896 -0.38721,-0.387205 -1.44131,-0.417891 -1.66954,-0.0486 -0.2589,0.418909 -0.57497,0.08406 -0.75088,-0.795485 -0.10144,-0.5071907 -0.4059,-0.9140196 -0.82793,-1.1063087 -0.36711,-0.1672704 -0.66748,-0.4601181 -0.66748,-0.6507729 0,-0.1906547 -0.77224,-0.9654796 -1.71609,-1.7218328 -0.94385,-0.7563532 -1.78776,-1.6009926 -1.87536,-1.8769769 -0.22159,-0.6981896 -1.11406,-0.9646518 -2.15791,-0.6442847 -0.83242,0.2554761 -0.94689,0.2067938 -2.04277,-0.8687284 -0.65648,-0.6442882 -1.10044,-1.297006 -1.02172,-1.5021486 0.0766,-0.1995277 0.007,-0.3627776 -0.15368,-0.3627776 -0.16109,0 -0.29289,0.098425 -0.29289,0.2187213 0,0.3273536 -3.41624,0.3257065 -4.63021,-0.00223 -0.58208,-0.1572427 -1.77271,-0.3786046 -2.64583,-0.4919154 -0.87313,-0.1133108 -2.06375,-0.33297885 -2.64584,-0.48815125 -2.27518,-0.6065218 -4.54415,-0.3250219 -8.17616,1.01437545 -1.13098,0.4170799 -1.84651,0.5277329 -2.59493,0.4012893 -0.92359,-0.1560393 -0.98375,-0.2108531 -0.56638,-0.5160378 0.25683,-0.1877997 0.60112,-0.74172235 0.7651,-1.23093915 0.19771,-0.589897 0.49185,-0.9180544 0.87328,-0.9743078 l 0.57516,-0.084823 -0.56406,0.9560156 c -0.31024,0.5258086 -0.49361,1.02646995 -0.4075,1.11258085 0.19989,0.1998839 4.48298,-1.00996125 4.7081,-1.32989575 0.0929,-0.1319862 0.28774,-0.1665008 0.43304,-0.076699 0.1453,0.089802 0.41132,-0.014007 0.59115,-0.2306861 0.37483,-0.4516388 1.81524,-0.5108295 3.18317,-0.1308056 0.51515,0.1431128 2.0349,0.3028962 3.37721,0.3550742 1.34232,0.052178 2.51826,0.1725468 2.61319,0.2674861 0.37401,0.3740071 0.64075,0.1417352 0.48543,-0.4226957 -0.15098,-0.548658 -0.13454,-0.5590256 0.20978,-0.1322916 0.20548,0.2546614 0.54899,0.4630208 0.76335,0.4630208 0.21437,0 0.47135,0.081598 0.57108,0.181329 0.0997,0.099731 0.62293,0.3331447 1.16267,0.5186973 0.88136,0.30299445 1.03753,0.28458115 1.53282,-0.1807219 0.45433,-0.4268185 0.62726,-0.4599327 0.98164,-0.1879681 0.23658,0.1815671 0.46732,0.68042885 0.51276,1.10858175 0.0667,0.6283496 0.24842,0.8211319 0.9425,0.9997526 0.47294,0.1217107 0.8599,0.3894553 0.8599,0.5949876 0,0.5644295 0.44672,0.7254798 1.01973,0.3676292 0.74554,-0.4655968 2.27855,0.014634 2.31521,0.7252576 0.0433,0.8403667 0.92408,2.0380121 1.25522,1.7068736 0.48869,-0.4886868 1.49525,-0.3342887 1.49525,0.2293592 0,0.8687874 0.30019,1.3493787 1.10176,1.7638892 0.42518,0.219869 0.88406,0.6917155 1.01973,1.0485477 0.24078,0.6332944 1.3181,0.9473144 1.3181,0.3842025 0,-1.0254546 1.64018,0.7834199 1.99606,2.2013529 0.1587,0.632284 1.2274,1.767397 1.66399,1.767397 0.41877,0 1.36703,1.231036 1.36703,1.774683 0,0.635398 0.49974,0.898497 1.3061,0.687629 0.66226,-0.173187 1.60432,0.567852 1.60432,1.261996 0,0.257011 0.61309,1.518479 1.36244,2.803263 0.74934,1.284784 1.84286,3.22894 2.43004,4.320346 1.17037,2.175388 4.94037,8.017174 5.26476,8.157985 0.11174,0.04851 0.20317,0.194704 0.20317,0.324882 0,0.130175 0.72506,1.300752 1.61123,2.601283 0.88618,1.300527 1.57079,2.557322 1.52136,2.792875 -0.0739,0.351904 -0.1533,0.325861 -0.44549,-0.146039 z M 65.193773,16.365158 c -0.21448,-0.558906 0.80172,-1.413998 1.6804,-1.413998 0.35382,0 0.78712,-0.123052 0.96288,-0.27345 0.6495,-0.555779 3.44754,-2.113239 3.99115,-2.221576 0.72327,-0.14414 3.36813,-1.073034 4.02465,-1.413486 0.5501,-0.285261 2.80622,-0.853988 3.38775,-0.853988 0.19842,0 0.80186,-0.184303 1.34098,-0.4095619 0.75306,-0.3146465 0.91437,-0.4889103 0.69607,-0.7519485 -0.50691,-0.6107893 -0.0194,-0.6488266 1.49488,-0.116622 1.11126,0.390579 1.80998,0.4764643 2.78515,0.3423452 1.17508,-0.1616144 1.29262,-0.1312349 1.20809,0.3122308 -0.079,0.4144737 -0.5068,0.5379734 -2.73682,0.7900804 -5.07953,0.574249 -7.32611,1.138368 -10.78675,2.708565 -1.53696,0.697369 -3.44607,1.8947 -3.89497,2.442804 -0.0728,0.08884 -0.75773,0.309841 -1.52216,0.491112 -0.76444,0.181271 -1.45608,0.436682 -1.53697,0.567581 -0.24232,0.392076 -0.91424,0.269221 -1.09433,-0.200088 z m 23.39985,-8.7899658 c -0.12225,-0.4674629 0.066,-0.5558374 1.75155,-0.8224038 3.65948,-0.5787281 11.071197,-3.1070067 11.737777,-4.0039791 0.17834,-0.2399808 0.74389,-0.5150522 1.25677,-0.6112695 0.71152,-0.1334818 0.93251,-0.3051831 0.93251,-0.7245151 0,-0.44461925 0.0717,-0.49005665 0.37552,-0.2379228 0.29632,0.2459194 0.43047,0.2134528 0.63607,-0.1539317 0.21674,-0.38728345 0.36989,-0.41576655 0.91068,-0.16936475 0.83962,0.38255215 1.15512,1.39935515 0.43421,1.39935515 -0.27742,0 -0.73758,0.233185 -1.02258,0.5181888 -0.71948,0.7194825 -2.61797,1.6537162 -2.94714,1.4502738 -0.1497,-0.092519 -0.47304,0.00794 -0.71853,0.2232515 -0.72454,0.6354511 -6.591967,2.4939383 -9.309887,2.9488711 -1.38245,0.2313979 -2.82549,0.4851786 -3.20677,0.563957 -0.53745,0.1110485 -0.724,0.025548 -0.83018,-0.3805106 z"
       id="path837"
       inkscape:connector-curvature="0" />
  </g>
</svg>
